<svg class="main-svg" xmlns="http://www.w3.org/2000/svg" xmlns:xlink="http://www.w3.org/1999/xlink" width="1000" height="600" style="" viewBox="0 0 1000 600"><rect x="0" y="0" width="1000" height="600" style="fill: rgb(255, 255, 255); fill-opacity: 1;"/><defs id="defs-2b1c34"><g class="clips"><clipPath id="clip2b1c34xyplot" class="plotclip"><rect width="1000" height="600"/></clipPath><clipPath class="axesclip" id="clip2b1c34x"><rect x="0" y="0" width="1000" height="600"/></clipPath><clipPath class="axesclip" id="clip2b1c34y"><rect x="0" y="0" width="1000" height="600"/></clipPath><clipPath class="axesclip" id="clip2b1c34xy"><rect x="0" y="0" width="1000" height="600"/></clipPath></g><g class="gradients"/><g class="patterns"/></defs><g class="bglayer"><rect class="bg" x="0" y="0" width="1000" height="600" style="fill: rgb(229, 236, 246); fill-opacity: 1; stroke-width: 0;"/></g><g class="layer-below"><g class="imagelayer"/><g class="shapelayer"/></g><g class="cartesianlayer"><g class="subplot xy"><g class="layer-subplot"><g class="shapelayer"/><g class="imagelayer"/></g><g class="gridlayer"><g class="x"/><g class="y"/></g><g class="zerolinelayer"/><path class="xlines-below"/><path class="ylines-below"/><g class="overlines-below"/><g class="xaxislayer-below"/><g class="yaxislayer-below"/><g class="overaxes-below"/><g class="plot" transform="" clip-path="url(#clip2b1c34xyplot)"><g class="scatterlayer mlayer"><g class="trace scatter trace7ac179" style="stroke-miterlimit: 2; opacity: 1;"><g class="fills"/><g class="errorbars"/><g class="lines"/><g class="points"><path class="point" transform="translate(897.18,250.88)" d="M0,0A0,0 0 1,1 0,-0A0,0 0 0,1 0,0Z" style="opacity: 0.7; stroke-width: 1px; fill: rgb(99, 110, 250); fill-opacity: 1; stroke: rgb(255, 255, 255); stroke-opacity: 1;"/><path class="point" transform="translate(934.38,375.54)" d="M0,0A0,0 0 1,1 0,-0A0,0 0 0,1 0,0Z" style="opacity: 0.7; stroke-width: 1px; fill: rgb(99, 110, 250); fill-opacity: 1; stroke: rgb(255, 255, 255); stroke-opacity: 1;"/><path class="point" transform="translate(189.65,123.16)" d="M0,0A0,0 0 1,1 0,-0A0,0 0 0,1 0,0Z" style="opacity: 0.7; stroke-width: 1px; fill: rgb(99, 110, 250); fill-opacity: 1; stroke: rgb(255, 255, 255); stroke-opacity: 1;"/><path class="point" transform="translate(65.62,241.71)" d="M0,0A0,0 0 1,1 0,-0A0,0 0 0,1 0,0Z" style="opacity: 0.7; stroke-width: 1px; fill: rgb(99, 110, 250); fill-opacity: 1; stroke: rgb(255, 255, 255); stroke-opacity: 1;"/><path class="point" transform="translate(125.61,202.37)" d="M0,0A0,0 0 1,1 0,-0A0,0 0 0,1 0,0Z" style="opacity: 0.7; stroke-width: 1px; fill: rgb(99, 110, 250); fill-opacity: 1; stroke: rgb(255, 255, 255); stroke-opacity: 1;"/><path class="point" transform="translate(396.35,517)" d="M0,0A0,0 0 1,1 0,-0A0,0 0 0,1 0,0Z" style="opacity: 0.7; stroke-width: 1px; fill: rgb(99, 110, 250); fill-opacity: 1; stroke: rgb(255, 255, 255); stroke-opacity: 1;"/><path class="point" transform="translate(924.62,293.34)" d="M0,0A0,0 0 1,1 0,-0A0,0 0 0,1 0,0Z" style="opacity: 0.7; stroke-width: 1px; fill: rgb(99, 110, 250); fill-opacity: 1; stroke: rgb(255, 255, 255); stroke-opacity: 1;"/><path class="point" transform="translate(456.74,45.63)" d="M0,0A0,0 0 1,1 0,-0A0,0 0 0,1 0,0Z" style="opacity: 0.7; stroke-width: 1px; fill: rgb(99, 110, 250); fill-opacity: 1; stroke: rgb(255, 255, 255); stroke-opacity: 1;"/><path class="point" transform="translate(725.98,86.87)" d="M0,0A0,0 0 1,1 0,-0A0,0 0 0,1 0,0Z" style="opacity: 0.7; stroke-width: 1px; fill: rgb(99, 110, 250); fill-opacity: 1; stroke: rgb(255, 255, 255); stroke-opacity: 1;"/><path class="point" transform="translate(84.08,344.3)" d="M0,0A0,0 0 1,1 0,-0A0,0 0 0,1 0,0Z" style="opacity: 0.7; stroke-width: 1px; fill: rgb(99, 110, 250); fill-opacity: 1; stroke: rgb(255, 255, 255); stroke-opacity: 1;"/><path class="point" transform="translate(196.35,493.41)" d="M0,0A0,0 0 1,1 0,-0A0,0 0 0,1 0,0Z" style="opacity: 0.7; stroke-width: 1px; fill: rgb(99, 110, 250); fill-opacity: 1; stroke: rgb(255, 255, 255); stroke-opacity: 1;"/><path class="point" transform="translate(122.24,315.25)" d="M0,0A0,0 0 1,1 0,-0A0,0 0 0,1 0,0Z" style="opacity: 0.7; stroke-width: 1px; fill: rgb(99, 110, 250); fill-opacity: 1; stroke: rgb(255, 255, 255); stroke-opacity: 1;"/><path class="point" transform="translate(313.49,519.78)" d="M0,0A0,0 0 1,1 0,-0A0,0 0 0,1 0,0Z" style="opacity: 0.7; stroke-width: 1px; fill: rgb(99, 110, 250); fill-opacity: 1; stroke: rgb(255, 255, 255); stroke-opacity: 1;"/><path class="point" transform="translate(670.7,518.18)" d="M0,0A0,0 0 1,1 0,-0A0,0 0 0,1 0,0Z" style="opacity: 0.7; stroke-width: 1px; fill: rgb(99, 110, 250); fill-opacity: 1; stroke: rgb(255, 255, 255); stroke-opacity: 1;"/><path class="point" transform="translate(791.12,506.25)" d="M0,0A0,0 0 1,1 0,-0A0,0 0 0,1 0,0Z" style="opacity: 0.7; stroke-width: 1px; fill: rgb(99, 110, 250); fill-opacity: 1; stroke: rgb(255, 255, 255); stroke-opacity: 1;"/><path class="point" transform="translate(637.42,80.04)" d="M0,0A0,0 0 1,1 0,-0A0,0 0 0,1 0,0Z" style="opacity: 0.7; stroke-width: 1px; fill: rgb(99, 110, 250); fill-opacity: 1; stroke: rgb(255, 255, 255); stroke-opacity: 1;"/><path class="point" transform="translate(553.1,47.84)" d="M0,0A0,0 0 1,1 0,-0A0,0 0 0,1 0,0Z" style="opacity: 0.7; stroke-width: 1px; fill: rgb(99, 110, 250); fill-opacity: 1; stroke: rgb(255, 255, 255); stroke-opacity: 1;"/><path class="point" transform="translate(908.67,426.39)" d="M0,0A0,0 0 1,1 0,-0A0,0 0 0,1 0,0Z" style="opacity: 0.7; stroke-width: 1px; fill: rgb(99, 110, 250); fill-opacity: 1; stroke: rgb(255, 255, 255); stroke-opacity: 1;"/><path class="point" transform="translate(373.29,97.85)" d="M0,0A0,0 0 1,1 0,-0A0,0 0 0,1 0,0Z" style="opacity: 0.7; stroke-width: 1px; fill: rgb(99, 110, 250); fill-opacity: 1; stroke: rgb(255, 255, 255); stroke-opacity: 1;"/><path class="point" transform="translate(895.91,175.51)" d="M0,0A0,0 0 1,1 0,-0A0,0 0 0,1 0,0Z" style="opacity: 0.7; stroke-width: 1px; fill: rgb(99, 110, 250); fill-opacity: 1; stroke: rgb(255, 255, 255); stroke-opacity: 1;"/><path class="point" transform="translate(779.72,166.31)" d="M0,0A0,0 0 1,1 0,-0A0,0 0 0,1 0,0Z" style="opacity: 0.7; stroke-width: 1px; fill: rgb(99, 110, 250); fill-opacity: 1; stroke: rgb(255, 255, 255); stroke-opacity: 1;"/><path class="point" transform="translate(123.83,440.13)" d="M0,0A0,0 0 1,1 0,-0A0,0 0 0,1 0,0Z" style="opacity: 0.7; stroke-width: 1px; fill: rgb(99, 110, 250); fill-opacity: 1; stroke: rgb(255, 255, 255); stroke-opacity: 1;"/><path class="point" transform="translate(562.4,554.38)" d="M0,0A0,0 0 1,1 0,-0A0,0 0 0,1 0,0Z" style="opacity: 0.7; stroke-width: 1px; fill: rgb(99, 110, 250); fill-opacity: 1; stroke: rgb(255, 255, 255); stroke-opacity: 1;"/></g><g class="text"/></g><g class="trace scatter trace1975d9" style="stroke-miterlimit: 2; opacity: 1;"><g class="fills"/><g class="errorbars"/><g class="lines"><path class="js-line" d="M897.18,250.88L934.38,375.54" style="vector-effect: non-scaling-stroke; fill: none; stroke: rgb(120, 120, 0); stroke-opacity: 0.2; stroke-width: 2px; opacity: 1; stroke-dasharray: 9px, 9px;"/></g><g class="points"><path class="point" transform="translate(897.18,250.88)" d="M3,0A3,3 0 1,1 0,-3A3,3 0 0,1 3,0Z" style="opacity: 1; stroke-width: 0px; fill: rgb(120, 120, 0); fill-opacity: 0.2;"/><path class="point" transform="translate(934.38,375.54)" d="M3,0A3,3 0 1,1 0,-3A3,3 0 0,1 3,0Z" style="opacity: 1; stroke-width: 0px; fill: rgb(120, 120, 0); fill-opacity: 0.2;"/></g><g class="text"/></g><g class="trace scatter trace2ca54e" style="stroke-miterlimit: 2; opacity: 1;"><g class="fills"/><g class="errorbars"/><g class="lines"><path class="js-line" d="M934.38,375.54L897.18,250.88" style="vector-effect: non-scaling-stroke; fill: none; stroke: rgb(120, 120, 0); stroke-opacity: 0.2; stroke-width: 2px; opacity: 1; stroke-dasharray: 9px, 9px;"/></g><g class="points"><path class="point" transform="translate(934.38,375.54)" d="M3,0A3,3 0 1,1 0,-3A3,3 0 0,1 3,0Z" style="opacity: 1; stroke-width: 0px; fill: rgb(120, 120, 0); fill-opacity: 0.2;"/><path class="point" transform="translate(897.18,250.88)" d="M3,0A3,3 0 1,1 0,-3A3,3 0 0,1 3,0Z" style="opacity: 1; stroke-width: 0px; fill: rgb(120, 120, 0); fill-opacity: 0.2;"/></g><g class="text"/></g><g class="trace scatter tracecd7ee7" style="stroke-miterlimit: 2; opacity: 1;"><g class="fills"/><g class="errorbars"/><g class="lines"><path class="js-line" d="M189.65,123.16L65.62,241.71" style="vector-effect: non-scaling-stroke; fill: none; stroke: rgb(120, 120, 0); stroke-opacity: 0.2; stroke-width: 2px; opacity: 1; stroke-dasharray: 9px, 9px;"/></g><g class="points"><path class="point" transform="translate(189.65,123.16)" d="M3,0A3,3 0 1,1 0,-3A3,3 0 0,1 3,0Z" style="opacity: 1; stroke-width: 0px; fill: rgb(120, 120, 0); fill-opacity: 0.2;"/><path class="point" transform="translate(65.62,241.71)" d="M3,0A3,3 0 1,1 0,-3A3,3 0 0,1 3,0Z" style="opacity: 1; stroke-width: 0px; fill: rgb(120, 120, 0); fill-opacity: 0.2;"/></g><g class="text"/></g><g class="trace scatter trace0824bb" style="stroke-miterlimit: 2; opacity: 1;"><g class="fills"/><g class="errorbars"/><g class="lines"><path class="js-line" d="M125.61,202.37L396.35,517" style="vector-effect: non-scaling-stroke; fill: none; stroke: rgb(120, 120, 0); stroke-opacity: 0.2; stroke-width: 2px; opacity: 1; stroke-dasharray: 9px, 9px;"/></g><g class="points"><path class="point" transform="translate(125.61,202.37)" d="M3,0A3,3 0 1,1 0,-3A3,3 0 0,1 3,0Z" style="opacity: 1; stroke-width: 0px; fill: rgb(120, 120, 0); fill-opacity: 0.2;"/><path class="point" transform="translate(396.35,517)" d="M3,0A3,3 0 1,1 0,-3A3,3 0 0,1 3,0Z" style="opacity: 1; stroke-width: 0px; fill: rgb(120, 120, 0); fill-opacity: 0.2;"/></g><g class="text"/></g><g class="trace scatter trace4e05b7" style="stroke-miterlimit: 2; opacity: 1;"><g class="fills"/><g class="errorbars"/><g class="lines"><path class="js-line" d="M396.35,517L125.61,202.37" style="vector-effect: non-scaling-stroke; fill: none; stroke: rgb(120, 120, 0); stroke-opacity: 0.2; stroke-width: 2px; opacity: 1; stroke-dasharray: 9px, 9px;"/></g><g class="points"><path class="point" transform="translate(396.35,517)" d="M3,0A3,3 0 1,1 0,-3A3,3 0 0,1 3,0Z" style="opacity: 1; stroke-width: 0px; fill: rgb(120, 120, 0); fill-opacity: 0.2;"/><path class="point" transform="translate(125.61,202.37)" d="M3,0A3,3 0 1,1 0,-3A3,3 0 0,1 3,0Z" style="opacity: 1; stroke-width: 0px; fill: rgb(120, 120, 0); fill-opacity: 0.2;"/></g><g class="text"/></g><g class="trace scatter trace16d765" style="stroke-miterlimit: 2; opacity: 1;"><g class="fills"/><g class="errorbars"/><g class="lines"><path class="js-line" d="M924.62,293.34L456.74,45.63" style="vector-effect: non-scaling-stroke; fill: none; stroke: rgb(120, 120, 0); stroke-opacity: 0.2; stroke-width: 2px; opacity: 1; stroke-dasharray: 9px, 9px;"/></g><g class="points"><path class="point" transform="translate(924.62,293.34)" d="M3,0A3,3 0 1,1 0,-3A3,3 0 0,1 3,0Z" style="opacity: 1; stroke-width: 0px; fill: rgb(120, 120, 0); fill-opacity: 0.2;"/><path class="point" transform="translate(456.74,45.63)" d="M3,0A3,3 0 1,1 0,-3A3,3 0 0,1 3,0Z" style="opacity: 1; stroke-width: 0px; fill: rgb(120, 120, 0); fill-opacity: 0.2;"/></g><g class="text"/></g><g class="trace scatter trace1d48f5" style="stroke-miterlimit: 2; opacity: 1;"><g class="fills"/><g class="errorbars"/><g class="lines"><path class="js-line" d="M456.74,45.63L924.62,293.34" style="vector-effect: non-scaling-stroke; fill: none; stroke: rgb(120, 120, 0); stroke-opacity: 0.2; stroke-width: 2px; opacity: 1; stroke-dasharray: 9px, 9px;"/></g><g class="points"><path class="point" transform="translate(456.74,45.63)" d="M3,0A3,3 0 1,1 0,-3A3,3 0 0,1 3,0Z" style="opacity: 1; stroke-width: 0px; fill: rgb(120, 120, 0); fill-opacity: 0.2;"/><path class="point" transform="translate(924.62,293.34)" d="M3,0A3,3 0 1,1 0,-3A3,3 0 0,1 3,0Z" style="opacity: 1; stroke-width: 0px; fill: rgb(120, 120, 0); fill-opacity: 0.2;"/></g><g class="text"/></g><g class="trace scatter trace3b2e9c" style="stroke-miterlimit: 2; opacity: 1;"><g class="fills"/><g class="errorbars"/><g class="lines"><path class="js-line" d="M725.98,86.87L84.08,344.3" style="vector-effect: non-scaling-stroke; fill: none; stroke: rgb(120, 120, 0); stroke-opacity: 0.2; stroke-width: 2px; opacity: 1; stroke-dasharray: 9px, 9px;"/></g><g class="points"><path class="point" transform="translate(725.98,86.87)" d="M3,0A3,3 0 1,1 0,-3A3,3 0 0,1 3,0Z" style="opacity: 1; stroke-width: 0px; fill: rgb(120, 120, 0); fill-opacity: 0.2;"/><path class="point" transform="translate(84.08,344.3)" d="M3,0A3,3 0 1,1 0,-3A3,3 0 0,1 3,0Z" style="opacity: 1; stroke-width: 0px; fill: rgb(120, 120, 0); fill-opacity: 0.2;"/></g><g class="text"/></g><g class="trace scatter tracefeee54" style="stroke-miterlimit: 2; opacity: 1;"><g class="fills"/><g class="errorbars"/><g class="lines"><path class="js-line" d="M84.08,344.3L725.98,86.87" style="vector-effect: non-scaling-stroke; fill: none; stroke: rgb(120, 120, 0); stroke-opacity: 0.2; stroke-width: 2px; opacity: 1; stroke-dasharray: 9px, 9px;"/></g><g class="points"><path class="point" transform="translate(84.08,344.3)" d="M3,0A3,3 0 1,1 0,-3A3,3 0 0,1 3,0Z" style="opacity: 1; stroke-width: 0px; fill: rgb(120, 120, 0); fill-opacity: 0.2;"/><path class="point" transform="translate(725.98,86.87)" d="M3,0A3,3 0 1,1 0,-3A3,3 0 0,1 3,0Z" style="opacity: 1; stroke-width: 0px; fill: rgb(120, 120, 0); fill-opacity: 0.2;"/></g><g class="text"/></g><g class="trace scatter trace64b901" style="stroke-miterlimit: 2; opacity: 1;"><g class="fills"/><g class="errorbars"/><g class="lines"/><g class="points"><path class="point" transform="translate(196.35,493.41)" d="M3,0A3,3 0 1,1 0,-3A3,3 0 0,1 3,0Z" style="opacity: 1; stroke-width: 0px; fill: rgb(120, 120, 0); fill-opacity: 0.2;"/><path class="point" transform="translate(196.35,493.41)" d="M3,0A3,3 0 1,1 0,-3A3,3 0 0,1 3,0Z" style="opacity: 1; stroke-width: 0px; fill: rgb(120, 120, 0); fill-opacity: 0.2;"/></g><g class="text"/></g><g class="trace scatter trace758009" style="stroke-miterlimit: 2; opacity: 1;"><g class="fills"/><g class="errorbars"/><g class="lines"><path class="js-line" d="M122.24,315.25L313.49,519.78" style="vector-effect: non-scaling-stroke; fill: none; stroke: rgb(120, 120, 0); stroke-opacity: 0.2; stroke-width: 2px; opacity: 1; stroke-dasharray: 9px, 9px;"/></g><g class="points"><path class="point" transform="translate(122.24,315.25)" d="M3,0A3,3 0 1,1 0,-3A3,3 0 0,1 3,0Z" style="opacity: 1; stroke-width: 0px; fill: rgb(120, 120, 0); fill-opacity: 0.2;"/><path class="point" transform="translate(313.49,519.78)" d="M3,0A3,3 0 1,1 0,-3A3,3 0 0,1 3,0Z" style="opacity: 1; stroke-width: 0px; fill: rgb(120, 120, 0); fill-opacity: 0.2;"/></g><g class="text"/></g><g class="trace scatter trace1bc208" style="stroke-miterlimit: 2; opacity: 1;"><g class="fills"/><g class="errorbars"/><g class="lines"><path class="js-line" d="M670.7,518.18L791.12,506.25" style="vector-effect: non-scaling-stroke; fill: none; stroke: rgb(120, 120, 0); stroke-opacity: 0.2; stroke-width: 2px; opacity: 1; stroke-dasharray: 9px, 9px;"/></g><g class="points"><path class="point" transform="translate(670.7,518.18)" d="M3,0A3,3 0 1,1 0,-3A3,3 0 0,1 3,0Z" style="opacity: 1; stroke-width: 0px; fill: rgb(120, 120, 0); fill-opacity: 0.2;"/><path class="point" transform="translate(791.12,506.25)" d="M3,0A3,3 0 1,1 0,-3A3,3 0 0,1 3,0Z" style="opacity: 1; stroke-width: 0px; fill: rgb(120, 120, 0); fill-opacity: 0.2;"/></g><g class="text"/></g><g class="trace scatter traced98d8c" style="stroke-miterlimit: 2; opacity: 1;"><g class="fills"/><g class="errorbars"/><g class="lines"><path class="js-line" d="M637.42,80.04L553.1,47.84" style="vector-effect: non-scaling-stroke; fill: none; stroke: rgb(120, 120, 0); stroke-opacity: 0.2; stroke-width: 2px; opacity: 1; stroke-dasharray: 9px, 9px;"/></g><g class="points"><path class="point" transform="translate(637.42,80.04)" d="M3,0A3,3 0 1,1 0,-3A3,3 0 0,1 3,0Z" style="opacity: 1; stroke-width: 0px; fill: rgb(120, 120, 0); fill-opacity: 0.2;"/><path class="point" transform="translate(553.1,47.84)" d="M3,0A3,3 0 1,1 0,-3A3,3 0 0,1 3,0Z" style="opacity: 1; stroke-width: 0px; fill: rgb(120, 120, 0); fill-opacity: 0.2;"/></g><g class="text"/></g><g class="trace scatter trace26e385" style="stroke-miterlimit: 2; opacity: 1;"><g class="fills"/><g class="errorbars"/><g class="lines"><path class="js-line" d="M553.1,47.84L637.42,80.04" style="vector-effect: non-scaling-stroke; fill: none; stroke: rgb(120, 120, 0); stroke-opacity: 0.2; stroke-width: 2px; opacity: 1; stroke-dasharray: 9px, 9px;"/></g><g class="points"><path class="point" transform="translate(553.1,47.84)" d="M3,0A3,3 0 1,1 0,-3A3,3 0 0,1 3,0Z" style="opacity: 1; stroke-width: 0px; fill: rgb(120, 120, 0); fill-opacity: 0.2;"/><path class="point" transform="translate(637.42,80.04)" d="M3,0A3,3 0 1,1 0,-3A3,3 0 0,1 3,0Z" style="opacity: 1; stroke-width: 0px; fill: rgb(120, 120, 0); fill-opacity: 0.2;"/></g><g class="text"/></g><g class="trace scatter trace7f5fe0" style="stroke-miterlimit: 2; opacity: 1;"><g class="fills"/><g class="errorbars"/><g class="lines"><path class="js-line" d="M908.67,426.39L373.29,97.85" style="vector-effect: non-scaling-stroke; fill: none; stroke: rgb(120, 120, 0); stroke-opacity: 0.2; stroke-width: 2px; opacity: 1; stroke-dasharray: 9px, 9px;"/></g><g class="points"><path class="point" transform="translate(908.67,426.39)" d="M3,0A3,3 0 1,1 0,-3A3,3 0 0,1 3,0Z" style="opacity: 1; stroke-width: 0px; fill: rgb(120, 120, 0); fill-opacity: 0.2;"/><path class="point" transform="translate(373.29,97.85)" d="M3,0A3,3 0 1,1 0,-3A3,3 0 0,1 3,0Z" style="opacity: 1; stroke-width: 0px; fill: rgb(120, 120, 0); fill-opacity: 0.2;"/></g><g class="text"/></g><g class="trace scatter traced26bf1" style="stroke-miterlimit: 2; opacity: 1;"><g class="fills"/><g class="errorbars"/><g class="lines"><path class="js-line" d="M373.29,97.85L908.67,426.39" style="vector-effect: non-scaling-stroke; fill: none; stroke: rgb(120, 120, 0); stroke-opacity: 0.2; stroke-width: 2px; opacity: 1; stroke-dasharray: 9px, 9px;"/></g><g class="points"><path class="point" transform="translate(373.29,97.85)" d="M3,0A3,3 0 1,1 0,-3A3,3 0 0,1 3,0Z" style="opacity: 1; stroke-width: 0px; fill: rgb(120, 120, 0); fill-opacity: 0.2;"/><path class="point" transform="translate(908.67,426.39)" d="M3,0A3,3 0 1,1 0,-3A3,3 0 0,1 3,0Z" style="opacity: 1; stroke-width: 0px; fill: rgb(120, 120, 0); fill-opacity: 0.2;"/></g><g class="text"/></g><g class="trace scatter trace7cc584" style="stroke-miterlimit: 2; opacity: 1;"><g class="fills"/><g class="errorbars"/><g class="lines"/><g class="points"><path class="point" transform="translate(895.91,175.51)" d="M3,0A3,3 0 1,1 0,-3A3,3 0 0,1 3,0Z" style="opacity: 1; stroke-width: 0px; fill: rgb(120, 120, 0); fill-opacity: 0.2;"/><path class="point" transform="translate(895.91,175.51)" d="M3,0A3,3 0 1,1 0,-3A3,3 0 0,1 3,0Z" style="opacity: 1; stroke-width: 0px; fill: rgb(120, 120, 0); fill-opacity: 0.2;"/></g><g class="text"/></g><g class="trace scatter trace2efe41" style="stroke-miterlimit: 2; opacity: 1;"><g class="fills"/><g class="errorbars"/><g class="lines"><path class="js-line" d="M895.91,175.51L779.72,166.31" style="vector-effect: non-scaling-stroke; fill: none; stroke: rgb(120, 120, 0); stroke-opacity: 0.2; stroke-width: 2px; opacity: 1; stroke-dasharray: 9px, 9px;"/></g><g class="points"><path class="point" transform="translate(895.91,175.51)" d="M3,0A3,3 0 1,1 0,-3A3,3 0 0,1 3,0Z" style="opacity: 1; stroke-width: 0px; fill: rgb(120, 120, 0); fill-opacity: 0.2;"/><path class="point" transform="translate(779.72,166.31)" d="M3,0A3,3 0 1,1 0,-3A3,3 0 0,1 3,0Z" style="opacity: 1; stroke-width: 0px; fill: rgb(120, 120, 0); fill-opacity: 0.2;"/></g><g class="text"/></g><g class="trace scatter trace59042c" style="stroke-miterlimit: 2; opacity: 1;"><g class="fills"/><g class="errorbars"/><g class="lines"><path class="js-line" d="M779.72,166.31L895.91,175.51" style="vector-effect: non-scaling-stroke; fill: none; stroke: rgb(120, 120, 0); stroke-opacity: 0.2; stroke-width: 2px; opacity: 1; stroke-dasharray: 9px, 9px;"/></g><g class="points"><path class="point" transform="translate(779.72,166.31)" d="M3,0A3,3 0 1,1 0,-3A3,3 0 0,1 3,0Z" style="opacity: 1; stroke-width: 0px; fill: rgb(120, 120, 0); fill-opacity: 0.2;"/><path class="point" transform="translate(895.91,175.51)" d="M3,0A3,3 0 1,1 0,-3A3,3 0 0,1 3,0Z" style="opacity: 1; stroke-width: 0px; fill: rgb(120, 120, 0); fill-opacity: 0.2;"/></g><g class="text"/></g><g class="trace scatter traced09926" style="stroke-miterlimit: 2; opacity: 1;"><g class="fills"/><g class="errorbars"/><g class="lines"><path class="js-line" d="M123.83,440.13L562.4,554.38" style="vector-effect: non-scaling-stroke; fill: none; stroke: rgb(120, 120, 0); stroke-opacity: 0.2; stroke-width: 2px; opacity: 1; stroke-dasharray: 9px, 9px;"/></g><g class="points"><path class="point" transform="translate(123.83,440.13)" d="M3,0A3,3 0 1,1 0,-3A3,3 0 0,1 3,0Z" style="opacity: 1; stroke-width: 0px; fill: rgb(120, 120, 0); fill-opacity: 0.2;"/><path class="point" transform="translate(562.4,554.38)" d="M3,0A3,3 0 1,1 0,-3A3,3 0 0,1 3,0Z" style="opacity: 1; stroke-width: 0px; fill: rgb(120, 120, 0); fill-opacity: 0.2;"/></g><g class="text"/></g><g class="trace scatter traceea774e" style="stroke-miterlimit: 2; opacity: 1;"><g class="fills"/><g class="errorbars"/><g class="lines"/><g class="points"><path class="point" transform="translate(897.18,250.88)" d="M12.5,0A12.5,12.5 0 1,1 0,-12.5A12.5,12.5 0 0,1 12.5,0Z" style="opacity: 1; stroke-width: 0px; fill: rgb(0, 0, 0); fill-opacity: 1;"/><path class="point" transform="translate(934.38,375.54)" d="M12.5,0A12.5,12.5 0 1,1 0,-12.5A12.5,12.5 0 0,1 12.5,0Z" style="opacity: 1; stroke-width: 0px; fill: rgb(0, 0, 0); fill-opacity: 1;"/><path class="point" transform="translate(189.65,123.16)" d="M12.5,0A12.5,12.5 0 1,1 0,-12.5A12.5,12.5 0 0,1 12.5,0Z" style="opacity: 1; stroke-width: 0px; fill: rgb(0, 0, 0); fill-opacity: 1;"/><path class="point" transform="translate(65.62,241.71)" d="M12.5,0A12.5,12.5 0 1,1 0,-12.5A12.5,12.5 0 0,1 12.5,0Z" style="opacity: 1; stroke-width: 0px; fill: rgb(0, 0, 0); fill-opacity: 1;"/><path class="point" transform="translate(125.61,202.37)" d="M12.5,0A12.5,12.5 0 1,1 0,-12.5A12.5,12.5 0 0,1 12.5,0Z" style="opacity: 1; stroke-width: 0px; fill: rgb(0, 0, 0); fill-opacity: 1;"/><path class="point" transform="translate(396.35,517)" d="M12.5,0A12.5,12.5 0 1,1 0,-12.5A12.5,12.5 0 0,1 12.5,0Z" style="opacity: 1; stroke-width: 0px; fill: rgb(0, 0, 0); fill-opacity: 1;"/><path class="point" transform="translate(924.62,293.34)" d="M12.5,0A12.5,12.5 0 1,1 0,-12.5A12.5,12.5 0 0,1 12.5,0Z" style="opacity: 1; stroke-width: 0px; fill: rgb(0, 0, 0); fill-opacity: 1;"/><path class="point" transform="translate(456.74,45.63)" d="M12.5,0A12.5,12.5 0 1,1 0,-12.5A12.5,12.5 0 0,1 12.5,0Z" style="opacity: 1; stroke-width: 0px; fill: rgb(0, 0, 0); fill-opacity: 1;"/><path class="point" transform="translate(725.98,86.87)" d="M12.5,0A12.5,12.5 0 1,1 0,-12.5A12.5,12.5 0 0,1 12.5,0Z" style="opacity: 1; stroke-width: 0px; fill: rgb(0, 0, 0); fill-opacity: 1;"/><path class="point" transform="translate(84.08,344.3)" d="M12.5,0A12.5,12.5 0 1,1 0,-12.5A12.5,12.5 0 0,1 12.5,0Z" style="opacity: 1; stroke-width: 0px; fill: rgb(0, 0, 0); fill-opacity: 1;"/><path class="point" transform="translate(196.35,493.41)" d="M12.5,0A12.5,12.5 0 1,1 0,-12.5A12.5,12.5 0 0,1 12.5,0Z" style="opacity: 1; stroke-width: 0px; fill: rgb(0, 0, 0); fill-opacity: 1;"/><path class="point" transform="translate(122.24,315.25)" d="M12.5,0A12.5,12.5 0 1,1 0,-12.5A12.5,12.5 0 0,1 12.5,0Z" style="opacity: 1; stroke-width: 0px; fill: rgb(0, 0, 0); fill-opacity: 1;"/><path class="point" transform="translate(313.49,519.78)" d="M12.5,0A12.5,12.5 0 1,1 0,-12.5A12.5,12.5 0 0,1 12.5,0Z" style="opacity: 1; stroke-width: 0px; fill: rgb(0, 0, 0); fill-opacity: 1;"/><path class="point" transform="translate(670.7,518.18)" d="M12.5,0A12.5,12.5 0 1,1 0,-12.5A12.5,12.5 0 0,1 12.5,0Z" style="opacity: 1; stroke-width: 0px; fill: rgb(0, 0, 0); fill-opacity: 1;"/><path class="point" transform="translate(791.12,506.25)" d="M12.5,0A12.5,12.5 0 1,1 0,-12.5A12.5,12.5 0 0,1 12.5,0Z" style="opacity: 1; stroke-width: 0px; fill: rgb(0, 0, 0); fill-opacity: 1;"/><path class="point" transform="translate(637.42,80.04)" d="M12.5,0A12.5,12.5 0 1,1 0,-12.5A12.5,12.5 0 0,1 12.5,0Z" style="opacity: 1; stroke-width: 0px; fill: rgb(0, 0, 0); fill-opacity: 1;"/><path class="point" transform="translate(553.1,47.84)" d="M12.5,0A12.5,12.5 0 1,1 0,-12.5A12.5,12.5 0 0,1 12.5,0Z" style="opacity: 1; stroke-width: 0px; fill: rgb(0, 0, 0); fill-opacity: 1;"/><path class="point" transform="translate(908.67,426.39)" d="M12.5,0A12.5,12.5 0 1,1 0,-12.5A12.5,12.5 0 0,1 12.5,0Z" style="opacity: 1; stroke-width: 0px; fill: rgb(0, 0, 0); fill-opacity: 1;"/><path class="point" transform="translate(373.29,97.85)" d="M12.5,0A12.5,12.5 0 1,1 0,-12.5A12.5,12.5 0 0,1 12.5,0Z" style="opacity: 1; stroke-width: 0px; fill: rgb(0, 0, 0); fill-opacity: 1;"/><path class="point" transform="translate(895.91,175.51)" d="M12.5,0A12.5,12.5 0 1,1 0,-12.5A12.5,12.5 0 0,1 12.5,0Z" style="opacity: 1; stroke-width: 0px; fill: rgb(0, 0, 0); fill-opacity: 1;"/><path class="point" transform="translate(779.72,166.31)" d="M12.5,0A12.5,12.5 0 1,1 0,-12.5A12.5,12.5 0 0,1 12.5,0Z" style="opacity: 1; stroke-width: 0px; fill: rgb(0, 0, 0); fill-opacity: 1;"/><path class="point" transform="translate(123.83,440.13)" d="M12.5,0A12.5,12.5 0 1,1 0,-12.5A12.5,12.5 0 0,1 12.5,0Z" style="opacity: 1; stroke-width: 0px; fill: rgb(0, 0, 0); fill-opacity: 1;"/><path class="point" transform="translate(562.4,554.38)" d="M12.5,0A12.5,12.5 0 1,1 0,-12.5A12.5,12.5 0 0,1 12.5,0Z" style="opacity: 1; stroke-width: 0px; fill: rgb(0, 0, 0); fill-opacity: 1;"/></g><g class="text"/></g></g></g><g class="overplot"/><path class="xlines-above crisp" d="M0,0" style="fill: none;"/><path class="ylines-above crisp" d="M0,0" style="fill: none;"/><g class="overlines-above"/><g class="xaxislayer-above"/><g class="yaxislayer-above"/><g class="overaxes-above"/></g></g><g class="polarlayer"/><g class="smithlayer"/><g class="ternarylayer"/><g class="geolayer"/><g class="funnelarealayer"/><g class="pielayer"/><g class="iciclelayer"/><g class="treemaplayer"/><g class="sunburstlayer"/><g class="glimages"/><defs id="topdefs-2b1c34"><g class="clips"/></defs><g class="layer-above"><g class="imagelayer"/><g class="shapelayer"/></g><g class="infolayer"><g class="g-gtitle"><text class="gtitle" x="50" y="0" text-anchor="start" dy="0em" style="font-family: 'Open Sans', verdana, arial, sans-serif; font-size: 17px; fill: rgb(42, 63, 95); opacity: 1; font-weight: normal; white-space: pre;">Article: Global policy challenges for urban vector-borne disease risks</text></g><g class="annotation" data-index="0" style="opacity: 1;"><g class="annotation-text-g" transform="rotate(0,887.18,220.88)"><g class="cursor-pointer" transform="translate(873,211)"><a xlink:href="https://mm80843.github.io/T3.5/keyword_low" xlink:show="replace" style="cursor: pointer;"><rect class="bg" x="0.5" y="0.5" width="27" height="18" style="stroke-width: 1px; stroke: rgb(0, 0, 0); stroke-opacity: 0; fill: rgb(255, 255, 255); fill-opacity: 1;"/></a><text class="annotation-text" text-anchor="middle" x="14.046875" y="14" style="font-family: 'Open Sans', verdana, arial, sans-serif; font-size: 12px; fill: rgb(42, 63, 95); fill-opacity: 1; white-space: pre; pointer-events: all;"><tspan style="font-weight:bold"><a xlink:show="replace" target="_self" xlink:href="https://mm80843.github.io/T3.5/keyword_low" style="cursor:pointer">low</a></tspan></text></g></g><g class="annotation-arrow-g" style="opacity: 1;"><path d="M890.18,229.88L897.18,250.88" style="stroke-width: 1px; stroke: rgb(42, 63, 95); stroke-opacity: 1; stroke-dasharray: 0px, 0px, 22.1359px, 22.1359px;"/></g></g><g class="annotation" data-index="1" style="opacity: 1;"><g class="annotation-text-g" transform="rotate(0,924.38,345.54)"><g class="cursor-pointer" transform="translate(853,336)"><rect class="bg" x="0.5" y="0.5" width="142" height="18" style="stroke-width: 1px; stroke: rgb(0, 0, 0); stroke-opacity: 0; fill: rgb(255, 255, 255); fill-opacity: 1;"/><text class="annotation-text" text-anchor="middle" x="70.859375" y="14" style="font-family: 'Open Sans', verdana, arial, sans-serif; font-size: 12px; fill: rgb(42, 63, 95); fill-opacity: 1; white-space: pre;"><tspan style="font-style:italic">middle income country</tspan></text></g></g><g class="annotation-arrow-g" style="opacity: 1;"><path d="M927.38,354.54L934.38,375.54" style="stroke-width: 1px; stroke: rgb(42, 63, 95); stroke-opacity: 1; stroke-dasharray: 0px, 0px, 22.1359px, 22.1359px;"/></g></g><g class="annotation" data-index="2" style="opacity: 1;"><g class="annotation-text-g" transform="rotate(0,179.65,93.16)"><g class="cursor-pointer" transform="translate(150,84)"><rect class="bg" x="0.5" y="0.5" width="59" height="18" style="stroke-width: 1px; stroke: rgb(0, 0, 0); stroke-opacity: 0; fill: rgb(255, 255, 255); fill-opacity: 1;"/><text class="annotation-text" text-anchor="middle" x="29.796875" y="14" style="font-family: 'Open Sans', verdana, arial, sans-serif; font-size: 12px; fill: rgb(42, 63, 95); fill-opacity: 1; white-space: pre;"><tspan style="font-style:italic">mosquito</tspan></text></g></g><g class="annotation-arrow-g" style="opacity: 1;"><path d="M182.65,102.16L189.65,123.16" style="stroke-width: 1px; stroke: rgb(42, 63, 95); stroke-opacity: 1; stroke-dasharray: 0px, 0px, 22.1359px, 22.1359px;"/></g></g><g class="annotation" data-index="3" style="opacity: 1;"><g class="annotation-text-g" transform="rotate(0,55.620000000000005,211.71)"><g class="cursor-pointer" transform="translate(34,202)"><rect class="bg" x="0.5" y="0.5" width="43" height="18" style="stroke-width: 1px; stroke: rgb(0, 0, 0); stroke-opacity: 0; fill: rgb(255, 255, 255); fill-opacity: 1;"/><text class="annotation-text" text-anchor="middle" x="20.8125" y="14" style="font-family: 'Open Sans', verdana, arial, sans-serif; font-size: 12px; fill: rgb(42, 63, 95); fill-opacity: 1; white-space: pre;"><tspan style="font-style:italic">vector</tspan></text></g></g><g class="annotation-arrow-g" style="opacity: 1;"><path d="M58.620000000000005,220.71L65.62,241.71" style="stroke-width: 1px; stroke: rgb(42, 63, 95); stroke-opacity: 1; stroke-dasharray: 0px, 0px, 22.1359px, 22.1359px;"/></g></g><g class="annotation" data-index="4" style="opacity: 1;"><g class="annotation-text-g" transform="rotate(0,115.61,172.37)"><g class="cursor-pointer" transform="translate(73,163)"><rect class="bg" x="0.5" y="0.5" width="84" height="18" style="stroke-width: 1px; stroke: rgb(0, 0, 0); stroke-opacity: 0; fill: rgb(255, 255, 255); fill-opacity: 1;"/><text class="annotation-text" text-anchor="middle" x="42.234375" y="14" style="font-family: 'Open Sans', verdana, arial, sans-serif; font-size: 12px; fill: rgb(42, 63, 95); fill-opacity: 1; white-space: pre;"><tspan style="font-style:italic">control policy</tspan></text></g></g><g class="annotation-arrow-g" style="opacity: 1;"><path d="M118.61,181.37L125.61,202.37" style="stroke-width: 1px; stroke: rgb(42, 63, 95); stroke-opacity: 1; stroke-dasharray: 0px, 0px, 22.1359px, 22.1359px;"/></g></g><g class="annotation" data-index="5" style="opacity: 1;"><g class="annotation-text-g" transform="rotate(0,386.35,487)"><g class="cursor-pointer" transform="translate(317,478)"><rect class="bg" x="0.5" y="0.5" width="137" height="18" style="stroke-width: 1px; stroke: rgb(0, 0, 0); stroke-opacity: 0; fill: rgb(255, 255, 255); fill-opacity: 1;"/><text class="annotation-text" text-anchor="middle" x="69.078125" y="14" style="font-family: 'Open Sans', verdana, arial, sans-serif; font-size: 12px; fill: rgb(42, 63, 95); fill-opacity: 1; white-space: pre;"><tspan style="font-style:italic">preventative measure</tspan></text></g></g><g class="annotation-arrow-g" style="opacity: 1;"><path d="M389.35,496L396.35,517" style="stroke-width: 1px; stroke: rgb(42, 63, 95); stroke-opacity: 1; stroke-dasharray: 0px, 0px, 22.1359px, 22.1359px;"/></g></g><g class="annotation" data-index="6" style="opacity: 1;"><g class="annotation-text-g" transform="rotate(0,914.62,263.34)"><g class="cursor-pointer" transform="translate(864,254)"><rect class="bg" x="0.5" y="0.5" width="101" height="18" style="stroke-width: 1px; stroke: rgb(0, 0, 0); stroke-opacity: 0; fill: rgb(255, 255, 255); fill-opacity: 1;"/><text class="annotation-text" text-anchor="middle" x="50.125" y="14" style="font-family: 'Open Sans', verdana, arial, sans-serif; font-size: 12px; fill: rgb(42, 63, 95); fill-opacity: 1; white-space: pre;"><tspan style="font-style:italic">health care cost</tspan></text></g></g><g class="annotation-arrow-g" style="opacity: 1;"><path d="M917.62,272.34L924.62,293.34" style="stroke-width: 1px; stroke: rgb(42, 63, 95); stroke-opacity: 1; stroke-dasharray: 0px, 0px, 22.1359px, 22.1359px;"/></g></g><g class="annotation" data-index="7" style="opacity: 1;"><g class="annotation-text-g" transform="rotate(0,446.74,15.630000000000003)"><g class="cursor-pointer" transform="translate(405,6)"><rect class="bg" x="0.5" y="0.5" width="82" height="18" style="stroke-width: 1px; stroke: rgb(0, 0, 0); stroke-opacity: 0; fill: rgb(255, 255, 255); fill-opacity: 1;"/><text class="annotation-text" text-anchor="middle" x="41.203125" y="14" style="font-family: 'Open Sans', verdana, arial, sans-serif; font-size: 12px; fill: rgb(42, 63, 95); fill-opacity: 1; white-space: pre;"><tspan style="font-style:italic">urban sprawl</tspan></text></g></g><g class="annotation-arrow-g" style="opacity: 1;"><path d="M449.74,24.630000000000003L456.74,45.63" style="stroke-width: 1px; stroke: rgb(42, 63, 95); stroke-opacity: 1; stroke-dasharray: 0px, 0px, 22.1359px, 22.1359px;"/></g></g><g class="annotation" data-index="8" style="opacity: 1;"><g class="annotation-text-g" transform="rotate(0,715.98,56.870000000000005)"><g class="cursor-pointer" transform="translate(657,47)"><rect class="bg" x="0.5" y="0.5" width="117" height="18" style="stroke-width: 1px; stroke: rgb(0, 0, 0); stroke-opacity: 0; fill: rgb(255, 255, 255); fill-opacity: 1;"/><text class="annotation-text" text-anchor="middle" x="58.328125" y="14" style="font-family: 'Open Sans', verdana, arial, sans-serif; font-size: 12px; fill: rgb(42, 63, 95); fill-opacity: 1; white-space: pre;"><tspan style="font-style:italic">improving mobility</tspan></text></g></g><g class="annotation-arrow-g" style="opacity: 1;"><path d="M718.98,65.87L725.98,86.87" style="stroke-width: 1px; stroke: rgb(42, 63, 95); stroke-opacity: 1; stroke-dasharray: 0px, 0px, 22.1359px, 22.1359px;"/></g></g><g class="annotation" data-index="9" style="opacity: 1;"><g class="annotation-text-g" transform="rotate(0,74.08,314.3)"><g class="cursor-pointer" transform="translate(48,305)"><rect class="bg" x="0.5" y="0.5" width="52" height="18" style="stroke-width: 1px; stroke: rgb(0, 0, 0); stroke-opacity: 0; fill: rgb(255, 255, 255); fill-opacity: 1;"/><text class="annotation-text" text-anchor="middle" x="26.078125" y="14" style="font-family: 'Open Sans', verdana, arial, sans-serif; font-size: 12px; fill: rgb(42, 63, 95); fill-opacity: 1; white-space: pre;"><tspan style="font-style:italic">mobility</tspan></text></g></g><g class="annotation-arrow-g" style="opacity: 1;"><path d="M77.08,323.3L84.08,344.3" style="stroke-width: 1px; stroke: rgb(42, 63, 95); stroke-opacity: 1; stroke-dasharray: 0px, 0px, 22.1359px, 22.1359px;"/></g></g><g class="annotation" data-index="10" style="opacity: 1;"><g class="annotation-text-g" transform="rotate(0,186.35,463.41)"><g class="cursor-pointer" transform="translate(144,454)"><a xlink:href="https://mm80843.github.io/T3.5/keyword_surveillance" xlink:show="replace" style="cursor: pointer;"><rect class="bg" x="0.5" y="0.5" width="84" height="18" style="stroke-width: 1px; stroke: rgb(0, 0, 0); stroke-opacity: 0; fill: rgb(255, 255, 255); fill-opacity: 1;"/></a><text class="annotation-text" text-anchor="middle" x="42.65625" y="14" style="font-family: 'Open Sans', verdana, arial, sans-serif; font-size: 12px; fill: rgb(42, 63, 95); fill-opacity: 1; white-space: pre; pointer-events: all;"><tspan style="font-weight:bold"><a xlink:show="replace" target="_self" xlink:href="https://mm80843.github.io/T3.5/keyword_surveillance" style="cursor:pointer">surveillance</a></tspan></text></g></g><g class="annotation-arrow-g" style="opacity: 1;"><path d="M189.35,472.41L196.35,493.41" style="stroke-width: 1px; stroke: rgb(42, 63, 95); stroke-opacity: 1; stroke-dasharray: 0px, 0px, 22.1359px, 22.1359px;"/></g></g><g class="annotation" data-index="11" style="opacity: 1;"><g class="annotation-text-g" transform="rotate(0,112.24,285.25)"><g class="cursor-pointer" transform="translate(83,276)"><rect class="bg" x="0.5" y="0.5" width="58" height="18" style="stroke-width: 1px; stroke: rgb(0, 0, 0); stroke-opacity: 0; fill: rgb(255, 255, 255); fill-opacity: 1;"/><text class="annotation-text" text-anchor="middle" x="28.84375" y="14" style="font-family: 'Open Sans', verdana, arial, sans-serif; font-size: 12px; fill: rgb(42, 63, 95); fill-opacity: 1; white-space: pre;"><tspan style="font-style:italic">transient</tspan></text></g></g><g class="annotation-arrow-g" style="opacity: 1;"><path d="M115.24,294.25L122.24,315.25" style="stroke-width: 1px; stroke: rgb(42, 63, 95); stroke-opacity: 1; stroke-dasharray: 0px, 0px, 22.1359px, 22.1359px;"/></g></g><g class="annotation" data-index="12" style="opacity: 1;"><g class="annotation-text-g" transform="rotate(0,303.49,489.78)"><g class="cursor-pointer" transform="translate(278,480)"><rect class="bg" x="0.5" y="0.5" width="50" height="18" style="stroke-width: 1px; stroke: rgb(0, 0, 0); stroke-opacity: 0; fill: rgb(255, 255, 255); fill-opacity: 1;"/><text class="annotation-text" text-anchor="middle" x="25.234375" y="14" style="font-family: 'Open Sans', verdana, arial, sans-serif; font-size: 12px; fill: rgb(42, 63, 95); fill-opacity: 1; white-space: pre;"><tspan style="font-style:italic">lifestyle</tspan></text></g></g><g class="annotation-arrow-g" style="opacity: 1;"><path d="M306.49,498.78L313.49,519.78" style="stroke-width: 1px; stroke: rgb(42, 63, 95); stroke-opacity: 1; stroke-dasharray: 0px, 0px, 22.136px, 22.136px;"/></g></g><g class="annotation" data-index="13" style="opacity: 1;"><g class="annotation-text-g" transform="rotate(0,660.7,488.17999999999995)"><g class="cursor-pointer" transform="translate(613,479)"><rect class="bg" x="0.5" y="0.5" width="94" height="18" style="stroke-width: 1px; stroke: rgb(0, 0, 0); stroke-opacity: 0; fill: rgb(255, 255, 255); fill-opacity: 1;"/><text class="annotation-text" text-anchor="middle" x="47.265625" y="14" style="font-family: 'Open Sans', verdana, arial, sans-serif; font-size: 12px; fill: rgb(42, 63, 95); fill-opacity: 1; white-space: pre;"><tspan style="font-style:italic">housing design</tspan></text></g></g><g class="annotation-arrow-g" style="opacity: 1;"><path d="M663.7,497.17999999999995L670.7,518.18" style="stroke-width: 1px; stroke: rgb(42, 63, 95); stroke-opacity: 1; stroke-dasharray: 0px, 0px, 22.1359px, 22.1359px;"/></g></g><g class="annotation" data-index="14" style="opacity: 1;"><g class="annotation-text-g" transform="rotate(0,781.12,476.25)"><g class="cursor-pointer" transform="translate(734,467)"><rect class="bg" x="0.5" y="0.5" width="94" height="18" style="stroke-width: 1px; stroke: rgb(0, 0, 0); stroke-opacity: 0; fill: rgb(255, 255, 255); fill-opacity: 1;"/><text class="annotation-text" text-anchor="middle" x="47.375" y="14" style="font-family: 'Open Sans', verdana, arial, sans-serif; font-size: 12px; fill: rgb(42, 63, 95); fill-opacity: 1; white-space: pre;"><tspan style="font-style:italic">urban planning</tspan></text></g></g><g class="annotation-arrow-g" style="opacity: 1;"><path d="M784.12,485.25L791.12,506.25" style="stroke-width: 1px; stroke: rgb(42, 63, 95); stroke-opacity: 1; stroke-dasharray: 0px, 0px, 22.1359px, 22.1359px;"/></g></g><g class="annotation" data-index="15" style="opacity: 1;"><g class="annotation-text-g" transform="rotate(0,627.42,50.040000000000006)"><g class="cursor-pointer" transform="translate(600,41)"><rect class="bg" x="0.5" y="0.5" width="54" height="18" style="stroke-width: 1px; stroke: rgb(0, 0, 0); stroke-opacity: 0; fill: rgb(255, 255, 255); fill-opacity: 1;"/><text class="annotation-text" text-anchor="middle" x="27.265625" y="14" style="font-family: 'Open Sans', verdana, arial, sans-serif; font-size: 12px; fill: rgb(42, 63, 95); fill-opacity: 1; white-space: pre;"><tspan style="font-style:italic">haines a</tspan></text></g></g><g class="annotation-arrow-g" style="opacity: 1;"><path d="M630.42,59.040000000000006L637.42,80.04" style="stroke-width: 1px; stroke: rgb(42, 63, 95); stroke-opacity: 1; stroke-dasharray: 0px, 0px, 22.1359px, 22.1359px;"/></g></g><g class="annotation" data-index="16" style="opacity: 1;"><g class="annotation-text-g" transform="rotate(0,543.1,17.840000000000003)"><g class="cursor-pointer" transform="translate(522,8)"><rect class="bg" x="0.5" y="0.5" width="41" height="18" style="stroke-width: 1px; stroke: rgb(0, 0, 0); stroke-opacity: 0; fill: rgb(255, 255, 255); fill-opacity: 1;"/><text class="annotation-text" text-anchor="middle" x="20.78125" y="14" style="font-family: 'Open Sans', verdana, arial, sans-serif; font-size: 12px; fill: rgb(42, 63, 95); fill-opacity: 1; white-space: pre;"><tspan style="font-style:italic">dora c</tspan></text></g></g><g class="annotation-arrow-g" style="opacity: 1;"><path d="M546.1,26.840000000000003L553.1,47.84" style="stroke-width: 1px; stroke: rgb(42, 63, 95); stroke-opacity: 1; stroke-dasharray: 0px, 0px, 22.1359px, 22.1359px;"/></g></g><g class="annotation" data-index="17" style="opacity: 1;"><g class="annotation-text-g" transform="rotate(0,898.67,396.39)"><g class="cursor-pointer" transform="translate(856,387)"><rect class="bg" x="0.5" y="0.5" width="84" height="18" style="stroke-width: 1px; stroke: rgb(0, 0, 0); stroke-opacity: 0; fill: rgb(255, 255, 255); fill-opacity: 1;"/><text class="annotation-text" text-anchor="middle" x="42.125" y="14" style="font-family: 'Open Sans', verdana, arial, sans-serif; font-size: 12px; fill: rgb(42, 63, 95); fill-opacity: 1; white-space: pre;"><tspan style="font-style:italic">hortas rico m</tspan></text></g></g><g class="annotation-arrow-g" style="opacity: 1;"><path d="M901.67,405.39L908.67,426.39" style="stroke-width: 1px; stroke: rgb(42, 63, 95); stroke-opacity: 1; stroke-dasharray: 0px, 0px, 22.1359px, 22.1359px;"/></g></g><g class="annotation" data-index="18" style="opacity: 1;"><g class="annotation-text-g" transform="rotate(0,363.29,67.85)"><g class="cursor-pointer" transform="translate(337,58)"><rect class="bg" x="0.5" y="0.5" width="51" height="18" style="stroke-width: 1px; stroke: rgb(0, 0, 0); stroke-opacity: 0; fill: rgb(255, 255, 255); fill-opacity: 1;"/><text class="annotation-text" text-anchor="middle" x="25.96875" y="14" style="font-family: 'Open Sans', verdana, arial, sans-serif; font-size: 12px; fill: rgb(42, 63, 95); fill-opacity: 1; white-space: pre;"><tspan style="font-style:italic">solé olé</tspan></text></g></g><g class="annotation-arrow-g" style="opacity: 1;"><path d="M366.29,76.85L373.29,97.85" style="stroke-width: 1px; stroke: rgb(42, 63, 95); stroke-opacity: 1; stroke-dasharray: 0px, 0px, 22.1359px, 22.1359px;"/></g></g><g class="annotation" data-index="19" style="opacity: 1;"><g class="annotation-text-g" transform="rotate(0,885.91,145.51)"><g class="cursor-pointer" transform="translate(854,136)"><rect class="bg" x="0.5" y="0.5" width="62" height="18" style="stroke-width: 1px; stroke: rgb(0, 0, 0); stroke-opacity: 0; fill: rgb(255, 255, 255); fill-opacity: 1;"/><text class="annotation-text" text-anchor="middle" x="31.71875" y="14" style="font-family: 'Open Sans', verdana, arial, sans-serif; font-size: 12px; fill: rgb(42, 63, 95); fill-opacity: 1; white-space: pre;"><tspan style="font-style:italic">zika virus</tspan></text></g></g><g class="annotation-arrow-g" style="opacity: 1;"><path d="M888.91,154.51L895.91,175.51" style="stroke-width: 1px; stroke: rgb(42, 63, 95); stroke-opacity: 1; stroke-dasharray: 0px, 0px, 22.1359px, 22.1359px;"/></g></g><g class="annotation" data-index="20" style="opacity: 1;"><g class="annotation-text-g" transform="rotate(0,769.72,136.31)"><g class="cursor-pointer" transform="translate(755,127)"><rect class="bg" x="0.5" y="0.5" width="28" height="18" style="stroke-width: 1px; stroke: rgb(0, 0, 0); stroke-opacity: 0; fill: rgb(255, 255, 255); fill-opacity: 1;"/><text class="annotation-text" text-anchor="middle" x="14.9375" y="14" style="font-family: 'Open Sans', verdana, arial, sans-serif; font-size: 12px; fill: rgb(42, 63, 95); fill-opacity: 1; white-space: pre;"><tspan style="font-style:italic">zika</tspan></text></g></g><g class="annotation-arrow-g" style="opacity: 1;"><path d="M772.72,145.31L779.72,166.31" style="stroke-width: 1px; stroke: rgb(42, 63, 95); stroke-opacity: 1; stroke-dasharray: 0px, 0px, 22.1359px, 22.1359px;"/></g></g><g class="annotation" data-index="21" style="opacity: 1;"><g class="annotation-text-g" transform="rotate(0,113.83,410.13)"><g class="cursor-pointer" transform="translate(79,401)"><rect class="bg" x="0.5" y="0.5" width="68" height="18" style="stroke-width: 1px; stroke: rgb(0, 0, 0); stroke-opacity: 0; fill: rgb(255, 255, 255); fill-opacity: 1;"/><text class="annotation-text" text-anchor="middle" x="34.203125" y="14" style="font-family: 'Open Sans', verdana, arial, sans-serif; font-size: 12px; fill: rgb(42, 63, 95); fill-opacity: 1; white-space: pre;"><tspan style="font-style:italic">health-city</tspan></text></g></g><g class="annotation-arrow-g" style="opacity: 1;"><path d="M116.83,419.13L123.83,440.13" style="stroke-width: 1px; stroke: rgb(42, 63, 95); stroke-opacity: 1; stroke-dasharray: 0px, 0px, 22.1359px, 22.1359px;"/></g></g><g class="annotation" data-index="22" style="opacity: 1;"><g class="annotation-text-g" transform="rotate(0,552.4,524.38)"><g class="cursor-pointer" transform="translate(521,515)"><rect class="bg" x="0.5" y="0.5" width="61" height="18" style="stroke-width: 1px; stroke: rgb(0, 0, 0); stroke-opacity: 0; fill: rgb(255, 255, 255); fill-opacity: 1;"/><text class="annotation-text" text-anchor="middle" x="30.890625" y="14" style="font-family: 'Open Sans', verdana, arial, sans-serif; font-size: 12px; fill: rgb(42, 63, 95); fill-opacity: 1; white-space: pre;"><tspan style="font-style:italic">Cluster_1</tspan></text></g></g><g class="annotation-arrow-g" style="opacity: 1;"><path d="M555.4,533.38L562.4,554.38" style="stroke-width: 1px; stroke: rgb(42, 63, 95); stroke-opacity: 1; stroke-dasharray: 0px, 0px, 22.1359px, 22.1359px;"/></g></g></g></svg>