<svg class="main-svg" xmlns="http://www.w3.org/2000/svg" xmlns:xlink="http://www.w3.org/1999/xlink" width="1000" height="600" style="" viewBox="0 0 1000 600"><rect x="0" y="0" width="1000" height="600" style="fill: rgb(255, 255, 255); fill-opacity: 1;"/><defs id="defs-019939"><g class="clips"><clipPath id="clip019939xyplot" class="plotclip"><rect width="1000" height="600"/></clipPath><clipPath class="axesclip" id="clip019939x"><rect x="0" y="0" width="1000" height="600"/></clipPath><clipPath class="axesclip" id="clip019939y"><rect x="0" y="0" width="1000" height="600"/></clipPath><clipPath class="axesclip" id="clip019939xy"><rect x="0" y="0" width="1000" height="600"/></clipPath></g><g class="gradients"/><g class="patterns"/></defs><g class="bglayer"><rect class="bg" x="0" y="0" width="1000" height="600" style="fill: rgb(229, 236, 246); fill-opacity: 1; stroke-width: 0;"/></g><g class="layer-below"><g class="imagelayer"/><g class="shapelayer"/></g><g class="cartesianlayer"><g class="subplot xy"><g class="layer-subplot"><g class="shapelayer"/><g class="imagelayer"/></g><g class="gridlayer"><g class="x"/><g class="y"/></g><g class="zerolinelayer"/><path class="xlines-below"/><path class="ylines-below"/><g class="overlines-below"/><g class="xaxislayer-below"/><g class="yaxislayer-below"/><g class="overaxes-below"/><g class="plot" transform="" clip-path="url(#clip019939xyplot)"><g class="scatterlayer mlayer"><g class="trace scatter trace886244" style="stroke-miterlimit: 2; opacity: 1;"><g class="fills"/><g class="errorbars"/><g class="lines"/><g class="points"><path class="point" transform="translate(881.64,363.39)" d="M0,0A0,0 0 1,1 0,-0A0,0 0 0,1 0,0Z" style="opacity: 0.7; stroke-width: 1px; fill: rgb(99, 110, 250); fill-opacity: 1; stroke: rgb(255, 255, 255); stroke-opacity: 1;"/><path class="point" transform="translate(90.38,292.31)" d="M0,0A0,0 0 1,1 0,-0A0,0 0 0,1 0,0Z" style="opacity: 0.7; stroke-width: 1px; fill: rgb(99, 110, 250); fill-opacity: 1; stroke: rgb(255, 255, 255); stroke-opacity: 1;"/><path class="point" transform="translate(943.75,236.11)" d="M0,0A0,0 0 1,1 0,-0A0,0 0 0,1 0,0Z" style="opacity: 0.7; stroke-width: 1px; fill: rgb(99, 110, 250); fill-opacity: 1; stroke: rgb(255, 255, 255); stroke-opacity: 1;"/><path class="point" transform="translate(837.98,425.93)" d="M0,0A0,0 0 1,1 0,-0A0,0 0 0,1 0,0Z" style="opacity: 0.7; stroke-width: 1px; fill: rgb(99, 110, 250); fill-opacity: 1; stroke: rgb(255, 255, 255); stroke-opacity: 1;"/><path class="point" transform="translate(526.51,39.5)" d="M0,0A0,0 0 1,1 0,-0A0,0 0 0,1 0,0Z" style="opacity: 0.7; stroke-width: 1px; fill: rgb(99, 110, 250); fill-opacity: 1; stroke: rgb(255, 255, 255); stroke-opacity: 1;"/><path class="point" transform="translate(114.2,139.72)" d="M0,0A0,0 0 1,1 0,-0A0,0 0 0,1 0,0Z" style="opacity: 0.7; stroke-width: 1px; fill: rgb(99, 110, 250); fill-opacity: 1; stroke: rgb(255, 255, 255); stroke-opacity: 1;"/><path class="point" transform="translate(456.02,563.75)" d="M0,0A0,0 0 1,1 0,-0A0,0 0 0,1 0,0Z" style="opacity: 0.7; stroke-width: 1px; fill: rgb(99, 110, 250); fill-opacity: 1; stroke: rgb(255, 255, 255); stroke-opacity: 1;"/><path class="point" transform="translate(171.53,465.14)" d="M0,0A0,0 0 1,1 0,-0A0,0 0 0,1 0,0Z" style="opacity: 0.7; stroke-width: 1px; fill: rgb(99, 110, 250); fill-opacity: 1; stroke: rgb(255, 255, 255); stroke-opacity: 1;"/><path class="point" transform="translate(665.7,499.74)" d="M0,0A0,0 0 1,1 0,-0A0,0 0 0,1 0,0Z" style="opacity: 0.7; stroke-width: 1px; fill: rgb(99, 110, 250); fill-opacity: 1; stroke: rgb(255, 255, 255); stroke-opacity: 1;"/><path class="point" transform="translate(779.28,495.43)" d="M49.5,0A49.5,49.5 0 1,1 0,-49.5A49.5,49.5 0 0,1 49.5,0Z" style="opacity: 0.7; stroke-width: 1px; fill: rgb(99, 110, 250); fill-opacity: 1; stroke: rgb(255, 255, 255); stroke-opacity: 1;"/><path class="point" transform="translate(300.16,64.79)" d="M0,0A0,0 0 1,1 0,-0A0,0 0 0,1 0,0Z" style="opacity: 0.7; stroke-width: 1px; fill: rgb(99, 110, 250); fill-opacity: 1; stroke: rgb(255, 255, 255); stroke-opacity: 1;"/><path class="point" transform="translate(496.64,467.35)" d="M0,0A0,0 0 1,1 0,-0A0,0 0 0,1 0,0Z" style="opacity: 0.7; stroke-width: 1px; fill: rgb(99, 110, 250); fill-opacity: 1; stroke: rgb(255, 255, 255); stroke-opacity: 1;"/><path class="point" transform="translate(172.1,79.61)" d="M0,0A0,0 0 1,1 0,-0A0,0 0 0,1 0,0Z" style="opacity: 0.7; stroke-width: 1px; fill: rgb(99, 110, 250); fill-opacity: 1; stroke: rgb(255, 255, 255); stroke-opacity: 1;"/><path class="point" transform="translate(98.24,236.61)" d="M0,0A0,0 0 1,1 0,-0A0,0 0 0,1 0,0Z" style="opacity: 0.7; stroke-width: 1px; fill: rgb(99, 110, 250); fill-opacity: 1; stroke: rgb(255, 255, 255); stroke-opacity: 1;"/><path class="point" transform="translate(224.84,510.64)" d="M0,0A0,0 0 1,1 0,-0A0,0 0 0,1 0,0Z" style="opacity: 0.7; stroke-width: 1px; fill: rgb(99, 110, 250); fill-opacity: 1; stroke: rgb(255, 255, 255); stroke-opacity: 1;"/><path class="point" transform="translate(318.44,540.05)" d="M0,0A0,0 0 1,1 0,-0A0,0 0 0,1 0,0Z" style="opacity: 0.7; stroke-width: 1px; fill: rgb(99, 110, 250); fill-opacity: 1; stroke: rgb(255, 255, 255); stroke-opacity: 1;"/><path class="point" transform="translate(56.25,354.14)" d="M0,0A0,0 0 1,1 0,-0A0,0 0 0,1 0,0Z" style="opacity: 0.7; stroke-width: 1px; fill: rgb(99, 110, 250); fill-opacity: 1; stroke: rgb(255, 255, 255); stroke-opacity: 1;"/><path class="point" transform="translate(107.66,423.53)" d="M0,0A0,0 0 1,1 0,-0A0,0 0 0,1 0,0Z" style="opacity: 0.7; stroke-width: 1px; fill: rgb(99, 110, 250); fill-opacity: 1; stroke: rgb(255, 255, 255); stroke-opacity: 1;"/><path class="point" transform="translate(799.4,314.81)" d="M0,0A0,0 0 1,1 0,-0A0,0 0 0,1 0,0Z" style="opacity: 0.7; stroke-width: 1px; fill: rgb(99, 110, 250); fill-opacity: 1; stroke: rgb(255, 255, 255); stroke-opacity: 1;"/><path class="point" transform="translate(869.75,155.2)" d="M0,0A0,0 0 1,1 0,-0A0,0 0 0,1 0,0Z" style="opacity: 0.7; stroke-width: 1px; fill: rgb(99, 110, 250); fill-opacity: 1; stroke: rgb(255, 255, 255); stroke-opacity: 1;"/><path class="point" transform="translate(686.25,56.57)" d="M0,0A0,0 0 1,1 0,-0A0,0 0 0,1 0,0Z" style="opacity: 0.7; stroke-width: 1px; fill: rgb(99, 110, 250); fill-opacity: 1; stroke: rgb(255, 255, 255); stroke-opacity: 1;"/><path class="point" transform="translate(799.68,118.15)" d="M0,0A0,0 0 1,1 0,-0A0,0 0 0,1 0,0Z" style="opacity: 0.7; stroke-width: 1px; fill: rgb(99, 110, 250); fill-opacity: 1; stroke: rgb(255, 255, 255); stroke-opacity: 1;"/><path class="point" transform="translate(420.89,45.26)" d="M0,0A0,0 0 1,1 0,-0A0,0 0 0,1 0,0Z" style="opacity: 0.7; stroke-width: 1px; fill: rgb(99, 110, 250); fill-opacity: 1; stroke: rgb(255, 255, 255); stroke-opacity: 1;"/></g><g class="text"/></g><g class="trace scatter trace75320c" style="stroke-miterlimit: 2; opacity: 1;"><g class="fills"/><g class="errorbars"/><g class="lines"><path class="js-line" d="M881.64,363.39L90.38,292.31" style="vector-effect: non-scaling-stroke; fill: none; stroke: rgb(120, 120, 0); stroke-opacity: 0.2; stroke-width: 2px; opacity: 1; stroke-dasharray: 9px, 9px;"/></g><g class="points"><path class="point" transform="translate(881.64,363.39)" d="M3,0A3,3 0 1,1 0,-3A3,3 0 0,1 3,0Z" style="opacity: 1; stroke-width: 0px; fill: rgb(120, 120, 0); fill-opacity: 0.2;"/><path class="point" transform="translate(90.38,292.31)" d="M3,0A3,3 0 1,1 0,-3A3,3 0 0,1 3,0Z" style="opacity: 1; stroke-width: 0px; fill: rgb(120, 120, 0); fill-opacity: 0.2;"/></g><g class="text"/></g><g class="trace scatter trace86980f" style="stroke-miterlimit: 2; opacity: 1;"><g class="fills"/><g class="errorbars"/><g class="lines"><path class="js-line" d="M90.38,292.31L881.64,363.39" style="vector-effect: non-scaling-stroke; fill: none; stroke: rgb(120, 120, 0); stroke-opacity: 0.2; stroke-width: 2px; opacity: 1; stroke-dasharray: 9px, 9px;"/></g><g class="points"><path class="point" transform="translate(90.38,292.31)" d="M3,0A3,3 0 1,1 0,-3A3,3 0 0,1 3,0Z" style="opacity: 1; stroke-width: 0px; fill: rgb(120, 120, 0); fill-opacity: 0.2;"/><path class="point" transform="translate(881.64,363.39)" d="M3,0A3,3 0 1,1 0,-3A3,3 0 0,1 3,0Z" style="opacity: 1; stroke-width: 0px; fill: rgb(120, 120, 0); fill-opacity: 0.2;"/></g><g class="text"/></g><g class="trace scatter trace1f7a0e" style="stroke-miterlimit: 2; opacity: 1;"><g class="fills"/><g class="errorbars"/><g class="lines"><path class="js-line" d="M943.75,236.11L837.98,425.93" style="vector-effect: non-scaling-stroke; fill: none; stroke: rgb(120, 120, 0); stroke-opacity: 0.2; stroke-width: 2px; opacity: 1; stroke-dasharray: 9px, 9px;"/></g><g class="points"><path class="point" transform="translate(943.75,236.11)" d="M3,0A3,3 0 1,1 0,-3A3,3 0 0,1 3,0Z" style="opacity: 1; stroke-width: 0px; fill: rgb(120, 120, 0); fill-opacity: 0.2;"/><path class="point" transform="translate(837.98,425.93)" d="M3,0A3,3 0 1,1 0,-3A3,3 0 0,1 3,0Z" style="opacity: 1; stroke-width: 0px; fill: rgb(120, 120, 0); fill-opacity: 0.2;"/></g><g class="text"/></g><g class="trace scatter trace39908c" style="stroke-miterlimit: 2; opacity: 1;"><g class="fills"/><g class="errorbars"/><g class="lines"><path class="js-line" d="M526.51,39.5L114.2,139.72" style="vector-effect: non-scaling-stroke; fill: none; stroke: rgb(120, 120, 0); stroke-opacity: 0.2; stroke-width: 2px; opacity: 1; stroke-dasharray: 9px, 9px;"/></g><g class="points"><path class="point" transform="translate(526.51,39.5)" d="M3,0A3,3 0 1,1 0,-3A3,3 0 0,1 3,0Z" style="opacity: 1; stroke-width: 0px; fill: rgb(120, 120, 0); fill-opacity: 0.2;"/><path class="point" transform="translate(114.2,139.72)" d="M3,0A3,3 0 1,1 0,-3A3,3 0 0,1 3,0Z" style="opacity: 1; stroke-width: 0px; fill: rgb(120, 120, 0); fill-opacity: 0.2;"/></g><g class="text"/></g><g class="trace scatter trace951f69" style="stroke-miterlimit: 2; opacity: 1;"><g class="fills"/><g class="errorbars"/><g class="lines"><path class="js-line" d="M114.2,139.72L526.51,39.5" style="vector-effect: non-scaling-stroke; fill: none; stroke: rgb(120, 120, 0); stroke-opacity: 0.2; stroke-width: 2px; opacity: 1; stroke-dasharray: 9px, 9px;"/></g><g class="points"><path class="point" transform="translate(114.2,139.72)" d="M3,0A3,3 0 1,1 0,-3A3,3 0 0,1 3,0Z" style="opacity: 1; stroke-width: 0px; fill: rgb(120, 120, 0); fill-opacity: 0.2;"/><path class="point" transform="translate(526.51,39.5)" d="M3,0A3,3 0 1,1 0,-3A3,3 0 0,1 3,0Z" style="opacity: 1; stroke-width: 0px; fill: rgb(120, 120, 0); fill-opacity: 0.2;"/></g><g class="text"/></g><g class="trace scatter tracea8566a" style="stroke-miterlimit: 2; opacity: 1;"><g class="fills"/><g class="errorbars"/><g class="lines"><path class="js-line" d="M456.02,563.75L171.53,465.14" style="vector-effect: non-scaling-stroke; fill: none; stroke: rgb(120, 120, 0); stroke-opacity: 0.2; stroke-width: 2px; opacity: 1; stroke-dasharray: 9px, 9px;"/></g><g class="points"><path class="point" transform="translate(456.02,563.75)" d="M3,0A3,3 0 1,1 0,-3A3,3 0 0,1 3,0Z" style="opacity: 1; stroke-width: 0px; fill: rgb(120, 120, 0); fill-opacity: 0.2;"/><path class="point" transform="translate(171.53,465.14)" d="M3,0A3,3 0 1,1 0,-3A3,3 0 0,1 3,0Z" style="opacity: 1; stroke-width: 0px; fill: rgb(120, 120, 0); fill-opacity: 0.2;"/></g><g class="text"/></g><g class="trace scatter trace02d3d0" style="stroke-miterlimit: 2; opacity: 1;"><g class="fills"/><g class="errorbars"/><g class="lines"><path class="js-line" d="M171.53,465.14L456.02,563.75" style="vector-effect: non-scaling-stroke; fill: none; stroke: rgb(120, 120, 0); stroke-opacity: 0.2; stroke-width: 2px; opacity: 1; stroke-dasharray: 9px, 9px;"/></g><g class="points"><path class="point" transform="translate(171.53,465.14)" d="M3,0A3,3 0 1,1 0,-3A3,3 0 0,1 3,0Z" style="opacity: 1; stroke-width: 0px; fill: rgb(120, 120, 0); fill-opacity: 0.2;"/><path class="point" transform="translate(456.02,563.75)" d="M3,0A3,3 0 1,1 0,-3A3,3 0 0,1 3,0Z" style="opacity: 1; stroke-width: 0px; fill: rgb(120, 120, 0); fill-opacity: 0.2;"/></g><g class="text"/></g><g class="trace scatter tracef33be6" style="stroke-miterlimit: 2; opacity: 1;"><g class="fills"/><g class="errorbars"/><g class="lines"><path class="js-line" d="M665.7,499.74L779.28,495.43" style="vector-effect: non-scaling-stroke; fill: none; stroke: rgb(120, 120, 0); stroke-opacity: 0.2; stroke-width: 2px; opacity: 1; stroke-dasharray: 9px, 9px;"/></g><g class="points"><path class="point" transform="translate(665.7,499.74)" d="M3,0A3,3 0 1,1 0,-3A3,3 0 0,1 3,0Z" style="opacity: 1; stroke-width: 0px; fill: rgb(120, 120, 0); fill-opacity: 0.2;"/><path class="point" transform="translate(779.28,495.43)" d="M3,0A3,3 0 1,1 0,-3A3,3 0 0,1 3,0Z" style="opacity: 1; stroke-width: 0px; fill: rgb(120, 120, 0); fill-opacity: 0.2;"/></g><g class="text"/></g><g class="trace scatter trace87aa9e" style="stroke-miterlimit: 2; opacity: 1;"><g class="fills"/><g class="errorbars"/><g class="lines"><path class="js-line" d="M779.28,495.43L665.7,499.74" style="vector-effect: non-scaling-stroke; fill: none; stroke: rgb(120, 120, 0); stroke-opacity: 0.2; stroke-width: 2px; opacity: 1; stroke-dasharray: 9px, 9px;"/></g><g class="points"><path class="point" transform="translate(779.28,495.43)" d="M3,0A3,3 0 1,1 0,-3A3,3 0 0,1 3,0Z" style="opacity: 1; stroke-width: 0px; fill: rgb(120, 120, 0); fill-opacity: 0.2;"/><path class="point" transform="translate(665.7,499.74)" d="M3,0A3,3 0 1,1 0,-3A3,3 0 0,1 3,0Z" style="opacity: 1; stroke-width: 0px; fill: rgb(120, 120, 0); fill-opacity: 0.2;"/></g><g class="text"/></g><g class="trace scatter traceca1927" style="stroke-miterlimit: 2; opacity: 1;"><g class="fills"/><g class="errorbars"/><g class="lines"/><g class="points"><path class="point" transform="translate(300.16,64.79)" d="M3,0A3,3 0 1,1 0,-3A3,3 0 0,1 3,0Z" style="opacity: 1; stroke-width: 0px; fill: rgb(120, 120, 0); fill-opacity: 0.2;"/><path class="point" transform="translate(300.16,64.79)" d="M3,0A3,3 0 1,1 0,-3A3,3 0 0,1 3,0Z" style="opacity: 1; stroke-width: 0px; fill: rgb(120, 120, 0); fill-opacity: 0.2;"/></g><g class="text"/></g><g class="trace scatter trace9f1cdd" style="stroke-miterlimit: 2; opacity: 1;"><g class="fills"/><g class="errorbars"/><g class="lines"><path class="js-line" d="M496.64,467.35L172.1,79.61" style="vector-effect: non-scaling-stroke; fill: none; stroke: rgb(120, 120, 0); stroke-opacity: 0.2; stroke-width: 2px; opacity: 1; stroke-dasharray: 9px, 9px;"/></g><g class="points"><path class="point" transform="translate(496.64,467.35)" d="M3,0A3,3 0 1,1 0,-3A3,3 0 0,1 3,0Z" style="opacity: 1; stroke-width: 0px; fill: rgb(120, 120, 0); fill-opacity: 0.2;"/><path class="point" transform="translate(172.1,79.61)" d="M3,0A3,3 0 1,1 0,-3A3,3 0 0,1 3,0Z" style="opacity: 1; stroke-width: 0px; fill: rgb(120, 120, 0); fill-opacity: 0.2;"/></g><g class="text"/></g><g class="trace scatter trace1527c8" style="stroke-miterlimit: 2; opacity: 1;"><g class="fills"/><g class="errorbars"/><g class="lines"><path class="js-line" d="M98.24,236.61L224.84,510.64" style="vector-effect: non-scaling-stroke; fill: none; stroke: rgb(120, 120, 0); stroke-opacity: 0.2; stroke-width: 2px; opacity: 1; stroke-dasharray: 9px, 9px;"/></g><g class="points"><path class="point" transform="translate(98.24,236.61)" d="M3,0A3,3 0 1,1 0,-3A3,3 0 0,1 3,0Z" style="opacity: 1; stroke-width: 0px; fill: rgb(120, 120, 0); fill-opacity: 0.2;"/><path class="point" transform="translate(224.84,510.64)" d="M3,0A3,3 0 1,1 0,-3A3,3 0 0,1 3,0Z" style="opacity: 1; stroke-width: 0px; fill: rgb(120, 120, 0); fill-opacity: 0.2;"/></g><g class="text"/></g><g class="trace scatter traceb22859" style="stroke-miterlimit: 2; opacity: 1;"><g class="fills"/><g class="errorbars"/><g class="lines"><path class="js-line" d="M318.44,540.05L56.25,354.14" style="vector-effect: non-scaling-stroke; fill: none; stroke: rgb(120, 120, 0); stroke-opacity: 0.2; stroke-width: 2px; opacity: 1; stroke-dasharray: 9px, 9px;"/></g><g class="points"><path class="point" transform="translate(318.44,540.05)" d="M3,0A3,3 0 1,1 0,-3A3,3 0 0,1 3,0Z" style="opacity: 1; stroke-width: 0px; fill: rgb(120, 120, 0); fill-opacity: 0.2;"/><path class="point" transform="translate(56.25,354.14)" d="M3,0A3,3 0 1,1 0,-3A3,3 0 0,1 3,0Z" style="opacity: 1; stroke-width: 0px; fill: rgb(120, 120, 0); fill-opacity: 0.2;"/></g><g class="text"/></g><g class="trace scatter trace2ded8f" style="stroke-miterlimit: 2; opacity: 1;"><g class="fills"/><g class="errorbars"/><g class="lines"><path class="js-line" d="M56.25,354.14L318.44,540.05" style="vector-effect: non-scaling-stroke; fill: none; stroke: rgb(120, 120, 0); stroke-opacity: 0.2; stroke-width: 2px; opacity: 1; stroke-dasharray: 9px, 9px;"/></g><g class="points"><path class="point" transform="translate(56.25,354.14)" d="M3,0A3,3 0 1,1 0,-3A3,3 0 0,1 3,0Z" style="opacity: 1; stroke-width: 0px; fill: rgb(120, 120, 0); fill-opacity: 0.2;"/><path class="point" transform="translate(318.44,540.05)" d="M3,0A3,3 0 1,1 0,-3A3,3 0 0,1 3,0Z" style="opacity: 1; stroke-width: 0px; fill: rgb(120, 120, 0); fill-opacity: 0.2;"/></g><g class="text"/></g><g class="trace scatter tracea0ce52" style="stroke-miterlimit: 2; opacity: 1;"><g class="fills"/><g class="errorbars"/><g class="lines"><path class="js-line" d="M107.66,423.53L799.4,314.81" style="vector-effect: non-scaling-stroke; fill: none; stroke: rgb(120, 120, 0); stroke-opacity: 0.2; stroke-width: 2px; opacity: 1; stroke-dasharray: 9px, 9px;"/></g><g class="points"><path class="point" transform="translate(107.66,423.53)" d="M3,0A3,3 0 1,1 0,-3A3,3 0 0,1 3,0Z" style="opacity: 1; stroke-width: 0px; fill: rgb(120, 120, 0); fill-opacity: 0.2;"/><path class="point" transform="translate(799.4,314.81)" d="M3,0A3,3 0 1,1 0,-3A3,3 0 0,1 3,0Z" style="opacity: 1; stroke-width: 0px; fill: rgb(120, 120, 0); fill-opacity: 0.2;"/></g><g class="text"/></g><g class="trace scatter trace4548b1" style="stroke-miterlimit: 2; opacity: 1;"><g class="fills"/><g class="errorbars"/><g class="lines"><path class="js-line" d="M799.4,314.81L107.66,423.53" style="vector-effect: non-scaling-stroke; fill: none; stroke: rgb(120, 120, 0); stroke-opacity: 0.2; stroke-width: 2px; opacity: 1; stroke-dasharray: 9px, 9px;"/></g><g class="points"><path class="point" transform="translate(799.4,314.81)" d="M3,0A3,3 0 1,1 0,-3A3,3 0 0,1 3,0Z" style="opacity: 1; stroke-width: 0px; fill: rgb(120, 120, 0); fill-opacity: 0.2;"/><path class="point" transform="translate(107.66,423.53)" d="M3,0A3,3 0 1,1 0,-3A3,3 0 0,1 3,0Z" style="opacity: 1; stroke-width: 0px; fill: rgb(120, 120, 0); fill-opacity: 0.2;"/></g><g class="text"/></g><g class="trace scatter trace912b4b" style="stroke-miterlimit: 2; opacity: 1;"><g class="fills"/><g class="errorbars"/><g class="lines"/><g class="points"><path class="point" transform="translate(869.75,155.2)" d="M3,0A3,3 0 1,1 0,-3A3,3 0 0,1 3,0Z" style="opacity: 1; stroke-width: 0px; fill: rgb(120, 120, 0); fill-opacity: 0.2;"/><path class="point" transform="translate(869.75,155.2)" d="M3,0A3,3 0 1,1 0,-3A3,3 0 0,1 3,0Z" style="opacity: 1; stroke-width: 0px; fill: rgb(120, 120, 0); fill-opacity: 0.2;"/></g><g class="text"/></g><g class="trace scatter trace92a8ee" style="stroke-miterlimit: 2; opacity: 1;"><g class="fills"/><g class="errorbars"/><g class="lines"><path class="js-line" d="M869.75,155.2L686.25,56.57" style="vector-effect: non-scaling-stroke; fill: none; stroke: rgb(120, 120, 0); stroke-opacity: 0.2; stroke-width: 2px; opacity: 1; stroke-dasharray: 9px, 9px;"/></g><g class="points"><path class="point" transform="translate(869.75,155.2)" d="M3,0A3,3 0 1,1 0,-3A3,3 0 0,1 3,0Z" style="opacity: 1; stroke-width: 0px; fill: rgb(120, 120, 0); fill-opacity: 0.2;"/><path class="point" transform="translate(686.25,56.57)" d="M3,0A3,3 0 1,1 0,-3A3,3 0 0,1 3,0Z" style="opacity: 1; stroke-width: 0px; fill: rgb(120, 120, 0); fill-opacity: 0.2;"/></g><g class="text"/></g><g class="trace scatter trace26b15e" style="stroke-miterlimit: 2; opacity: 1;"><g class="fills"/><g class="errorbars"/><g class="lines"><path class="js-line" d="M686.25,56.57L869.75,155.2" style="vector-effect: non-scaling-stroke; fill: none; stroke: rgb(120, 120, 0); stroke-opacity: 0.2; stroke-width: 2px; opacity: 1; stroke-dasharray: 9px, 9px;"/></g><g class="points"><path class="point" transform="translate(686.25,56.57)" d="M3,0A3,3 0 1,1 0,-3A3,3 0 0,1 3,0Z" style="opacity: 1; stroke-width: 0px; fill: rgb(120, 120, 0); fill-opacity: 0.2;"/><path class="point" transform="translate(869.75,155.2)" d="M3,0A3,3 0 1,1 0,-3A3,3 0 0,1 3,0Z" style="opacity: 1; stroke-width: 0px; fill: rgb(120, 120, 0); fill-opacity: 0.2;"/></g><g class="text"/></g><g class="trace scatter trace6a72cb" style="stroke-miterlimit: 2; opacity: 1;"><g class="fills"/><g class="errorbars"/><g class="lines"><path class="js-line" d="M799.68,118.15L420.89,45.26" style="vector-effect: non-scaling-stroke; fill: none; stroke: rgb(120, 120, 0); stroke-opacity: 0.2; stroke-width: 2px; opacity: 1; stroke-dasharray: 9px, 9px;"/></g><g class="points"><path class="point" transform="translate(799.68,118.15)" d="M3,0A3,3 0 1,1 0,-3A3,3 0 0,1 3,0Z" style="opacity: 1; stroke-width: 0px; fill: rgb(120, 120, 0); fill-opacity: 0.2;"/><path class="point" transform="translate(420.89,45.26)" d="M3,0A3,3 0 1,1 0,-3A3,3 0 0,1 3,0Z" style="opacity: 1; stroke-width: 0px; fill: rgb(120, 120, 0); fill-opacity: 0.2;"/></g><g class="text"/></g><g class="trace scatter tracee08549" style="stroke-miterlimit: 2; opacity: 1;"><g class="fills"/><g class="errorbars"/><g class="lines"><path class="js-line" d="M799.68,118.15L779.28,495.43" style="vector-effect: non-scaling-stroke; fill: none; stroke: rgb(120, 120, 0); stroke-opacity: 0.2; stroke-width: 2px; opacity: 1; stroke-dasharray: 9px, 9px;"/></g><g class="points"><path class="point" transform="translate(799.68,118.15)" d="M3,0A3,3 0 1,1 0,-3A3,3 0 0,1 3,0Z" style="opacity: 1; stroke-width: 0px; fill: rgb(120, 120, 0); fill-opacity: 0.2;"/><path class="point" transform="translate(779.28,495.43)" d="M3,0A3,3 0 1,1 0,-3A3,3 0 0,1 3,0Z" style="opacity: 1; stroke-width: 0px; fill: rgb(120, 120, 0); fill-opacity: 0.2;"/></g><g class="text"/></g><g class="trace scatter trace184584" style="stroke-miterlimit: 2; opacity: 1;"><g class="fills"/><g class="errorbars"/><g class="lines"/><g class="points"><path class="point" transform="translate(881.64,363.39)" d="M5,0A5,5 0 1,1 0,-5A5,5 0 0,1 5,0Z" style="opacity: 1; stroke-width: 0px; fill: rgb(0, 128, 0); fill-opacity: 1;"/><path class="point" transform="translate(90.38,292.31)" d="M5,0A5,5 0 1,1 0,-5A5,5 0 0,1 5,0Z" style="opacity: 1; stroke-width: 0px; fill: rgb(0, 128, 0); fill-opacity: 1;"/><path class="point" transform="translate(943.75,236.11)" d="M5,0A5,5 0 1,1 0,-5A5,5 0 0,1 5,0Z" style="opacity: 1; stroke-width: 0px; fill: rgb(0, 128, 0); fill-opacity: 1;"/><path class="point" transform="translate(837.98,425.93)" d="M5,0A5,5 0 1,1 0,-5A5,5 0 0,1 5,0Z" style="opacity: 1; stroke-width: 0px; fill: rgb(0, 128, 0); fill-opacity: 1;"/><path class="point" transform="translate(526.51,39.5)" d="M5,0A5,5 0 1,1 0,-5A5,5 0 0,1 5,0Z" style="opacity: 1; stroke-width: 0px; fill: rgb(0, 128, 0); fill-opacity: 1;"/><path class="point" transform="translate(114.2,139.72)" d="M5,0A5,5 0 1,1 0,-5A5,5 0 0,1 5,0Z" style="opacity: 1; stroke-width: 0px; fill: rgb(0, 128, 0); fill-opacity: 1;"/><path class="point" transform="translate(456.02,563.75)" d="M5,0A5,5 0 1,1 0,-5A5,5 0 0,1 5,0Z" style="opacity: 1; stroke-width: 0px; fill: rgb(0, 128, 0); fill-opacity: 1;"/><path class="point" transform="translate(171.53,465.14)" d="M5,0A5,5 0 1,1 0,-5A5,5 0 0,1 5,0Z" style="opacity: 1; stroke-width: 0px; fill: rgb(0, 128, 0); fill-opacity: 1;"/><path class="point" transform="translate(665.7,499.74)" d="M5,0A5,5 0 1,1 0,-5A5,5 0 0,1 5,0Z" style="opacity: 1; stroke-width: 0px; fill: rgb(0, 128, 0); fill-opacity: 1;"/><path class="point" transform="translate(300.16,64.79)" d="M5,0A5,5 0 1,1 0,-5A5,5 0 0,1 5,0Z" style="opacity: 1; stroke-width: 0px; fill: rgb(0, 128, 0); fill-opacity: 1;"/><path class="point" transform="translate(496.64,467.35)" d="M5,0A5,5 0 1,1 0,-5A5,5 0 0,1 5,0Z" style="opacity: 1; stroke-width: 0px; fill: rgb(0, 128, 0); fill-opacity: 1;"/><path class="point" transform="translate(172.1,79.61)" d="M5,0A5,5 0 1,1 0,-5A5,5 0 0,1 5,0Z" style="opacity: 1; stroke-width: 0px; fill: rgb(0, 128, 0); fill-opacity: 1;"/><path class="point" transform="translate(98.24,236.61)" d="M5,0A5,5 0 1,1 0,-5A5,5 0 0,1 5,0Z" style="opacity: 1; stroke-width: 0px; fill: rgb(0, 128, 0); fill-opacity: 1;"/><path class="point" transform="translate(224.84,510.64)" d="M5,0A5,5 0 1,1 0,-5A5,5 0 0,1 5,0Z" style="opacity: 1; stroke-width: 0px; fill: rgb(0, 128, 0); fill-opacity: 1;"/><path class="point" transform="translate(318.44,540.05)" d="M5,0A5,5 0 1,1 0,-5A5,5 0 0,1 5,0Z" style="opacity: 1; stroke-width: 0px; fill: rgb(0, 128, 0); fill-opacity: 1;"/><path class="point" transform="translate(56.25,354.14)" d="M5,0A5,5 0 1,1 0,-5A5,5 0 0,1 5,0Z" style="opacity: 1; stroke-width: 0px; fill: rgb(0, 128, 0); fill-opacity: 1;"/><path class="point" transform="translate(107.66,423.53)" d="M5,0A5,5 0 1,1 0,-5A5,5 0 0,1 5,0Z" style="opacity: 1; stroke-width: 0px; fill: rgb(0, 128, 0); fill-opacity: 1;"/><path class="point" transform="translate(799.4,314.81)" d="M5,0A5,5 0 1,1 0,-5A5,5 0 0,1 5,0Z" style="opacity: 1; stroke-width: 0px; fill: rgb(0, 128, 0); fill-opacity: 1;"/><path class="point" transform="translate(869.75,155.2)" d="M5,0A5,5 0 1,1 0,-5A5,5 0 0,1 5,0Z" style="opacity: 1; stroke-width: 0px; fill: rgb(0, 128, 0); fill-opacity: 1;"/><path class="point" transform="translate(686.25,56.57)" d="M5,0A5,5 0 1,1 0,-5A5,5 0 0,1 5,0Z" style="opacity: 1; stroke-width: 0px; fill: rgb(0, 128, 0); fill-opacity: 1;"/><path class="point" transform="translate(420.89,45.26)" d="M5,0A5,5 0 1,1 0,-5A5,5 0 0,1 5,0Z" style="opacity: 1; stroke-width: 0px; fill: rgb(0, 128, 0); fill-opacity: 1;"/></g><g class="text"/></g><g class="trace scatter traced18354" style="stroke-miterlimit: 2; opacity: 1;"><g class="fills"/><g class="errorbars"/><g class="lines"/><g class="points"><path class="point" transform="translate(779.28,495.43)" d="M12.5,0A12.5,12.5 0 1,1 0,-12.5A12.5,12.5 0 0,1 12.5,0Z" style="opacity: 1; stroke-width: 0px; fill: rgb(0, 0, 0); fill-opacity: 1;"/></g><g class="text"/></g><g class="trace scatter tracea6a206" style="stroke-miterlimit: 2; opacity: 1;"><g class="fills"/><g class="errorbars"/><g class="lines"/><g class="points"><path class="point" transform="translate(799.68,118.15)" d="M10,0A10,10 0 1,1 0,-10A10,10 0 0,1 10,0Z" style="opacity: 1; stroke-width: 0px; fill: rgb(255, 0, 0); fill-opacity: 1;"/></g><g class="text"/></g></g></g><g class="overplot"/><path class="xlines-above crisp" d="M0,0" style="fill: none;"/><path class="ylines-above crisp" d="M0,0" style="fill: none;"/><g class="overlines-above"/><g class="xaxislayer-above"/><g class="yaxislayer-above"/><g class="overaxes-above"/></g></g><g class="polarlayer"/><g class="smithlayer"/><g class="ternarylayer"/><g class="geolayer"/><g class="funnelarealayer"/><g class="pielayer"/><g class="iciclelayer"/><g class="treemaplayer"/><g class="sunburstlayer"/><g class="glimages"/><defs id="topdefs-019939"><g class="clips"/></defs><g class="layer-above"><g class="imagelayer"/><g class="shapelayer"/></g><g class="infolayer"><g class="g-gtitle"><text class="gtitle" x="50" y="0" text-anchor="start" dy="0em" style="font-family: 'Open Sans', verdana, arial, sans-serif; font-size: 17px; fill: rgb(42, 63, 95); opacity: 1; font-weight: normal; white-space: pre;">Article: Global policy challenges for urban vector-borne disease risks</text></g><g class="annotation" data-index="0" style="opacity: 1;"><g class="annotation-text-g" transform="rotate(0,871.64,333.39)"><g class="cursor-pointer" transform="translate(859,324)"><rect class="bg" x="0.5" y="0.5" width="25" height="18" style="stroke-width: 1px; stroke: rgb(0, 0, 0); stroke-opacity: 0; fill: rgb(255, 255, 255); fill-opacity: 1;"/><text class="annotation-text" text-anchor="middle" x="12.203125" y="14" style="font-family: 'Open Sans', verdana, arial, sans-serif; font-size: 12px; fill: rgb(42, 63, 95); fill-opacity: 1; white-space: pre;"><tspan style="font-style:italic">low</tspan></text></g></g><g class="annotation-arrow-g" style="opacity: 1;"><path d="M874.64,342.39L881.64,363.39" style="stroke-width: 1px; stroke: rgb(42, 63, 95); stroke-opacity: 1; stroke-dasharray: 0px, 0px, 22.1359px, 22.1359px;"/></g></g><g class="annotation" data-index="1" style="opacity: 1;"><g class="annotation-text-g" transform="rotate(0,80.38,262.31)"><g class="cursor-pointer" transform="translate(9,253)"><rect class="bg" x="0.5" y="0.5" width="142" height="18" style="stroke-width: 1px; stroke: rgb(0, 0, 0); stroke-opacity: 0; fill: rgb(255, 255, 255); fill-opacity: 1;"/><text class="annotation-text" text-anchor="middle" x="70.859375" y="14" style="font-family: 'Open Sans', verdana, arial, sans-serif; font-size: 12px; fill: rgb(42, 63, 95); fill-opacity: 1; white-space: pre;"><tspan style="font-style:italic">middle income country</tspan></text></g></g><g class="annotation-arrow-g" style="opacity: 1;"><path d="M83.38,271.31L90.38,292.31" style="stroke-width: 1px; stroke: rgb(42, 63, 95); stroke-opacity: 1; stroke-dasharray: 0px, 0px, 22.1359px, 22.1359px;"/></g></g><g class="annotation" data-index="2" style="opacity: 1;"><g class="annotation-text-g" transform="rotate(0,933.75,206.11)"><g class="cursor-pointer" transform="translate(900,197)"><a xlink:href="https://mm80843.github.io/T3.5/keyword_mosquito" xlink:show="replace" style="cursor: pointer;"><rect class="bg" x="0.5" y="0.5" width="67" height="18" style="stroke-width: 1px; stroke: rgb(0, 0, 0); stroke-opacity: 0; fill: rgb(255, 255, 255); fill-opacity: 1;"/></a><text class="annotation-text" text-anchor="middle" x="33.40625" y="14" style="font-family: 'Open Sans', verdana, arial, sans-serif; font-size: 12px; fill: rgb(42, 63, 95); fill-opacity: 1; white-space: pre; pointer-events: all;"><tspan style="font-weight:bold"><a xlink:show="replace" target="_self" xlink:href="https://mm80843.github.io/T3.5/keyword_mosquito" style="cursor:pointer">mosquito</a></tspan></text></g></g><g class="annotation-arrow-g" style="opacity: 1;"><path d="M936.75,215.11L943.75,236.11" style="stroke-width: 1px; stroke: rgb(42, 63, 95); stroke-opacity: 1; stroke-dasharray: 0px, 0px, 22.1359px, 22.1359px;"/></g></g><g class="annotation" data-index="3" style="opacity: 1;"><g class="annotation-text-g" transform="rotate(0,827.98,395.93)"><g class="cursor-pointer" transform="translate(803,386)"><a xlink:href="https://mm80843.github.io/T3.5/keyword_vector" xlink:show="replace" style="cursor: pointer;"><rect class="bg" x="0.5" y="0.5" width="48" height="18" style="stroke-width: 1px; stroke: rgb(0, 0, 0); stroke-opacity: 0; fill: rgb(255, 255, 255); fill-opacity: 1;"/></a><text class="annotation-text" text-anchor="middle" x="24.25" y="14" style="font-family: 'Open Sans', verdana, arial, sans-serif; font-size: 12px; fill: rgb(42, 63, 95); fill-opacity: 1; white-space: pre; pointer-events: all;"><tspan style="font-weight:bold"><a xlink:show="replace" target="_self" xlink:href="https://mm80843.github.io/T3.5/keyword_vector" style="cursor:pointer">vector</a></tspan></text></g></g><g class="annotation-arrow-g" style="opacity: 1;"><path d="M830.98,404.93L837.98,425.93" style="stroke-width: 1px; stroke: rgb(42, 63, 95); stroke-opacity: 1; stroke-dasharray: 0px, 0px, 22.1359px, 22.1359px;"/></g></g><g class="annotation" data-index="4" style="opacity: 1;"><g class="annotation-text-g" transform="rotate(0,516.51,9.5)"><g class="cursor-pointer" transform="translate(474,0)"><rect class="bg" x="0.5" y="0.5" width="84" height="18" style="stroke-width: 1px; stroke: rgb(0, 0, 0); stroke-opacity: 0; fill: rgb(255, 255, 255); fill-opacity: 1;"/><text class="annotation-text" text-anchor="middle" x="42.234375" y="14" style="font-family: 'Open Sans', verdana, arial, sans-serif; font-size: 12px; fill: rgb(42, 63, 95); fill-opacity: 1; white-space: pre;"><tspan style="font-style:italic">control policy</tspan></text></g></g><g class="annotation-arrow-g" style="opacity: 1;"><path d="M519.51,18.5L526.51,39.5" style="stroke-width: 1px; stroke: rgb(42, 63, 95); stroke-opacity: 1; stroke-dasharray: 0px, 0px, 22.1359px, 22.1359px;"/></g></g><g class="annotation" data-index="5" style="opacity: 1;"><g class="annotation-text-g" transform="rotate(0,104.2,109.72)"><g class="cursor-pointer" transform="translate(35,100)"><rect class="bg" x="0.5" y="0.5" width="137" height="18" style="stroke-width: 1px; stroke: rgb(0, 0, 0); stroke-opacity: 0; fill: rgb(255, 255, 255); fill-opacity: 1;"/><text class="annotation-text" text-anchor="middle" x="69.078125" y="14" style="font-family: 'Open Sans', verdana, arial, sans-serif; font-size: 12px; fill: rgb(42, 63, 95); fill-opacity: 1; white-space: pre;"><tspan style="font-style:italic">preventative measure</tspan></text></g></g><g class="annotation-arrow-g" style="opacity: 1;"><path d="M107.2,118.72L114.2,139.72" style="stroke-width: 1px; stroke: rgb(42, 63, 95); stroke-opacity: 1; stroke-dasharray: 0px, 0px, 22.1359px, 22.1359px;"/></g></g><g class="annotation" data-index="6" style="opacity: 1;"><g class="annotation-text-g" transform="rotate(0,446.02,533.75)"><g class="cursor-pointer" transform="translate(395,524)"><rect class="bg" x="0.5" y="0.5" width="101" height="18" style="stroke-width: 1px; stroke: rgb(0, 0, 0); stroke-opacity: 0; fill: rgb(255, 255, 255); fill-opacity: 1;"/><text class="annotation-text" text-anchor="middle" x="50.125" y="14" style="font-family: 'Open Sans', verdana, arial, sans-serif; font-size: 12px; fill: rgb(42, 63, 95); fill-opacity: 1; white-space: pre;"><tspan style="font-style:italic">health care cost</tspan></text></g></g><g class="annotation-arrow-g" style="opacity: 1;"><path d="M449.02,542.75L456.02,563.75" style="stroke-width: 1px; stroke: rgb(42, 63, 95); stroke-opacity: 1; stroke-dasharray: 0px, 0px, 22.1359px, 22.1359px;"/></g></g><g class="annotation" data-index="7" style="opacity: 1;"><g class="annotation-text-g" transform="rotate(0,161.53,435.14)"><g class="cursor-pointer" transform="translate(120,426)"><rect class="bg" x="0.5" y="0.5" width="82" height="18" style="stroke-width: 1px; stroke: rgb(0, 0, 0); stroke-opacity: 0; fill: rgb(255, 255, 255); fill-opacity: 1;"/><text class="annotation-text" text-anchor="middle" x="41.203125" y="14" style="font-family: 'Open Sans', verdana, arial, sans-serif; font-size: 12px; fill: rgb(42, 63, 95); fill-opacity: 1; white-space: pre;"><tspan style="font-style:italic">urban sprawl</tspan></text></g></g><g class="annotation-arrow-g" style="opacity: 1;"><path d="M164.53,444.14L171.53,465.14" style="stroke-width: 1px; stroke: rgb(42, 63, 95); stroke-opacity: 1; stroke-dasharray: 0px, 0px, 22.1359px, 22.1359px;"/></g></g><g class="annotation" data-index="8" style="opacity: 1;"><g class="annotation-text-g" transform="rotate(0,655.7,469.74)"><g class="cursor-pointer" transform="translate(597,460)"><rect class="bg" x="0.5" y="0.5" width="117" height="18" style="stroke-width: 1px; stroke: rgb(0, 0, 0); stroke-opacity: 0; fill: rgb(255, 255, 255); fill-opacity: 1;"/><text class="annotation-text" text-anchor="middle" x="58.328125" y="14" style="font-family: 'Open Sans', verdana, arial, sans-serif; font-size: 12px; fill: rgb(42, 63, 95); fill-opacity: 1; white-space: pre;"><tspan style="font-style:italic">improving mobility</tspan></text></g></g><g class="annotation-arrow-g" style="opacity: 1;"><path d="M658.7,478.74L665.7,499.74" style="stroke-width: 1px; stroke: rgb(42, 63, 95); stroke-opacity: 1; stroke-dasharray: 0px, 0px, 22.1359px, 22.1359px;"/></g></g><g class="annotation" data-index="9" style="opacity: 1;"><g class="annotation-text-g" transform="rotate(0,769.28,465.43)"><g class="cursor-pointer" transform="translate(740,456)"><a xlink:href="https://mm80843.github.io/T3.5/keyword_mobility" xlink:show="replace" style="cursor: pointer;"><rect class="bg" x="0.5" y="0.5" width="58" height="18" style="stroke-width: 1px; stroke: rgb(0, 0, 0); stroke-opacity: 0; fill: rgb(255, 255, 255); fill-opacity: 1;"/></a><text class="annotation-text" text-anchor="middle" x="29.46875" y="14" style="font-family: 'Open Sans', verdana, arial, sans-serif; font-size: 12px; fill: rgb(42, 63, 95); fill-opacity: 1; white-space: pre; pointer-events: all;"><tspan style="font-weight:bold"><a xlink:show="replace" target="_self" xlink:href="https://mm80843.github.io/T3.5/keyword_mobility" style="cursor:pointer">mobility</a></tspan></text></g></g><g class="annotation-arrow-g" style="opacity: 1;"><path d="M772.28,474.43L779.28,495.43" style="stroke-width: 1px; stroke: rgb(42, 63, 95); stroke-opacity: 1; stroke-dasharray: 0px, 0px, 22.1359px, 22.1359px;"/></g></g><g class="annotation" data-index="10" style="opacity: 1;"><g class="annotation-text-g" transform="rotate(0,290.16,34.790000000000006)"><g class="cursor-pointer" transform="translate(252,25)"><rect class="bg" x="0.5" y="0.5" width="76" height="18" style="stroke-width: 1px; stroke: rgb(0, 0, 0); stroke-opacity: 0; fill: rgb(255, 255, 255); fill-opacity: 1;"/><text class="annotation-text" text-anchor="middle" x="38.65625" y="14" style="font-family: 'Open Sans', verdana, arial, sans-serif; font-size: 12px; fill: rgb(42, 63, 95); fill-opacity: 1; white-space: pre;"><tspan style="font-style:italic">surveillance</tspan></text></g></g><g class="annotation-arrow-g" style="opacity: 1;"><path d="M293.16,43.790000000000006L300.16,64.79" style="stroke-width: 1px; stroke: rgb(42, 63, 95); stroke-opacity: 1; stroke-dasharray: 0px, 0px, 22.1359px, 22.1359px;"/></g></g><g class="annotation" data-index="11" style="opacity: 1;"><g class="annotation-text-g" transform="rotate(0,486.64,437.35)"><g class="cursor-pointer" transform="translate(457,428)"><rect class="bg" x="0.5" y="0.5" width="58" height="18" style="stroke-width: 1px; stroke: rgb(0, 0, 0); stroke-opacity: 0; fill: rgb(255, 255, 255); fill-opacity: 1;"/><text class="annotation-text" text-anchor="middle" x="28.84375" y="14" style="font-family: 'Open Sans', verdana, arial, sans-serif; font-size: 12px; fill: rgb(42, 63, 95); fill-opacity: 1; white-space: pre;"><tspan style="font-style:italic">transient</tspan></text></g></g><g class="annotation-arrow-g" style="opacity: 1;"><path d="M489.64,446.35L496.64,467.35" style="stroke-width: 1px; stroke: rgb(42, 63, 95); stroke-opacity: 1; stroke-dasharray: 0px, 0px, 22.1359px, 22.1359px;"/></g></g><g class="annotation" data-index="12" style="opacity: 1;"><g class="annotation-text-g" transform="rotate(0,162.1,49.61)"><g class="cursor-pointer" transform="translate(137,40)"><rect class="bg" x="0.5" y="0.5" width="50" height="18" style="stroke-width: 1px; stroke: rgb(0, 0, 0); stroke-opacity: 0; fill: rgb(255, 255, 255); fill-opacity: 1;"/><text class="annotation-text" text-anchor="middle" x="25.234375" y="14" style="font-family: 'Open Sans', verdana, arial, sans-serif; font-size: 12px; fill: rgb(42, 63, 95); fill-opacity: 1; white-space: pre;"><tspan style="font-style:italic">lifestyle</tspan></text></g></g><g class="annotation-arrow-g" style="opacity: 1;"><path d="M165.1,58.61L172.1,79.61" style="stroke-width: 1px; stroke: rgb(42, 63, 95); stroke-opacity: 1; stroke-dasharray: 0px, 0px, 22.1359px, 22.1359px;"/></g></g><g class="annotation" data-index="13" style="opacity: 1;"><g class="annotation-text-g" transform="rotate(0,88.24,206.61)"><g class="cursor-pointer" transform="translate(41,197)"><rect class="bg" x="0.5" y="0.5" width="94" height="18" style="stroke-width: 1px; stroke: rgb(0, 0, 0); stroke-opacity: 0; fill: rgb(255, 255, 255); fill-opacity: 1;"/><text class="annotation-text" text-anchor="middle" x="47.265625" y="14" style="font-family: 'Open Sans', verdana, arial, sans-serif; font-size: 12px; fill: rgb(42, 63, 95); fill-opacity: 1; white-space: pre;"><tspan style="font-style:italic">housing design</tspan></text></g></g><g class="annotation-arrow-g" style="opacity: 1;"><path d="M91.24,215.61L98.24,236.61" style="stroke-width: 1px; stroke: rgb(42, 63, 95); stroke-opacity: 1; stroke-dasharray: 0px, 0px, 22.1359px, 22.1359px;"/></g></g><g class="annotation" data-index="14" style="opacity: 1;"><g class="annotation-text-g" transform="rotate(0,214.84,480.64)"><g class="cursor-pointer" transform="translate(167,471)"><rect class="bg" x="0.5" y="0.5" width="94" height="18" style="stroke-width: 1px; stroke: rgb(0, 0, 0); stroke-opacity: 0; fill: rgb(255, 255, 255); fill-opacity: 1;"/><text class="annotation-text" text-anchor="middle" x="47.375" y="14" style="font-family: 'Open Sans', verdana, arial, sans-serif; font-size: 12px; fill: rgb(42, 63, 95); fill-opacity: 1; white-space: pre;"><tspan style="font-style:italic">urban planning</tspan></text></g></g><g class="annotation-arrow-g" style="opacity: 1;"><path d="M217.84,489.64L224.84,510.64" style="stroke-width: 1px; stroke: rgb(42, 63, 95); stroke-opacity: 1; stroke-dasharray: 0px, 0px, 22.1359px, 22.1359px;"/></g></g><g class="annotation" data-index="15" style="opacity: 1;"><g class="annotation-text-g" transform="rotate(0,308.44,510.04999999999995)"><g class="cursor-pointer" transform="translate(281,501)"><rect class="bg" x="0.5" y="0.5" width="54" height="18" style="stroke-width: 1px; stroke: rgb(0, 0, 0); stroke-opacity: 0; fill: rgb(255, 255, 255); fill-opacity: 1;"/><text class="annotation-text" text-anchor="middle" x="27.265625" y="14" style="font-family: 'Open Sans', verdana, arial, sans-serif; font-size: 12px; fill: rgb(42, 63, 95); fill-opacity: 1; white-space: pre;"><tspan style="font-style:italic">haines a</tspan></text></g></g><g class="annotation-arrow-g" style="opacity: 1;"><path d="M311.44,519.05L318.44,540.05" style="stroke-width: 1px; stroke: rgb(42, 63, 95); stroke-opacity: 1; stroke-dasharray: 0px, 0px, 22.1359px, 22.1359px;"/></g></g><g class="annotation" data-index="16" style="opacity: 1;"><g class="annotation-text-g" transform="rotate(0,46.25,324.14)"><g class="cursor-pointer" transform="translate(25,315)"><rect class="bg" x="0.5" y="0.5" width="41" height="18" style="stroke-width: 1px; stroke: rgb(0, 0, 0); stroke-opacity: 0; fill: rgb(255, 255, 255); fill-opacity: 1;"/><text class="annotation-text" text-anchor="middle" x="20.78125" y="14" style="font-family: 'Open Sans', verdana, arial, sans-serif; font-size: 12px; fill: rgb(42, 63, 95); fill-opacity: 1; white-space: pre;"><tspan style="font-style:italic">dora c</tspan></text></g></g><g class="annotation-arrow-g" style="opacity: 1;"><path d="M49.25,333.14L56.25,354.14" style="stroke-width: 1px; stroke: rgb(42, 63, 95); stroke-opacity: 1; stroke-dasharray: 0px, 0px, 22.1359px, 22.1359px;"/></g></g><g class="annotation" data-index="17" style="opacity: 1;"><g class="annotation-text-g" transform="rotate(0,97.66,393.53)"><g class="cursor-pointer" transform="translate(55,384)"><rect class="bg" x="0.5" y="0.5" width="84" height="18" style="stroke-width: 1px; stroke: rgb(0, 0, 0); stroke-opacity: 0; fill: rgb(255, 255, 255); fill-opacity: 1;"/><text class="annotation-text" text-anchor="middle" x="42.125" y="14" style="font-family: 'Open Sans', verdana, arial, sans-serif; font-size: 12px; fill: rgb(42, 63, 95); fill-opacity: 1; white-space: pre;"><tspan style="font-style:italic">hortas rico m</tspan></text></g></g><g class="annotation-arrow-g" style="opacity: 1;"><path d="M100.66,402.53L107.66,423.53" style="stroke-width: 1px; stroke: rgb(42, 63, 95); stroke-opacity: 1; stroke-dasharray: 0px, 0px, 22.1359px, 22.1359px;"/></g></g><g class="annotation" data-index="18" style="opacity: 1;"><g class="annotation-text-g" transform="rotate(0,789.4,284.81)"><g class="cursor-pointer" transform="translate(763,275)"><rect class="bg" x="0.5" y="0.5" width="51" height="18" style="stroke-width: 1px; stroke: rgb(0, 0, 0); stroke-opacity: 0; fill: rgb(255, 255, 255); fill-opacity: 1;"/><text class="annotation-text" text-anchor="middle" x="25.96875" y="14" style="font-family: 'Open Sans', verdana, arial, sans-serif; font-size: 12px; fill: rgb(42, 63, 95); fill-opacity: 1; white-space: pre;"><tspan style="font-style:italic">solé olé</tspan></text></g></g><g class="annotation-arrow-g" style="opacity: 1;"><path d="M792.4,293.81L799.4,314.81" style="stroke-width: 1px; stroke: rgb(42, 63, 95); stroke-opacity: 1; stroke-dasharray: 0px, 0px, 22.1359px, 22.1359px;"/></g></g><g class="annotation" data-index="19" style="opacity: 1;"><g class="annotation-text-g" transform="rotate(0,859.75,125.19999999999999)"><g class="cursor-pointer" transform="translate(828,116)"><rect class="bg" x="0.5" y="0.5" width="62" height="18" style="stroke-width: 1px; stroke: rgb(0, 0, 0); stroke-opacity: 0; fill: rgb(255, 255, 255); fill-opacity: 1;"/><text class="annotation-text" text-anchor="middle" x="31.71875" y="14" style="font-family: 'Open Sans', verdana, arial, sans-serif; font-size: 12px; fill: rgb(42, 63, 95); fill-opacity: 1; white-space: pre;"><tspan style="font-style:italic">zika virus</tspan></text></g></g><g class="annotation-arrow-g" style="opacity: 1;"><path d="M862.75,134.2L869.75,155.2" style="stroke-width: 1px; stroke: rgb(42, 63, 95); stroke-opacity: 1; stroke-dasharray: 0px, 0px, 22.1359px, 22.1359px;"/></g></g><g class="annotation" data-index="20" style="opacity: 1;"><g class="annotation-text-g" transform="rotate(0,676.25,26.57)"><g class="cursor-pointer" transform="translate(662,17)"><rect class="bg" x="0.5" y="0.5" width="28" height="18" style="stroke-width: 1px; stroke: rgb(0, 0, 0); stroke-opacity: 0; fill: rgb(255, 255, 255); fill-opacity: 1;"/><text class="annotation-text" text-anchor="middle" x="14.9375" y="14" style="font-family: 'Open Sans', verdana, arial, sans-serif; font-size: 12px; fill: rgb(42, 63, 95); fill-opacity: 1; white-space: pre;"><tspan style="font-style:italic">zika</tspan></text></g></g><g class="annotation-arrow-g" style="opacity: 1;"><path d="M679.25,35.57L686.25,56.57" style="stroke-width: 1px; stroke: rgb(42, 63, 95); stroke-opacity: 1; stroke-dasharray: 0px, 0px, 22.1359px, 22.1359px;"/></g></g><g class="annotation" data-index="21" style="opacity: 1;"><g class="annotation-text-g" transform="rotate(0,789.68,88.15)"><g class="cursor-pointer" transform="translate(753,79)"><a xlink:href="https://mm80843.github.io/T3.5/cluster_6" xlink:show="replace" style="cursor: pointer;"><rect class="bg" x="0.5" y="0.5" width="73" height="18" style="stroke-width: 1px; stroke: rgb(0, 0, 0); stroke-opacity: 0; fill: rgb(255, 255, 255); fill-opacity: 1;"/></a><text class="annotation-text" text-anchor="middle" x="36.84375" y="14" style="font-family: 'Open Sans', verdana, arial, sans-serif; font-size: 12px; fill: rgb(42, 63, 95); fill-opacity: 1; white-space: pre; pointer-events: all;"><tspan style="font-weight:bold"><a xlink:show="replace" target="_self" xlink:href="https://mm80843.github.io/T3.5/cluster_6" style="cursor:pointer">urban-city</a></tspan></text></g></g><g class="annotation-arrow-g" style="opacity: 1;"><path d="M792.68,97.15L799.68,118.15" style="stroke-width: 1px; stroke: rgb(42, 63, 95); stroke-opacity: 1; stroke-dasharray: 0px, 0px, 22.1359px, 22.1359px;"/></g></g><g class="annotation" data-index="22" style="opacity: 1;"><g class="annotation-text-g" transform="rotate(0,410.89,15.259999999999998)"><g class="cursor-pointer" transform="translate(380,6)"><rect class="bg" x="0.5" y="0.5" width="61" height="18" style="stroke-width: 1px; stroke: rgb(0, 0, 0); stroke-opacity: 0; fill: rgb(255, 255, 255); fill-opacity: 1;"/><text class="annotation-text" text-anchor="middle" x="30.890625" y="14" style="font-family: 'Open Sans', verdana, arial, sans-serif; font-size: 12px; fill: rgb(42, 63, 95); fill-opacity: 1; white-space: pre;"><tspan style="font-style:italic">Cluster_6</tspan></text></g></g><g class="annotation-arrow-g" style="opacity: 1;"><path d="M413.89,24.259999999999998L420.89,45.26" style="stroke-width: 1px; stroke: rgb(42, 63, 95); stroke-opacity: 1; stroke-dasharray: 0px, 0px, 22.1359px, 22.1359px;"/></g></g></g></svg>