<svg class="main-svg" xmlns="http://www.w3.org/2000/svg" xmlns:xlink="http://www.w3.org/1999/xlink" width="1000" height="600" style="" viewBox="0 0 1000 600"><rect x="0" y="0" width="1000" height="600" style="fill: rgb(255, 255, 255); fill-opacity: 1;"/><defs id="defs-8ac000"><g class="clips"><clipPath id="clip8ac000xyplot" class="plotclip"><rect width="1000" height="600"/></clipPath><clipPath class="axesclip" id="clip8ac000x"><rect x="0" y="0" width="1000" height="600"/></clipPath><clipPath class="axesclip" id="clip8ac000y"><rect x="0" y="0" width="1000" height="600"/></clipPath><clipPath class="axesclip" id="clip8ac000xy"><rect x="0" y="0" width="1000" height="600"/></clipPath></g><g class="gradients"/><g class="patterns"/></defs><g class="bglayer"><rect class="bg" x="0" y="0" width="1000" height="600" style="fill: rgb(229, 236, 246); fill-opacity: 1; stroke-width: 0;"/></g><g class="layer-below"><g class="imagelayer"/><g class="shapelayer"/></g><g class="cartesianlayer"><g class="subplot xy"><g class="layer-subplot"><g class="shapelayer"/><g class="imagelayer"/></g><g class="gridlayer"><g class="x"/><g class="y"/></g><g class="zerolinelayer"/><path class="xlines-below"/><path class="ylines-below"/><g class="overlines-below"/><g class="xaxislayer-below"/><g class="yaxislayer-below"/><g class="overaxes-below"/><g class="plot" transform="" clip-path="url(#clip8ac000xyplot)"><g class="scatterlayer mlayer"><g class="trace scatter tracefd2102" style="stroke-miterlimit: 2; opacity: 1;"><g class="fills"/><g class="errorbars"/><g class="lines"/><g class="points"><path class="point" transform="translate(544.97,42.82)" d="M4.89,0A4.89,4.89 0 1,1 0,-4.89A4.89,4.89 0 0,1 4.89,0Z" style="opacity: 0.7; stroke-width: 1px; fill: rgb(99, 110, 250); fill-opacity: 1; stroke: rgb(255, 255, 255); stroke-opacity: 1;"/><path class="point" transform="translate(323.72,111.99)" d="M9.15,0A9.15,9.15 0 1,1 0,-9.15A9.15,9.15 0 0,1 9.15,0Z" style="opacity: 0.7; stroke-width: 1px; fill: rgb(99, 110, 250); fill-opacity: 1; stroke: rgb(255, 255, 255); stroke-opacity: 1;"/><path class="point" transform="translate(943.75,315.49)" d="M0,0A0,0 0 1,1 0,-0A0,0 0 0,1 0,0Z" style="opacity: 0.7; stroke-width: 1px; fill: rgb(99, 110, 250); fill-opacity: 1; stroke: rgb(255, 255, 255); stroke-opacity: 1;"/><path class="point" transform="translate(610.89,284.02)" d="M23.7,0A23.7,23.7 0 1,1 0,-23.7A23.7,23.7 0 0,1 23.7,0Z" style="opacity: 0.7; stroke-width: 1px; fill: rgb(99, 110, 250); fill-opacity: 1; stroke: rgb(255, 255, 255); stroke-opacity: 1;"/><path class="point" transform="translate(789.06,39.5)" d="M0,0A0,0 0 1,1 0,-0A0,0 0 0,1 0,0Z" style="opacity: 0.7; stroke-width: 1px; fill: rgb(99, 110, 250); fill-opacity: 1; stroke: rgb(255, 255, 255); stroke-opacity: 1;"/><path class="point" transform="translate(475.08,228)" d="M49.5,0A49.5,49.5 0 1,1 0,-49.5A49.5,49.5 0 0,1 49.5,0Z" style="opacity: 0.7; stroke-width: 1px; fill: rgb(99, 110, 250); fill-opacity: 1; stroke: rgb(255, 255, 255); stroke-opacity: 1;"/><path class="point" transform="translate(116.84,439.73)" d="M0,0A0,0 0 1,1 0,-0A0,0 0 0,1 0,0Z" style="opacity: 0.7; stroke-width: 1px; fill: rgb(99, 110, 250); fill-opacity: 1; stroke: rgb(255, 255, 255); stroke-opacity: 1;"/><path class="point" transform="translate(570.84,563.75)" d="M0,0A0,0 0 1,1 0,-0A0,0 0 0,1 0,0Z" style="opacity: 0.7; stroke-width: 1px; fill: rgb(99, 110, 250); fill-opacity: 1; stroke: rgb(255, 255, 255); stroke-opacity: 1;"/><path class="point" transform="translate(896.65,144.98)" d="M13.39,0A13.39,13.39 0 1,1 0,-13.39A13.39,13.39 0 0,1 13.39,0Z" style="opacity: 0.7; stroke-width: 1px; fill: rgb(99, 110, 250); fill-opacity: 1; stroke: rgb(255, 255, 255); stroke-opacity: 1;"/><path class="point" transform="translate(56.25,282.1)" d="M0,0A0,0 0 1,1 0,-0A0,0 0 0,1 0,0Z" style="opacity: 0.7; stroke-width: 1px; fill: rgb(99, 110, 250); fill-opacity: 1; stroke: rgb(255, 255, 255); stroke-opacity: 1;"/><path class="point" transform="translate(314.38,517.63)" d="M0,0A0,0 0 1,1 0,-0A0,0 0 0,1 0,0Z" style="opacity: 0.7; stroke-width: 1px; fill: rgb(99, 110, 250); fill-opacity: 1; stroke: rgb(255, 255, 255); stroke-opacity: 1;"/><path class="point" transform="translate(901.25,479.07)" d="M0,0A0,0 0 1,1 0,-0A0,0 0 0,1 0,0Z" style="opacity: 0.7; stroke-width: 1px; fill: rgb(99, 110, 250); fill-opacity: 1; stroke: rgb(255, 255, 255); stroke-opacity: 1;"/></g><g class="text"/></g><g class="trace scatter traceb2a27d" style="stroke-miterlimit: 2; opacity: 1;"><g class="fills"/><g class="errorbars"/><g class="lines"/><g class="points"><path class="point" transform="translate(544.97,42.82)" d="M3,0A3,3 0 1,1 0,-3A3,3 0 0,1 3,0Z" style="opacity: 1; stroke-width: 0px; fill: rgb(120, 120, 0); fill-opacity: 0.2;"/><path class="point" transform="translate(544.97,42.82)" d="M3,0A3,3 0 1,1 0,-3A3,3 0 0,1 3,0Z" style="opacity: 1; stroke-width: 0px; fill: rgb(120, 120, 0); fill-opacity: 0.2;"/></g><g class="text"/></g><g class="trace scatter trace4564f6" style="stroke-miterlimit: 2; opacity: 1;"><g class="fills"/><g class="errorbars"/><g class="lines"><path class="js-line" d="M544.97,42.82L323.72,111.99" style="vector-effect: non-scaling-stroke; fill: none; stroke: rgb(120, 120, 0); stroke-opacity: 0.2; stroke-width: 2px; opacity: 1; stroke-dasharray: 9px, 9px;"/></g><g class="points"><path class="point" transform="translate(544.97,42.82)" d="M3,0A3,3 0 1,1 0,-3A3,3 0 0,1 3,0Z" style="opacity: 1; stroke-width: 0px; fill: rgb(120, 120, 0); fill-opacity: 0.2;"/><path class="point" transform="translate(323.72,111.99)" d="M3,0A3,3 0 1,1 0,-3A3,3 0 0,1 3,0Z" style="opacity: 1; stroke-width: 0px; fill: rgb(120, 120, 0); fill-opacity: 0.2;"/></g><g class="text"/></g><g class="trace scatter trace110aa8" style="stroke-miterlimit: 2; opacity: 1;"><g class="fills"/><g class="errorbars"/><g class="lines"><path class="js-line" d="M544.97,42.82L896.65,144.98" style="vector-effect: non-scaling-stroke; fill: none; stroke: rgb(120, 120, 0); stroke-opacity: 0.2; stroke-width: 2px; opacity: 1; stroke-dasharray: 9px, 9px;"/></g><g class="points"><path class="point" transform="translate(544.97,42.82)" d="M3,0A3,3 0 1,1 0,-3A3,3 0 0,1 3,0Z" style="opacity: 1; stroke-width: 0px; fill: rgb(120, 120, 0); fill-opacity: 0.2;"/><path class="point" transform="translate(896.65,144.98)" d="M3,0A3,3 0 1,1 0,-3A3,3 0 0,1 3,0Z" style="opacity: 1; stroke-width: 0px; fill: rgb(120, 120, 0); fill-opacity: 0.2;"/></g><g class="text"/></g><g class="trace scatter trace1899e0" style="stroke-miterlimit: 2; opacity: 1;"><g class="fills"/><g class="errorbars"/><g class="lines"><path class="js-line" d="M544.97,42.82L610.89,284.02" style="vector-effect: non-scaling-stroke; fill: none; stroke: rgb(120, 120, 0); stroke-opacity: 0.2; stroke-width: 2px; opacity: 1; stroke-dasharray: 9px, 9px;"/></g><g class="points"><path class="point" transform="translate(544.97,42.82)" d="M3,0A3,3 0 1,1 0,-3A3,3 0 0,1 3,0Z" style="opacity: 1; stroke-width: 0px; fill: rgb(120, 120, 0); fill-opacity: 0.2;"/><path class="point" transform="translate(610.89,284.02)" d="M3,0A3,3 0 1,1 0,-3A3,3 0 0,1 3,0Z" style="opacity: 1; stroke-width: 0px; fill: rgb(120, 120, 0); fill-opacity: 0.2;"/></g><g class="text"/></g><g class="trace scatter trace09f271" style="stroke-miterlimit: 2; opacity: 1;"><g class="fills"/><g class="errorbars"/><g class="lines"><path class="js-line" d="M544.97,42.82L475.08,228" style="vector-effect: non-scaling-stroke; fill: none; stroke: rgb(120, 120, 0); stroke-opacity: 0.2; stroke-width: 2px; opacity: 1; stroke-dasharray: 9px, 9px;"/></g><g class="points"><path class="point" transform="translate(544.97,42.82)" d="M3,0A3,3 0 1,1 0,-3A3,3 0 0,1 3,0Z" style="opacity: 1; stroke-width: 0px; fill: rgb(120, 120, 0); fill-opacity: 0.2;"/><path class="point" transform="translate(475.08,228)" d="M3,0A3,3 0 1,1 0,-3A3,3 0 0,1 3,0Z" style="opacity: 1; stroke-width: 0px; fill: rgb(120, 120, 0); fill-opacity: 0.2;"/></g><g class="text"/></g><g class="trace scatter tracef015ee" style="stroke-miterlimit: 2; opacity: 1;"><g class="fills"/><g class="errorbars"/><g class="lines"><path class="js-line" d="M323.72,111.99L544.97,42.82" style="vector-effect: non-scaling-stroke; fill: none; stroke: rgb(120, 120, 0); stroke-opacity: 0.2; stroke-width: 2px; opacity: 1; stroke-dasharray: 9px, 9px;"/></g><g class="points"><path class="point" transform="translate(323.72,111.99)" d="M3,0A3,3 0 1,1 0,-3A3,3 0 0,1 3,0Z" style="opacity: 1; stroke-width: 0px; fill: rgb(120, 120, 0); fill-opacity: 0.2;"/><path class="point" transform="translate(544.97,42.82)" d="M3,0A3,3 0 1,1 0,-3A3,3 0 0,1 3,0Z" style="opacity: 1; stroke-width: 0px; fill: rgb(120, 120, 0); fill-opacity: 0.2;"/></g><g class="text"/></g><g class="trace scatter trace282776" style="stroke-miterlimit: 2; opacity: 1;"><g class="fills"/><g class="errorbars"/><g class="lines"/><g class="points"><path class="point" transform="translate(323.72,111.99)" d="M3,0A3,3 0 1,1 0,-3A3,3 0 0,1 3,0Z" style="opacity: 1; stroke-width: 0px; fill: rgb(120, 120, 0); fill-opacity: 0.2;"/><path class="point" transform="translate(323.72,111.99)" d="M3,0A3,3 0 1,1 0,-3A3,3 0 0,1 3,0Z" style="opacity: 1; stroke-width: 0px; fill: rgb(120, 120, 0); fill-opacity: 0.2;"/></g><g class="text"/></g><g class="trace scatter trace829b2e" style="stroke-miterlimit: 2; opacity: 1;"><g class="fills"/><g class="errorbars"/><g class="lines"><path class="js-line" d="M323.72,111.99L896.65,144.98" style="vector-effect: non-scaling-stroke; fill: none; stroke: rgb(120, 120, 0); stroke-opacity: 0.2; stroke-width: 2px; opacity: 1; stroke-dasharray: 9px, 9px;"/></g><g class="points"><path class="point" transform="translate(323.72,111.99)" d="M3,0A3,3 0 1,1 0,-3A3,3 0 0,1 3,0Z" style="opacity: 1; stroke-width: 0px; fill: rgb(120, 120, 0); fill-opacity: 0.2;"/><path class="point" transform="translate(896.65,144.98)" d="M3,0A3,3 0 1,1 0,-3A3,3 0 0,1 3,0Z" style="opacity: 1; stroke-width: 0px; fill: rgb(120, 120, 0); fill-opacity: 0.2;"/></g><g class="text"/></g><g class="trace scatter trace932c0b" style="stroke-miterlimit: 2; opacity: 1;"><g class="fills"/><g class="errorbars"/><g class="lines"><path class="js-line" d="M323.72,111.99L610.89,284.02" style="vector-effect: non-scaling-stroke; fill: none; stroke: rgb(120, 120, 0); stroke-opacity: 0.2; stroke-width: 2px; opacity: 1; stroke-dasharray: 9px, 9px;"/></g><g class="points"><path class="point" transform="translate(323.72,111.99)" d="M3,0A3,3 0 1,1 0,-3A3,3 0 0,1 3,0Z" style="opacity: 1; stroke-width: 0px; fill: rgb(120, 120, 0); fill-opacity: 0.2;"/><path class="point" transform="translate(610.89,284.02)" d="M3,0A3,3 0 1,1 0,-3A3,3 0 0,1 3,0Z" style="opacity: 1; stroke-width: 0px; fill: rgb(120, 120, 0); fill-opacity: 0.2;"/></g><g class="text"/></g><g class="trace scatter trace3f149b" style="stroke-miterlimit: 2; opacity: 1;"><g class="fills"/><g class="errorbars"/><g class="lines"><path class="js-line" d="M323.72,111.99L943.75,315.49" style="vector-effect: non-scaling-stroke; fill: none; stroke: rgb(120, 120, 0); stroke-opacity: 0.2; stroke-width: 2px; opacity: 1; stroke-dasharray: 9px, 9px;"/></g><g class="points"><path class="point" transform="translate(323.72,111.99)" d="M3,0A3,3 0 1,1 0,-3A3,3 0 0,1 3,0Z" style="opacity: 1; stroke-width: 0px; fill: rgb(120, 120, 0); fill-opacity: 0.2;"/><path class="point" transform="translate(943.75,315.49)" d="M3,0A3,3 0 1,1 0,-3A3,3 0 0,1 3,0Z" style="opacity: 1; stroke-width: 0px; fill: rgb(120, 120, 0); fill-opacity: 0.2;"/></g><g class="text"/></g><g class="trace scatter trace313dd7" style="stroke-miterlimit: 2; opacity: 1;"><g class="fills"/><g class="errorbars"/><g class="lines"><path class="js-line" d="M323.72,111.99L789.06,39.5" style="vector-effect: non-scaling-stroke; fill: none; stroke: rgb(120, 120, 0); stroke-opacity: 0.2; stroke-width: 2px; opacity: 1; stroke-dasharray: 9px, 9px;"/></g><g class="points"><path class="point" transform="translate(323.72,111.99)" d="M3,0A3,3 0 1,1 0,-3A3,3 0 0,1 3,0Z" style="opacity: 1; stroke-width: 0px; fill: rgb(120, 120, 0); fill-opacity: 0.2;"/><path class="point" transform="translate(789.06,39.5)" d="M3,0A3,3 0 1,1 0,-3A3,3 0 0,1 3,0Z" style="opacity: 1; stroke-width: 0px; fill: rgb(120, 120, 0); fill-opacity: 0.2;"/></g><g class="text"/></g><g class="trace scatter traceafdb5c" style="stroke-miterlimit: 2; opacity: 1;"><g class="fills"/><g class="errorbars"/><g class="lines"><path class="js-line" d="M323.72,111.99L475.08,228" style="vector-effect: non-scaling-stroke; fill: none; stroke: rgb(120, 120, 0); stroke-opacity: 0.2; stroke-width: 2px; opacity: 1; stroke-dasharray: 9px, 9px;"/></g><g class="points"><path class="point" transform="translate(323.72,111.99)" d="M3,0A3,3 0 1,1 0,-3A3,3 0 0,1 3,0Z" style="opacity: 1; stroke-width: 0px; fill: rgb(120, 120, 0); fill-opacity: 0.2;"/><path class="point" transform="translate(475.08,228)" d="M3,0A3,3 0 1,1 0,-3A3,3 0 0,1 3,0Z" style="opacity: 1; stroke-width: 0px; fill: rgb(120, 120, 0); fill-opacity: 0.2;"/></g><g class="text"/></g><g class="trace scatter tracefe47ca" style="stroke-miterlimit: 2; opacity: 1;"><g class="fills"/><g class="errorbars"/><g class="lines"><path class="js-line" d="M943.75,315.49L610.89,284.02" style="vector-effect: non-scaling-stroke; fill: none; stroke: rgb(120, 120, 0); stroke-opacity: 0.2; stroke-width: 2px; opacity: 1; stroke-dasharray: 9px, 9px;"/></g><g class="points"><path class="point" transform="translate(943.75,315.49)" d="M3,0A3,3 0 1,1 0,-3A3,3 0 0,1 3,0Z" style="opacity: 1; stroke-width: 0px; fill: rgb(120, 120, 0); fill-opacity: 0.2;"/><path class="point" transform="translate(610.89,284.02)" d="M3,0A3,3 0 1,1 0,-3A3,3 0 0,1 3,0Z" style="opacity: 1; stroke-width: 0px; fill: rgb(120, 120, 0); fill-opacity: 0.2;"/></g><g class="text"/></g><g class="trace scatter trace6eb37b" style="stroke-miterlimit: 2; opacity: 1;"><g class="fills"/><g class="errorbars"/><g class="lines"><path class="js-line" d="M943.75,315.49L475.08,228" style="vector-effect: non-scaling-stroke; fill: none; stroke: rgb(120, 120, 0); stroke-opacity: 0.2; stroke-width: 2px; opacity: 1; stroke-dasharray: 9px, 9px;"/></g><g class="points"><path class="point" transform="translate(943.75,315.49)" d="M3,0A3,3 0 1,1 0,-3A3,3 0 0,1 3,0Z" style="opacity: 1; stroke-width: 0px; fill: rgb(120, 120, 0); fill-opacity: 0.2;"/><path class="point" transform="translate(475.08,228)" d="M3,0A3,3 0 1,1 0,-3A3,3 0 0,1 3,0Z" style="opacity: 1; stroke-width: 0px; fill: rgb(120, 120, 0); fill-opacity: 0.2;"/></g><g class="text"/></g><g class="trace scatter trace8b339b" style="stroke-miterlimit: 2; opacity: 1;"><g class="fills"/><g class="errorbars"/><g class="lines"><path class="js-line" d="M610.89,284.02L943.75,315.49" style="vector-effect: non-scaling-stroke; fill: none; stroke: rgb(120, 120, 0); stroke-opacity: 0.2; stroke-width: 2px; opacity: 1; stroke-dasharray: 9px, 9px;"/></g><g class="points"><path class="point" transform="translate(610.89,284.02)" d="M3,0A3,3 0 1,1 0,-3A3,3 0 0,1 3,0Z" style="opacity: 1; stroke-width: 0px; fill: rgb(120, 120, 0); fill-opacity: 0.2;"/><path class="point" transform="translate(943.75,315.49)" d="M3,0A3,3 0 1,1 0,-3A3,3 0 0,1 3,0Z" style="opacity: 1; stroke-width: 0px; fill: rgb(120, 120, 0); fill-opacity: 0.2;"/></g><g class="text"/></g><g class="trace scatter trace88cf43" style="stroke-miterlimit: 2; opacity: 1;"><g class="fills"/><g class="errorbars"/><g class="lines"><path class="js-line" d="M610.89,284.02L789.06,39.5" style="vector-effect: non-scaling-stroke; fill: none; stroke: rgb(120, 120, 0); stroke-opacity: 0.2; stroke-width: 2px; opacity: 1; stroke-dasharray: 9px, 9px;"/></g><g class="points"><path class="point" transform="translate(610.89,284.02)" d="M3,0A3,3 0 1,1 0,-3A3,3 0 0,1 3,0Z" style="opacity: 1; stroke-width: 0px; fill: rgb(120, 120, 0); fill-opacity: 0.2;"/><path class="point" transform="translate(789.06,39.5)" d="M3,0A3,3 0 1,1 0,-3A3,3 0 0,1 3,0Z" style="opacity: 1; stroke-width: 0px; fill: rgb(120, 120, 0); fill-opacity: 0.2;"/></g><g class="text"/></g><g class="trace scatter trace4970e3" style="stroke-miterlimit: 2; opacity: 1;"><g class="fills"/><g class="errorbars"/><g class="lines"><path class="js-line" d="M610.89,284.02L475.08,228" style="vector-effect: non-scaling-stroke; fill: none; stroke: rgb(120, 120, 0); stroke-opacity: 0.2; stroke-width: 2px; opacity: 1; stroke-dasharray: 9px, 9px;"/></g><g class="points"><path class="point" transform="translate(610.89,284.02)" d="M3,0A3,3 0 1,1 0,-3A3,3 0 0,1 3,0Z" style="opacity: 1; stroke-width: 0px; fill: rgb(120, 120, 0); fill-opacity: 0.2;"/><path class="point" transform="translate(475.08,228)" d="M3,0A3,3 0 1,1 0,-3A3,3 0 0,1 3,0Z" style="opacity: 1; stroke-width: 0px; fill: rgb(120, 120, 0); fill-opacity: 0.2;"/></g><g class="text"/></g><g class="trace scatter trace197670" style="stroke-miterlimit: 2; opacity: 1;"><g class="fills"/><g class="errorbars"/><g class="lines"><path class="js-line" d="M610.89,284.02L116.84,439.73" style="vector-effect: non-scaling-stroke; fill: none; stroke: rgb(120, 120, 0); stroke-opacity: 0.2; stroke-width: 2px; opacity: 1; stroke-dasharray: 9px, 9px;"/></g><g class="points"><path class="point" transform="translate(610.89,284.02)" d="M3,0A3,3 0 1,1 0,-3A3,3 0 0,1 3,0Z" style="opacity: 1; stroke-width: 0px; fill: rgb(120, 120, 0); fill-opacity: 0.2;"/><path class="point" transform="translate(116.84,439.73)" d="M3,0A3,3 0 1,1 0,-3A3,3 0 0,1 3,0Z" style="opacity: 1; stroke-width: 0px; fill: rgb(120, 120, 0); fill-opacity: 0.2;"/></g><g class="text"/></g><g class="trace scatter traceb9197d" style="stroke-miterlimit: 2; opacity: 1;"><g class="fills"/><g class="errorbars"/><g class="lines"/><g class="points"><path class="point" transform="translate(610.89,284.02)" d="M3,0A3,3 0 1,1 0,-3A3,3 0 0,1 3,0Z" style="opacity: 1; stroke-width: 0px; fill: rgb(120, 120, 0); fill-opacity: 0.2;"/><path class="point" transform="translate(610.89,284.02)" d="M3,0A3,3 0 1,1 0,-3A3,3 0 0,1 3,0Z" style="opacity: 1; stroke-width: 0px; fill: rgb(120, 120, 0); fill-opacity: 0.2;"/></g><g class="text"/></g><g class="trace scatter trace2d2f79" style="stroke-miterlimit: 2; opacity: 1;"><g class="fills"/><g class="errorbars"/><g class="lines"><path class="js-line" d="M610.89,284.02L323.72,111.99" style="vector-effect: non-scaling-stroke; fill: none; stroke: rgb(120, 120, 0); stroke-opacity: 0.2; stroke-width: 2px; opacity: 1; stroke-dasharray: 9px, 9px;"/></g><g class="points"><path class="point" transform="translate(610.89,284.02)" d="M3,0A3,3 0 1,1 0,-3A3,3 0 0,1 3,0Z" style="opacity: 1; stroke-width: 0px; fill: rgb(120, 120, 0); fill-opacity: 0.2;"/><path class="point" transform="translate(323.72,111.99)" d="M3,0A3,3 0 1,1 0,-3A3,3 0 0,1 3,0Z" style="opacity: 1; stroke-width: 0px; fill: rgb(120, 120, 0); fill-opacity: 0.2;"/></g><g class="text"/></g><g class="trace scatter traceea287c" style="stroke-miterlimit: 2; opacity: 1;"><g class="fills"/><g class="errorbars"/><g class="lines"><path class="js-line" d="M610.89,284.02L544.97,42.82" style="vector-effect: non-scaling-stroke; fill: none; stroke: rgb(120, 120, 0); stroke-opacity: 0.2; stroke-width: 2px; opacity: 1; stroke-dasharray: 9px, 9px;"/></g><g class="points"><path class="point" transform="translate(610.89,284.02)" d="M3,0A3,3 0 1,1 0,-3A3,3 0 0,1 3,0Z" style="opacity: 1; stroke-width: 0px; fill: rgb(120, 120, 0); fill-opacity: 0.2;"/><path class="point" transform="translate(544.97,42.82)" d="M3,0A3,3 0 1,1 0,-3A3,3 0 0,1 3,0Z" style="opacity: 1; stroke-width: 0px; fill: rgb(120, 120, 0); fill-opacity: 0.2;"/></g><g class="text"/></g><g class="trace scatter trace7ecbe4" style="stroke-miterlimit: 2; opacity: 1;"><g class="fills"/><g class="errorbars"/><g class="lines"><path class="js-line" d="M789.06,39.5L610.89,284.02" style="vector-effect: non-scaling-stroke; fill: none; stroke: rgb(120, 120, 0); stroke-opacity: 0.2; stroke-width: 2px; opacity: 1; stroke-dasharray: 9px, 9px;"/></g><g class="points"><path class="point" transform="translate(789.06,39.5)" d="M3,0A3,3 0 1,1 0,-3A3,3 0 0,1 3,0Z" style="opacity: 1; stroke-width: 0px; fill: rgb(120, 120, 0); fill-opacity: 0.2;"/><path class="point" transform="translate(610.89,284.02)" d="M3,0A3,3 0 1,1 0,-3A3,3 0 0,1 3,0Z" style="opacity: 1; stroke-width: 0px; fill: rgb(120, 120, 0); fill-opacity: 0.2;"/></g><g class="text"/></g><g class="trace scatter trace31c99b" style="stroke-miterlimit: 2; opacity: 1;"><g class="fills"/><g class="errorbars"/><g class="lines"><path class="js-line" d="M789.06,39.5L475.08,228" style="vector-effect: non-scaling-stroke; fill: none; stroke: rgb(120, 120, 0); stroke-opacity: 0.2; stroke-width: 2px; opacity: 1; stroke-dasharray: 9px, 9px;"/></g><g class="points"><path class="point" transform="translate(789.06,39.5)" d="M3,0A3,3 0 1,1 0,-3A3,3 0 0,1 3,0Z" style="opacity: 1; stroke-width: 0px; fill: rgb(120, 120, 0); fill-opacity: 0.2;"/><path class="point" transform="translate(475.08,228)" d="M3,0A3,3 0 1,1 0,-3A3,3 0 0,1 3,0Z" style="opacity: 1; stroke-width: 0px; fill: rgb(120, 120, 0); fill-opacity: 0.2;"/></g><g class="text"/></g><g class="trace scatter tracec80b77" style="stroke-miterlimit: 2; opacity: 1;"><g class="fills"/><g class="errorbars"/><g class="lines"><path class="js-line" d="M475.08,228L610.89,284.02" style="vector-effect: non-scaling-stroke; fill: none; stroke: rgb(120, 120, 0); stroke-opacity: 0.2; stroke-width: 2px; opacity: 1; stroke-dasharray: 9px, 9px;"/></g><g class="points"><path class="point" transform="translate(475.08,228)" d="M3,0A3,3 0 1,1 0,-3A3,3 0 0,1 3,0Z" style="opacity: 1; stroke-width: 0px; fill: rgb(120, 120, 0); fill-opacity: 0.2;"/><path class="point" transform="translate(610.89,284.02)" d="M3,0A3,3 0 1,1 0,-3A3,3 0 0,1 3,0Z" style="opacity: 1; stroke-width: 0px; fill: rgb(120, 120, 0); fill-opacity: 0.2;"/></g><g class="text"/></g><g class="trace scatter trace43fdcc" style="stroke-miterlimit: 2; opacity: 1;"><g class="fills"/><g class="errorbars"/><g class="lines"><path class="js-line" d="M475.08,228L116.84,439.73" style="vector-effect: non-scaling-stroke; fill: none; stroke: rgb(120, 120, 0); stroke-opacity: 0.2; stroke-width: 2px; opacity: 1; stroke-dasharray: 9px, 9px;"/></g><g class="points"><path class="point" transform="translate(475.08,228)" d="M3,0A3,3 0 1,1 0,-3A3,3 0 0,1 3,0Z" style="opacity: 1; stroke-width: 0px; fill: rgb(120, 120, 0); fill-opacity: 0.2;"/><path class="point" transform="translate(116.84,439.73)" d="M3,0A3,3 0 1,1 0,-3A3,3 0 0,1 3,0Z" style="opacity: 1; stroke-width: 0px; fill: rgb(120, 120, 0); fill-opacity: 0.2;"/></g><g class="text"/></g><g class="trace scatter trace04384e" style="stroke-miterlimit: 2; opacity: 1;"><g class="fills"/><g class="errorbars"/><g class="lines"><path class="js-line" d="M475.08,228L570.84,563.75" style="vector-effect: non-scaling-stroke; fill: none; stroke: rgb(120, 120, 0); stroke-opacity: 0.2; stroke-width: 2px; opacity: 1; stroke-dasharray: 9px, 9px;"/></g><g class="points"><path class="point" transform="translate(475.08,228)" d="M3,0A3,3 0 1,1 0,-3A3,3 0 0,1 3,0Z" style="opacity: 1; stroke-width: 0px; fill: rgb(120, 120, 0); fill-opacity: 0.2;"/><path class="point" transform="translate(570.84,563.75)" d="M3,0A3,3 0 1,1 0,-3A3,3 0 0,1 3,0Z" style="opacity: 1; stroke-width: 0px; fill: rgb(120, 120, 0); fill-opacity: 0.2;"/></g><g class="text"/></g><g class="trace scatter trace26daec" style="stroke-miterlimit: 2; opacity: 1;"><g class="fills"/><g class="errorbars"/><g class="lines"><path class="js-line" d="M475.08,228L789.06,39.5" style="vector-effect: non-scaling-stroke; fill: none; stroke: rgb(120, 120, 0); stroke-opacity: 0.2; stroke-width: 2px; opacity: 1; stroke-dasharray: 9px, 9px;"/></g><g class="points"><path class="point" transform="translate(475.08,228)" d="M3,0A3,3 0 1,1 0,-3A3,3 0 0,1 3,0Z" style="opacity: 1; stroke-width: 0px; fill: rgb(120, 120, 0); fill-opacity: 0.2;"/><path class="point" transform="translate(789.06,39.5)" d="M3,0A3,3 0 1,1 0,-3A3,3 0 0,1 3,0Z" style="opacity: 1; stroke-width: 0px; fill: rgb(120, 120, 0); fill-opacity: 0.2;"/></g><g class="text"/></g><g class="trace scatter traced2e68d" style="stroke-miterlimit: 2; opacity: 1;"><g class="fills"/><g class="errorbars"/><g class="lines"><path class="js-line" d="M475.08,228L56.25,282.1" style="vector-effect: non-scaling-stroke; fill: none; stroke: rgb(120, 120, 0); stroke-opacity: 0.2; stroke-width: 2px; opacity: 1; stroke-dasharray: 9px, 9px;"/></g><g class="points"><path class="point" transform="translate(475.08,228)" d="M3,0A3,3 0 1,1 0,-3A3,3 0 0,1 3,0Z" style="opacity: 1; stroke-width: 0px; fill: rgb(120, 120, 0); fill-opacity: 0.2;"/><path class="point" transform="translate(56.25,282.1)" d="M3,0A3,3 0 1,1 0,-3A3,3 0 0,1 3,0Z" style="opacity: 1; stroke-width: 0px; fill: rgb(120, 120, 0); fill-opacity: 0.2;"/></g><g class="text"/></g><g class="trace scatter tracebf9822" style="stroke-miterlimit: 2; opacity: 1;"><g class="fills"/><g class="errorbars"/><g class="lines"><path class="js-line" d="M475.08,228L943.75,315.49" style="vector-effect: non-scaling-stroke; fill: none; stroke: rgb(120, 120, 0); stroke-opacity: 0.2; stroke-width: 2px; opacity: 1; stroke-dasharray: 9px, 9px;"/></g><g class="points"><path class="point" transform="translate(475.08,228)" d="M3,0A3,3 0 1,1 0,-3A3,3 0 0,1 3,0Z" style="opacity: 1; stroke-width: 0px; fill: rgb(120, 120, 0); fill-opacity: 0.2;"/><path class="point" transform="translate(943.75,315.49)" d="M3,0A3,3 0 1,1 0,-3A3,3 0 0,1 3,0Z" style="opacity: 1; stroke-width: 0px; fill: rgb(120, 120, 0); fill-opacity: 0.2;"/></g><g class="text"/></g><g class="trace scatter traceaab6e3" style="stroke-miterlimit: 2; opacity: 1;"><g class="fills"/><g class="errorbars"/><g class="lines"><path class="js-line" d="M475.08,228L896.65,144.98" style="vector-effect: non-scaling-stroke; fill: none; stroke: rgb(120, 120, 0); stroke-opacity: 0.2; stroke-width: 2px; opacity: 1; stroke-dasharray: 9px, 9px;"/></g><g class="points"><path class="point" transform="translate(475.08,228)" d="M3,0A3,3 0 1,1 0,-3A3,3 0 0,1 3,0Z" style="opacity: 1; stroke-width: 0px; fill: rgb(120, 120, 0); fill-opacity: 0.2;"/><path class="point" transform="translate(896.65,144.98)" d="M3,0A3,3 0 1,1 0,-3A3,3 0 0,1 3,0Z" style="opacity: 1; stroke-width: 0px; fill: rgb(120, 120, 0); fill-opacity: 0.2;"/></g><g class="text"/></g><g class="trace scatter trace7528a7" style="stroke-miterlimit: 2; opacity: 1;"><g class="fills"/><g class="errorbars"/><g class="lines"><path class="js-line" d="M475.08,228L901.25,479.07" style="vector-effect: non-scaling-stroke; fill: none; stroke: rgb(120, 120, 0); stroke-opacity: 0.2; stroke-width: 2px; opacity: 1; stroke-dasharray: 9px, 9px;"/></g><g class="points"><path class="point" transform="translate(475.08,228)" d="M3,0A3,3 0 1,1 0,-3A3,3 0 0,1 3,0Z" style="opacity: 1; stroke-width: 0px; fill: rgb(120, 120, 0); fill-opacity: 0.2;"/><path class="point" transform="translate(901.25,479.07)" d="M3,0A3,3 0 1,1 0,-3A3,3 0 0,1 3,0Z" style="opacity: 1; stroke-width: 0px; fill: rgb(120, 120, 0); fill-opacity: 0.2;"/></g><g class="text"/></g><g class="trace scatter trace70d9e7" style="stroke-miterlimit: 2; opacity: 1;"><g class="fills"/><g class="errorbars"/><g class="lines"><path class="js-line" d="M116.84,439.73L610.89,284.02" style="vector-effect: non-scaling-stroke; fill: none; stroke: rgb(120, 120, 0); stroke-opacity: 0.2; stroke-width: 2px; opacity: 1; stroke-dasharray: 9px, 9px;"/></g><g class="points"><path class="point" transform="translate(116.84,439.73)" d="M3,0A3,3 0 1,1 0,-3A3,3 0 0,1 3,0Z" style="opacity: 1; stroke-width: 0px; fill: rgb(120, 120, 0); fill-opacity: 0.2;"/><path class="point" transform="translate(610.89,284.02)" d="M3,0A3,3 0 1,1 0,-3A3,3 0 0,1 3,0Z" style="opacity: 1; stroke-width: 0px; fill: rgb(120, 120, 0); fill-opacity: 0.2;"/></g><g class="text"/></g><g class="trace scatter tracea77680" style="stroke-miterlimit: 2; opacity: 1;"><g class="fills"/><g class="errorbars"/><g class="lines"/><g class="points"><path class="point" transform="translate(116.84,439.73)" d="M3,0A3,3 0 1,1 0,-3A3,3 0 0,1 3,0Z" style="opacity: 1; stroke-width: 0px; fill: rgb(120, 120, 0); fill-opacity: 0.2;"/><path class="point" transform="translate(116.84,439.73)" d="M3,0A3,3 0 1,1 0,-3A3,3 0 0,1 3,0Z" style="opacity: 1; stroke-width: 0px; fill: rgb(120, 120, 0); fill-opacity: 0.2;"/></g><g class="text"/></g><g class="trace scatter tracefa8904" style="stroke-miterlimit: 2; opacity: 1;"><g class="fills"/><g class="errorbars"/><g class="lines"><path class="js-line" d="M116.84,439.73L475.08,228" style="vector-effect: non-scaling-stroke; fill: none; stroke: rgb(120, 120, 0); stroke-opacity: 0.2; stroke-width: 2px; opacity: 1; stroke-dasharray: 9px, 9px;"/></g><g class="points"><path class="point" transform="translate(116.84,439.73)" d="M3,0A3,3 0 1,1 0,-3A3,3 0 0,1 3,0Z" style="opacity: 1; stroke-width: 0px; fill: rgb(120, 120, 0); fill-opacity: 0.2;"/><path class="point" transform="translate(475.08,228)" d="M3,0A3,3 0 1,1 0,-3A3,3 0 0,1 3,0Z" style="opacity: 1; stroke-width: 0px; fill: rgb(120, 120, 0); fill-opacity: 0.2;"/></g><g class="text"/></g><g class="trace scatter tracee4ee0d" style="stroke-miterlimit: 2; opacity: 1;"><g class="fills"/><g class="errorbars"/><g class="lines"><path class="js-line" d="M570.84,563.75L475.08,228" style="vector-effect: non-scaling-stroke; fill: none; stroke: rgb(120, 120, 0); stroke-opacity: 0.2; stroke-width: 2px; opacity: 1; stroke-dasharray: 9px, 9px;"/></g><g class="points"><path class="point" transform="translate(570.84,563.75)" d="M3,0A3,3 0 1,1 0,-3A3,3 0 0,1 3,0Z" style="opacity: 1; stroke-width: 0px; fill: rgb(120, 120, 0); fill-opacity: 0.2;"/><path class="point" transform="translate(475.08,228)" d="M3,0A3,3 0 1,1 0,-3A3,3 0 0,1 3,0Z" style="opacity: 1; stroke-width: 0px; fill: rgb(120, 120, 0); fill-opacity: 0.2;"/></g><g class="text"/></g><g class="trace scatter tracef2b9bd" style="stroke-miterlimit: 2; opacity: 1;"><g class="fills"/><g class="errorbars"/><g class="lines"><path class="js-line" d="M896.65,144.98L544.97,42.82" style="vector-effect: non-scaling-stroke; fill: none; stroke: rgb(120, 120, 0); stroke-opacity: 0.2; stroke-width: 2px; opacity: 1; stroke-dasharray: 9px, 9px;"/></g><g class="points"><path class="point" transform="translate(896.65,144.98)" d="M3,0A3,3 0 1,1 0,-3A3,3 0 0,1 3,0Z" style="opacity: 1; stroke-width: 0px; fill: rgb(120, 120, 0); fill-opacity: 0.2;"/><path class="point" transform="translate(544.97,42.82)" d="M3,0A3,3 0 1,1 0,-3A3,3 0 0,1 3,0Z" style="opacity: 1; stroke-width: 0px; fill: rgb(120, 120, 0); fill-opacity: 0.2;"/></g><g class="text"/></g><g class="trace scatter tracedb74ea" style="stroke-miterlimit: 2; opacity: 1;"><g class="fills"/><g class="errorbars"/><g class="lines"><path class="js-line" d="M896.65,144.98L323.72,111.99" style="vector-effect: non-scaling-stroke; fill: none; stroke: rgb(120, 120, 0); stroke-opacity: 0.2; stroke-width: 2px; opacity: 1; stroke-dasharray: 9px, 9px;"/></g><g class="points"><path class="point" transform="translate(896.65,144.98)" d="M3,0A3,3 0 1,1 0,-3A3,3 0 0,1 3,0Z" style="opacity: 1; stroke-width: 0px; fill: rgb(120, 120, 0); fill-opacity: 0.2;"/><path class="point" transform="translate(323.72,111.99)" d="M3,0A3,3 0 1,1 0,-3A3,3 0 0,1 3,0Z" style="opacity: 1; stroke-width: 0px; fill: rgb(120, 120, 0); fill-opacity: 0.2;"/></g><g class="text"/></g><g class="trace scatter tracee8725b" style="stroke-miterlimit: 2; opacity: 1;"><g class="fills"/><g class="errorbars"/><g class="lines"/><g class="points"><path class="point" transform="translate(896.65,144.98)" d="M3,0A3,3 0 1,1 0,-3A3,3 0 0,1 3,0Z" style="opacity: 1; stroke-width: 0px; fill: rgb(120, 120, 0); fill-opacity: 0.2;"/><path class="point" transform="translate(896.65,144.98)" d="M3,0A3,3 0 1,1 0,-3A3,3 0 0,1 3,0Z" style="opacity: 1; stroke-width: 0px; fill: rgb(120, 120, 0); fill-opacity: 0.2;"/></g><g class="text"/></g><g class="trace scatter trace1b3306" style="stroke-miterlimit: 2; opacity: 1;"><g class="fills"/><g class="errorbars"/><g class="lines"><path class="js-line" d="M896.65,144.98L475.08,228" style="vector-effect: non-scaling-stroke; fill: none; stroke: rgb(120, 120, 0); stroke-opacity: 0.2; stroke-width: 2px; opacity: 1; stroke-dasharray: 9px, 9px;"/></g><g class="points"><path class="point" transform="translate(896.65,144.98)" d="M3,0A3,3 0 1,1 0,-3A3,3 0 0,1 3,0Z" style="opacity: 1; stroke-width: 0px; fill: rgb(120, 120, 0); fill-opacity: 0.2;"/><path class="point" transform="translate(475.08,228)" d="M3,0A3,3 0 1,1 0,-3A3,3 0 0,1 3,0Z" style="opacity: 1; stroke-width: 0px; fill: rgb(120, 120, 0); fill-opacity: 0.2;"/></g><g class="text"/></g><g class="trace scatter trace400582" style="stroke-miterlimit: 2; opacity: 1;"><g class="fills"/><g class="errorbars"/><g class="lines"><path class="js-line" d="M56.25,282.1L475.08,228" style="vector-effect: non-scaling-stroke; fill: none; stroke: rgb(120, 120, 0); stroke-opacity: 0.2; stroke-width: 2px; opacity: 1; stroke-dasharray: 9px, 9px;"/></g><g class="points"><path class="point" transform="translate(56.25,282.1)" d="M3,0A3,3 0 1,1 0,-3A3,3 0 0,1 3,0Z" style="opacity: 1; stroke-width: 0px; fill: rgb(120, 120, 0); fill-opacity: 0.2;"/><path class="point" transform="translate(475.08,228)" d="M3,0A3,3 0 1,1 0,-3A3,3 0 0,1 3,0Z" style="opacity: 1; stroke-width: 0px; fill: rgb(120, 120, 0); fill-opacity: 0.2;"/></g><g class="text"/></g><g class="trace scatter trace2c713a" style="stroke-miterlimit: 2; opacity: 1;"><g class="fills"/><g class="errorbars"/><g class="lines"><path class="js-line" d="M314.38,517.63L475.08,228" style="vector-effect: non-scaling-stroke; fill: none; stroke: rgb(120, 120, 0); stroke-opacity: 0.2; stroke-width: 2px; opacity: 1; stroke-dasharray: 9px, 9px;"/></g><g class="points"><path class="point" transform="translate(314.38,517.63)" d="M3,0A3,3 0 1,1 0,-3A3,3 0 0,1 3,0Z" style="opacity: 1; stroke-width: 0px; fill: rgb(120, 120, 0); fill-opacity: 0.2;"/><path class="point" transform="translate(475.08,228)" d="M3,0A3,3 0 1,1 0,-3A3,3 0 0,1 3,0Z" style="opacity: 1; stroke-width: 0px; fill: rgb(120, 120, 0); fill-opacity: 0.2;"/></g><g class="text"/></g><g class="trace scatter traceb0e08a" style="stroke-miterlimit: 2; opacity: 1;"><g class="fills"/><g class="errorbars"/><g class="lines"><path class="js-line" d="M901.25,479.07L475.08,228" style="vector-effect: non-scaling-stroke; fill: none; stroke: rgb(120, 120, 0); stroke-opacity: 0.2; stroke-width: 2px; opacity: 1; stroke-dasharray: 9px, 9px;"/></g><g class="points"><path class="point" transform="translate(901.25,479.07)" d="M3,0A3,3 0 1,1 0,-3A3,3 0 0,1 3,0Z" style="opacity: 1; stroke-width: 0px; fill: rgb(120, 120, 0); fill-opacity: 0.2;"/><path class="point" transform="translate(475.08,228)" d="M3,0A3,3 0 1,1 0,-3A3,3 0 0,1 3,0Z" style="opacity: 1; stroke-width: 0px; fill: rgb(120, 120, 0); fill-opacity: 0.2;"/></g><g class="text"/></g><g class="trace scatter trace0ebbc2" style="stroke-miterlimit: 2; opacity: 1;"><g class="fills"/><g class="errorbars"/><g class="lines"/><g class="points"><path class="point" transform="translate(544.97,42.82)" d="M5,0A5,5 0 1,1 0,-5A5,5 0 0,1 5,0Z" style="opacity: 1; stroke-width: 0px; fill: rgb(0, 128, 0); fill-opacity: 1;"/><path class="point" transform="translate(323.72,111.99)" d="M5,0A5,5 0 1,1 0,-5A5,5 0 0,1 5,0Z" style="opacity: 1; stroke-width: 0px; fill: rgb(0, 128, 0); fill-opacity: 1;"/><path class="point" transform="translate(943.75,315.49)" d="M5,0A5,5 0 1,1 0,-5A5,5 0 0,1 5,0Z" style="opacity: 1; stroke-width: 0px; fill: rgb(0, 128, 0); fill-opacity: 1;"/><path class="point" transform="translate(610.89,284.02)" d="M5,0A5,5 0 1,1 0,-5A5,5 0 0,1 5,0Z" style="opacity: 1; stroke-width: 0px; fill: rgb(0, 128, 0); fill-opacity: 1;"/><path class="point" transform="translate(789.06,39.5)" d="M5,0A5,5 0 1,1 0,-5A5,5 0 0,1 5,0Z" style="opacity: 1; stroke-width: 0px; fill: rgb(0, 128, 0); fill-opacity: 1;"/><path class="point" transform="translate(116.84,439.73)" d="M5,0A5,5 0 1,1 0,-5A5,5 0 0,1 5,0Z" style="opacity: 1; stroke-width: 0px; fill: rgb(0, 128, 0); fill-opacity: 1;"/><path class="point" transform="translate(570.84,563.75)" d="M5,0A5,5 0 1,1 0,-5A5,5 0 0,1 5,0Z" style="opacity: 1; stroke-width: 0px; fill: rgb(0, 128, 0); fill-opacity: 1;"/><path class="point" transform="translate(896.65,144.98)" d="M5,0A5,5 0 1,1 0,-5A5,5 0 0,1 5,0Z" style="opacity: 1; stroke-width: 0px; fill: rgb(0, 128, 0); fill-opacity: 1;"/><path class="point" transform="translate(56.25,282.1)" d="M5,0A5,5 0 1,1 0,-5A5,5 0 0,1 5,0Z" style="opacity: 1; stroke-width: 0px; fill: rgb(0, 128, 0); fill-opacity: 1;"/><path class="point" transform="translate(314.38,517.63)" d="M5,0A5,5 0 1,1 0,-5A5,5 0 0,1 5,0Z" style="opacity: 1; stroke-width: 0px; fill: rgb(0, 128, 0); fill-opacity: 1;"/><path class="point" transform="translate(901.25,479.07)" d="M5,0A5,5 0 1,1 0,-5A5,5 0 0,1 5,0Z" style="opacity: 1; stroke-width: 0px; fill: rgb(0, 128, 0); fill-opacity: 1;"/></g><g class="text"/></g><g class="trace scatter tracef4a37a" style="stroke-miterlimit: 2; opacity: 1;"><g class="fills"/><g class="errorbars"/><g class="lines"/><g class="points"><path class="point" transform="translate(475.08,228)" d="M12.5,0A12.5,12.5 0 1,1 0,-12.5A12.5,12.5 0 0,1 12.5,0Z" style="opacity: 1; stroke-width: 0px; fill: rgb(0, 0, 0); fill-opacity: 1;"/></g><g class="text"/></g></g></g><g class="overplot"/><path class="xlines-above crisp" d="M0,0" style="fill: none;"/><path class="ylines-above crisp" d="M0,0" style="fill: none;"/><g class="overlines-above"/><g class="xaxislayer-above"/><g class="yaxislayer-above"/><g class="overaxes-above"/></g></g><g class="polarlayer"/><g class="smithlayer"/><g class="ternarylayer"/><g class="geolayer"/><g class="funnelarealayer"/><g class="pielayer"/><g class="iciclelayer"/><g class="treemaplayer"/><g class="sunburstlayer"/><g class="glimages"/><defs id="topdefs-8ac000"><g class="clips"/></defs><g class="layer-above"><g class="imagelayer"/><g class="shapelayer"/></g><g class="infolayer"><g class="g-gtitle"><text class="gtitle" x="50" y="0" text-anchor="start" dy="0em" style="font-family: 'Open Sans', verdana, arial, sans-serif; font-size: 17px; fill: rgb(42, 63, 95); opacity: 1; font-weight: normal; white-space: pre;">Keyword: new south wale</text></g><g class="annotation" data-index="0" style="opacity: 1;"><g class="annotation-text-g" transform="rotate(0,534.97,12.82)"><g class="cursor-pointer" transform="translate(503,3)"><a xlink:href="https://mm80843.github.io/T3.5/keyword_covid-19" xlink:show="replace" style="cursor: pointer;"><rect class="bg" x="0.5" y="0.5" width="62" height="18" style="stroke-width: 1px; stroke: rgb(0, 0, 0); stroke-opacity: 0; fill: rgb(255, 255, 255); fill-opacity: 1;"/></a><text class="annotation-text" text-anchor="middle" x="31.21875" y="14" style="font-family: 'Open Sans', verdana, arial, sans-serif; font-size: 12px; fill: rgb(42, 63, 95); fill-opacity: 1; white-space: pre; pointer-events: all;"><tspan style="font-weight:bold"><a xlink:show="replace" target="_self" xlink:href="https://mm80843.github.io/T3.5/keyword_covid-19" style="cursor:pointer">covid-19</a></tspan></text></g></g><g class="annotation-arrow-g" style="opacity: 1;"><path d="M537.97,21.82L544.97,42.82" style="stroke-width: 1px; stroke: rgb(42, 63, 95); stroke-opacity: 1; stroke-dasharray: 0px, 0px, 22.1359px, 22.1359px;"/></g></g><g class="annotation" data-index="1" style="opacity: 1;"><g class="annotation-text-g" transform="rotate(0,313.72,81.99)"><g class="cursor-pointer" transform="translate(249,72)"><a xlink:href="https://mm80843.github.io/T3.5/keyword_covid_19_pandemic" xlink:show="replace" style="cursor: pointer;"><rect class="bg" x="0.5" y="0.5" width="129" height="18" style="stroke-width: 1px; stroke: rgb(0, 0, 0); stroke-opacity: 0; fill: rgb(255, 255, 255); fill-opacity: 1;"/></a><text class="annotation-text" text-anchor="middle" x="65.015625" y="14" style="font-family: 'Open Sans', verdana, arial, sans-serif; font-size: 12px; fill: rgb(42, 63, 95); fill-opacity: 1; white-space: pre; pointer-events: all;"><tspan style="font-weight:bold"><a xlink:show="replace" target="_self" xlink:href="https://mm80843.github.io/T3.5/keyword_covid_19_pandemic" style="cursor:pointer">covid 19 pandemic</a></tspan></text></g></g><g class="annotation-arrow-g" style="opacity: 1;"><path d="M316.72,90.99L323.72,111.99" style="stroke-width: 1px; stroke: rgb(42, 63, 95); stroke-opacity: 1; stroke-dasharray: 0px, 0px, 22.1359px, 22.1359px;"/></g></g><g class="annotation" data-index="2" style="opacity: 1;"><g class="annotation-text-g" transform="rotate(0,933.75,285.49)"><g class="cursor-pointer" transform="translate(897,276)"><rect class="bg" x="0.5" y="0.5" width="73" height="18" style="stroke-width: 1px; stroke: rgb(0, 0, 0); stroke-opacity: 0; fill: rgb(255, 255, 255); fill-opacity: 1;"/><text class="annotation-text" text-anchor="middle" x="36.40625" y="14" style="font-family: 'Open Sans', verdana, arial, sans-serif; font-size: 12px; fill: rgb(42, 63, 95); fill-opacity: 1; white-space: pre;"><tspan style="font-style:italic">queensland</tspan></text></g></g><g class="annotation-arrow-g" style="opacity: 1;"><path d="M936.75,294.49L943.75,315.49" style="stroke-width: 1px; stroke: rgb(42, 63, 95); stroke-opacity: 1; stroke-dasharray: 0px, 0px, 22.1359px, 22.1359px;"/></g></g><g class="annotation" data-index="3" style="opacity: 1;"><g class="annotation-text-g" transform="rotate(0,600.89,254.01999999999998)"><g class="cursor-pointer" transform="translate(569,245)"><a xlink:href="https://mm80843.github.io/T3.5/keyword_australia" xlink:show="replace" style="cursor: pointer;"><rect class="bg" x="0.5" y="0.5" width="62" height="18" style="stroke-width: 1px; stroke: rgb(0, 0, 0); stroke-opacity: 0; fill: rgb(255, 255, 255); fill-opacity: 1;"/></a><text class="annotation-text" text-anchor="middle" x="31.6875" y="14" style="font-family: 'Open Sans', verdana, arial, sans-serif; font-size: 12px; fill: rgb(42, 63, 95); fill-opacity: 1; white-space: pre; pointer-events: all;"><tspan style="font-weight:bold"><a xlink:show="replace" target="_self" xlink:href="https://mm80843.github.io/T3.5/keyword_australia" style="cursor:pointer">australia</a></tspan></text></g></g><g class="annotation-arrow-g" style="opacity: 1;"><path d="M603.89,263.02L610.89,284.02" style="stroke-width: 1px; stroke: rgb(42, 63, 95); stroke-opacity: 1; stroke-dasharray: 0px, 0px, 22.1359px, 22.1359px;"/></g></g><g class="annotation" data-index="4" style="opacity: 1;"><g class="annotation-text-g" transform="rotate(0,779.06,9.5)"><g class="cursor-pointer" transform="translate(755,0)"><rect class="bg" x="0.5" y="0.5" width="48" height="18" style="stroke-width: 1px; stroke: rgb(0, 0, 0); stroke-opacity: 0; fill: rgb(255, 255, 255); fill-opacity: 1;"/><text class="annotation-text" text-anchor="middle" x="24.328125" y="14" style="font-family: 'Open Sans', verdana, arial, sans-serif; font-size: 12px; fill: rgb(42, 63, 95); fill-opacity: 1; white-space: pre;"><tspan style="font-style:italic">sydney</tspan></text></g></g><g class="annotation-arrow-g" style="opacity: 1;"><path d="M782.06,18.5L789.06,39.5" style="stroke-width: 1px; stroke: rgb(42, 63, 95); stroke-opacity: 1; stroke-dasharray: 0px, 0px, 22.1359px, 22.1359px;"/></g></g><g class="annotation" data-index="5" style="opacity: 1;"><g class="annotation-text-g" transform="rotate(0,465.08,198)"><g class="cursor-pointer" transform="translate(410,189)"><a xlink:href="https://mm80843.github.io/T3.5/keyword_new_south_wale" xlink:show="replace" style="cursor: pointer;"><rect class="bg" x="0.5" y="0.5" width="109" height="18" style="stroke-width: 1px; stroke: rgb(0, 0, 0); stroke-opacity: 0; fill: rgb(255, 255, 255); fill-opacity: 1;"/></a><text class="annotation-text" text-anchor="middle" x="55.125" y="14" style="font-family: 'Open Sans', verdana, arial, sans-serif; font-size: 12px; fill: rgb(42, 63, 95); fill-opacity: 1; white-space: pre; pointer-events: all;"><tspan style="font-weight:bold"><a xlink:show="replace" target="_self" xlink:href="https://mm80843.github.io/T3.5/keyword_new_south_wale" style="cursor:pointer">new south wale</a></tspan></text></g></g><g class="annotation-arrow-g" style="opacity: 1;"><path d="M468.08,207L475.08,228" style="stroke-width: 1px; stroke: rgb(42, 63, 95); stroke-opacity: 1; stroke-dasharray: 0px, 0px, 22.1359px, 22.1359px;"/></g></g><g class="annotation" data-index="6" style="opacity: 1;"><g class="annotation-text-g" transform="rotate(0,106.84,409.73)"><g class="cursor-pointer" transform="translate(83,400)"><rect class="bg" x="0.5" y="0.5" width="47" height="18" style="stroke-width: 1px; stroke: rgb(0, 0, 0); stroke-opacity: 0; fill: rgb(255, 255, 255); fill-opacity: 1;"/><text class="annotation-text" text-anchor="middle" x="24.140625" y="14" style="font-family: 'Open Sans', verdana, arial, sans-serif; font-size: 12px; fill: rgb(42, 63, 95); fill-opacity: 1; white-space: pre;"><tspan style="font-style:italic">victoria</tspan></text></g></g><g class="annotation-arrow-g" style="opacity: 1;"><path d="M109.84,418.73L116.84,439.73" style="stroke-width: 1px; stroke: rgb(42, 63, 95); stroke-opacity: 1; stroke-dasharray: 0px, 0px, 22.1359px, 22.1359px;"/></g></g><g class="annotation" data-index="7" style="opacity: 1;"><g class="annotation-text-g" transform="rotate(0,560.84,533.75)"><g class="cursor-pointer" transform="translate(545,524)"><rect class="bg" x="0.5" y="0.5" width="31" height="18" style="stroke-width: 1px; stroke: rgb(0, 0, 0); stroke-opacity: 0; fill: rgb(255, 255, 255); fill-opacity: 1;"/><text class="annotation-text" text-anchor="middle" x="15.734375" y="14" style="font-family: 'Open Sans', verdana, arial, sans-serif; font-size: 12px; fill: rgb(42, 63, 95); fill-opacity: 1; white-space: pre;"><tspan style="font-style:italic">wale</tspan></text></g></g><g class="annotation-arrow-g" style="opacity: 1;"><path d="M563.84,542.75L570.84,563.75" style="stroke-width: 1px; stroke: rgb(42, 63, 95); stroke-opacity: 1; stroke-dasharray: 0px, 0px, 22.1359px, 22.1359px;"/></g></g><g class="annotation" data-index="8" style="opacity: 1;"><g class="annotation-text-g" transform="rotate(0,886.65,114.97999999999999)"><g class="cursor-pointer" transform="translate(862,105)"><a xlink:href="https://mm80843.github.io/T3.5/keyword_london" xlink:show="replace" style="cursor: pointer;"><rect class="bg" x="0.5" y="0.5" width="49" height="18" style="stroke-width: 1px; stroke: rgb(0, 0, 0); stroke-opacity: 0; fill: rgb(255, 255, 255); fill-opacity: 1;"/></a><text class="annotation-text" text-anchor="middle" x="25.046875" y="14" style="font-family: 'Open Sans', verdana, arial, sans-serif; font-size: 12px; fill: rgb(42, 63, 95); fill-opacity: 1; white-space: pre; pointer-events: all;"><tspan style="font-weight:bold"><a xlink:show="replace" target="_self" xlink:href="https://mm80843.github.io/T3.5/keyword_london" style="cursor:pointer">london</a></tspan></text></g></g><g class="annotation-arrow-g" style="opacity: 1;"><path d="M889.65,123.97999999999999L896.65,144.98" style="stroke-width: 1px; stroke: rgb(42, 63, 95); stroke-opacity: 1; stroke-dasharray: 0px, 0px, 22.1359px, 22.1359px;"/></g></g><g class="annotation" data-index="9" style="opacity: 1;"><g class="annotation-text-g" transform="rotate(0,46.25,252.10000000000002)"><g class="cursor-pointer" transform="translate(19,243)"><rect class="bg" x="0.5" y="0.5" width="53" height="18" style="stroke-width: 1px; stroke: rgb(0, 0, 0); stroke-opacity: 0; fill: rgb(255, 255, 255); fill-opacity: 1;"/><text class="annotation-text" text-anchor="middle" x="26.5" y="14" style="font-family: 'Open Sans', verdana, arial, sans-serif; font-size: 12px; fill: rgb(42, 63, 95); fill-opacity: 1; white-space: pre;"><tspan style="font-style:italic">premier</tspan></text></g></g><g class="annotation-arrow-g" style="opacity: 1;"><path d="M49.25,261.1L56.25,282.1" style="stroke-width: 1px; stroke: rgb(42, 63, 95); stroke-opacity: 1; stroke-dasharray: 0px, 0px, 22.1359px, 22.1359px;"/></g></g><g class="annotation" data-index="10" style="opacity: 1;"><g class="annotation-text-g" transform="rotate(0,304.38,487.63)"><g class="cursor-pointer" transform="translate(265,478)"><rect class="bg" x="0.5" y="0.5" width="78" height="18" style="stroke-width: 1px; stroke: rgb(0, 0, 0); stroke-opacity: 0; fill: rgb(255, 255, 255); fill-opacity: 1;"/><text class="annotation-text" text-anchor="middle" x="39.78125" y="14" style="font-family: 'Open Sans', verdana, arial, sans-serif; font-size: 12px; fill: rgb(42, 63, 95); fill-opacity: 1; white-space: pre;"><tspan style="font-style:italic">sydney area</tspan></text></g></g><g class="annotation-arrow-g" style="opacity: 1;"><path d="M307.38,496.63L314.38,517.63" style="stroke-width: 1px; stroke: rgb(42, 63, 95); stroke-opacity: 1; stroke-dasharray: 0px, 0px, 22.1359px, 22.1359px;"/></g></g><g class="annotation" data-index="11" style="opacity: 1;"><g class="annotation-text-g" transform="rotate(0,891.25,449.07)"><g class="cursor-pointer" transform="translate(869,440)"><rect class="bg" x="0.5" y="0.5" width="44" height="18" style="stroke-width: 1px; stroke: rgb(0, 0, 0); stroke-opacity: 0; fill: rgb(255, 255, 255); fill-opacity: 1;"/><text class="annotation-text" text-anchor="middle" x="20.90625" y="14" style="font-family: 'Open Sans', verdana, arial, sans-serif; font-size: 12px; fill: rgb(42, 63, 95); fill-opacity: 1; white-space: pre;"><tspan style="font-style:italic">cardiff</tspan></text></g></g><g class="annotation-arrow-g" style="opacity: 1;"><path d="M894.25,458.07L901.25,479.07" style="stroke-width: 1px; stroke: rgb(42, 63, 95); stroke-opacity: 1; stroke-dasharray: 0px, 0px, 22.1359px, 22.1359px;"/></g></g></g></svg>