<svg class="main-svg" xmlns="http://www.w3.org/2000/svg" xmlns:xlink="http://www.w3.org/1999/xlink" width="1000" height="600" style="" viewBox="0 0 1000 600"><rect x="0" y="0" width="1000" height="600" style="fill: rgb(255, 255, 255); fill-opacity: 1;"/><defs id="defs-dd23b9"><g class="clips"><clipPath id="clipdd23b9xyplot" class="plotclip"><rect width="1000" height="600"/></clipPath><clipPath class="axesclip" id="clipdd23b9x"><rect x="0" y="0" width="1000" height="600"/></clipPath><clipPath class="axesclip" id="clipdd23b9y"><rect x="0" y="0" width="1000" height="600"/></clipPath><clipPath class="axesclip" id="clipdd23b9xy"><rect x="0" y="0" width="1000" height="600"/></clipPath></g><g class="gradients"/><g class="patterns"/></defs><g class="bglayer"><rect class="bg" x="0" y="0" width="1000" height="600" style="fill: rgb(229, 236, 246); fill-opacity: 1; stroke-width: 0;"/></g><g class="layer-below"><g class="imagelayer"/><g class="shapelayer"/></g><g class="cartesianlayer"><g class="subplot xy"><g class="layer-subplot"><g class="shapelayer"/><g class="imagelayer"/></g><g class="gridlayer"><g class="x"/><g class="y"/></g><g class="zerolinelayer"/><path class="xlines-below"/><path class="ylines-below"/><g class="overlines-below"/><g class="xaxislayer-below"/><g class="yaxislayer-below"/><g class="overaxes-below"/><g class="plot" transform="" clip-path="url(#clipdd23b9xyplot)"><g class="scatterlayer mlayer"><g class="trace scatter trace357ebd" style="stroke-miterlimit: 2; opacity: 1;"><g class="fills"/><g class="errorbars"/><g class="lines"/><g class="points"><path class="point" transform="translate(56.25,121.55)" d="M0,0A0,0 0 1,1 0,-0A0,0 0 0,1 0,0Z" style="opacity: 0.7; stroke-width: 1px; fill: rgb(99, 110, 250); fill-opacity: 1; stroke: rgb(255, 255, 255); stroke-opacity: 1;"/><path class="point" transform="translate(894.66,292.39)" d="M49.5,0A49.5,49.5 0 1,1 0,-49.5A49.5,49.5 0 0,1 49.5,0Z" style="opacity: 0.7; stroke-width: 1px; fill: rgb(99, 110, 250); fill-opacity: 1; stroke: rgb(255, 255, 255); stroke-opacity: 1;"/><path class="point" transform="translate(604.89,39.5)" d="M0,0A0,0 0 1,1 0,-0A0,0 0 0,1 0,0Z" style="opacity: 0.7; stroke-width: 1px; fill: rgb(99, 110, 250); fill-opacity: 1; stroke: rgb(255, 255, 255); stroke-opacity: 1;"/><path class="point" transform="translate(125.9,521.59)" d="M0,0A0,0 0 1,1 0,-0A0,0 0 0,1 0,0Z" style="opacity: 0.7; stroke-width: 1px; fill: rgb(99, 110, 250); fill-opacity: 1; stroke: rgb(255, 255, 255); stroke-opacity: 1;"/><path class="point" transform="translate(687.28,557.5)" d="M0,0A0,0 0 1,1 0,-0A0,0 0 0,1 0,0Z" style="opacity: 0.7; stroke-width: 1px; fill: rgb(99, 110, 250); fill-opacity: 1; stroke: rgb(255, 255, 255); stroke-opacity: 1;"/></g><g class="text"/></g><g class="trace scatter trace9ea98e" style="stroke-miterlimit: 2; opacity: 1;"><g class="fills"/><g class="errorbars"/><g class="lines"><path class="js-line" d="M56.25,121.55L894.66,292.39" style="vector-effect: non-scaling-stroke; fill: none; stroke: rgb(120, 120, 0); stroke-opacity: 0.2; stroke-width: 2px; opacity: 1; stroke-dasharray: 9px, 9px;"/></g><g class="points"><path class="point" transform="translate(56.25,121.55)" d="M3,0A3,3 0 1,1 0,-3A3,3 0 0,1 3,0Z" style="opacity: 1; stroke-width: 0px; fill: rgb(120, 120, 0); fill-opacity: 0.2;"/><path class="point" transform="translate(894.66,292.39)" d="M3,0A3,3 0 1,1 0,-3A3,3 0 0,1 3,0Z" style="opacity: 1; stroke-width: 0px; fill: rgb(120, 120, 0); fill-opacity: 0.2;"/></g><g class="text"/></g><g class="trace scatter traceb02354" style="stroke-miterlimit: 2; opacity: 1;"><g class="fills"/><g class="errorbars"/><g class="lines"><path class="js-line" d="M894.66,292.39L604.89,39.5" style="vector-effect: non-scaling-stroke; fill: none; stroke: rgb(120, 120, 0); stroke-opacity: 0.2; stroke-width: 2px; opacity: 1; stroke-dasharray: 9px, 9px;"/></g><g class="points"><path class="point" transform="translate(894.66,292.39)" d="M3,0A3,3 0 1,1 0,-3A3,3 0 0,1 3,0Z" style="opacity: 1; stroke-width: 0px; fill: rgb(120, 120, 0); fill-opacity: 0.2;"/><path class="point" transform="translate(604.89,39.5)" d="M3,0A3,3 0 1,1 0,-3A3,3 0 0,1 3,0Z" style="opacity: 1; stroke-width: 0px; fill: rgb(120, 120, 0); fill-opacity: 0.2;"/></g><g class="text"/></g><g class="trace scatter trace2c56b0" style="stroke-miterlimit: 2; opacity: 1;"><g class="fills"/><g class="errorbars"/><g class="lines"/><g class="points"><path class="point" transform="translate(894.66,292.39)" d="M3,0A3,3 0 1,1 0,-3A3,3 0 0,1 3,0Z" style="opacity: 1; stroke-width: 0px; fill: rgb(120, 120, 0); fill-opacity: 0.2;"/><path class="point" transform="translate(894.66,292.39)" d="M3,0A3,3 0 1,1 0,-3A3,3 0 0,1 3,0Z" style="opacity: 1; stroke-width: 0px; fill: rgb(120, 120, 0); fill-opacity: 0.2;"/></g><g class="text"/></g><g class="trace scatter tracea56e7c" style="stroke-miterlimit: 2; opacity: 1;"><g class="fills"/><g class="errorbars"/><g class="lines"><path class="js-line" d="M894.66,292.39L125.9,521.59" style="vector-effect: non-scaling-stroke; fill: none; stroke: rgb(120, 120, 0); stroke-opacity: 0.2; stroke-width: 2px; opacity: 1; stroke-dasharray: 9px, 9px;"/></g><g class="points"><path class="point" transform="translate(894.66,292.39)" d="M3,0A3,3 0 1,1 0,-3A3,3 0 0,1 3,0Z" style="opacity: 1; stroke-width: 0px; fill: rgb(120, 120, 0); fill-opacity: 0.2;"/><path class="point" transform="translate(125.9,521.59)" d="M3,0A3,3 0 1,1 0,-3A3,3 0 0,1 3,0Z" style="opacity: 1; stroke-width: 0px; fill: rgb(120, 120, 0); fill-opacity: 0.2;"/></g><g class="text"/></g><g class="trace scatter trace316a98" style="stroke-miterlimit: 2; opacity: 1;"><g class="fills"/><g class="errorbars"/><g class="lines"><path class="js-line" d="M604.89,39.5L894.66,292.39" style="vector-effect: non-scaling-stroke; fill: none; stroke: rgb(120, 120, 0); stroke-opacity: 0.2; stroke-width: 2px; opacity: 1; stroke-dasharray: 9px, 9px;"/></g><g class="points"><path class="point" transform="translate(604.89,39.5)" d="M3,0A3,3 0 1,1 0,-3A3,3 0 0,1 3,0Z" style="opacity: 1; stroke-width: 0px; fill: rgb(120, 120, 0); fill-opacity: 0.2;"/><path class="point" transform="translate(894.66,292.39)" d="M3,0A3,3 0 1,1 0,-3A3,3 0 0,1 3,0Z" style="opacity: 1; stroke-width: 0px; fill: rgb(120, 120, 0); fill-opacity: 0.2;"/></g><g class="text"/></g><g class="trace scatter trace8e6166" style="stroke-miterlimit: 2; opacity: 1;"><g class="fills"/><g class="errorbars"/><g class="lines"><path class="js-line" d="M125.9,521.59L894.66,292.39" style="vector-effect: non-scaling-stroke; fill: none; stroke: rgb(120, 120, 0); stroke-opacity: 0.2; stroke-width: 2px; opacity: 1; stroke-dasharray: 9px, 9px;"/></g><g class="points"><path class="point" transform="translate(125.9,521.59)" d="M3,0A3,3 0 1,1 0,-3A3,3 0 0,1 3,0Z" style="opacity: 1; stroke-width: 0px; fill: rgb(120, 120, 0); fill-opacity: 0.2;"/><path class="point" transform="translate(894.66,292.39)" d="M3,0A3,3 0 1,1 0,-3A3,3 0 0,1 3,0Z" style="opacity: 1; stroke-width: 0px; fill: rgb(120, 120, 0); fill-opacity: 0.2;"/></g><g class="text"/></g><g class="trace scatter trace78ba19" style="stroke-miterlimit: 2; opacity: 1;"><g class="fills"/><g class="errorbars"/><g class="lines"><path class="js-line" d="M687.28,557.5L894.66,292.39" style="vector-effect: non-scaling-stroke; fill: none; stroke: rgb(120, 120, 0); stroke-opacity: 0.2; stroke-width: 2px; opacity: 1; stroke-dasharray: 9px, 9px;"/></g><g class="points"><path class="point" transform="translate(687.28,557.5)" d="M3,0A3,3 0 1,1 0,-3A3,3 0 0,1 3,0Z" style="opacity: 1; stroke-width: 0px; fill: rgb(120, 120, 0); fill-opacity: 0.2;"/><path class="point" transform="translate(894.66,292.39)" d="M3,0A3,3 0 1,1 0,-3A3,3 0 0,1 3,0Z" style="opacity: 1; stroke-width: 0px; fill: rgb(120, 120, 0); fill-opacity: 0.2;"/></g><g class="text"/></g><g class="trace scatter trace170808" style="stroke-miterlimit: 2; opacity: 1;"><g class="fills"/><g class="errorbars"/><g class="lines"/><g class="points"><path class="point" transform="translate(56.25,121.55)" d="M5,0A5,5 0 1,1 0,-5A5,5 0 0,1 5,0Z" style="opacity: 1; stroke-width: 0px; fill: rgb(0, 128, 0); fill-opacity: 1;"/><path class="point" transform="translate(604.89,39.5)" d="M5,0A5,5 0 1,1 0,-5A5,5 0 0,1 5,0Z" style="opacity: 1; stroke-width: 0px; fill: rgb(0, 128, 0); fill-opacity: 1;"/><path class="point" transform="translate(125.9,521.59)" d="M5,0A5,5 0 1,1 0,-5A5,5 0 0,1 5,0Z" style="opacity: 1; stroke-width: 0px; fill: rgb(0, 128, 0); fill-opacity: 1;"/></g><g class="text"/></g><g class="trace scatter trace916224" style="stroke-miterlimit: 2; opacity: 1;"><g class="fills"/><g class="errorbars"/><g class="lines"/><g class="points"><path class="point" transform="translate(894.66,292.39)" d="M12.5,0A12.5,12.5 0 1,1 0,-12.5A12.5,12.5 0 0,1 12.5,0Z" style="opacity: 1; stroke-width: 0px; fill: rgb(0, 0, 0); fill-opacity: 1;"/></g><g class="text"/></g><g class="trace scatter tracecc1b1b" style="stroke-miterlimit: 2; opacity: 1;"><g class="fills"/><g class="errorbars"/><g class="lines"/><g class="points"><path class="point" transform="translate(687.28,557.5)" d="M10,0A10,10 0 1,1 0,-10A10,10 0 0,1 10,0Z" style="opacity: 1; stroke-width: 0px; fill: rgb(255, 0, 0); fill-opacity: 1;"/></g><g class="text"/></g></g></g><g class="overplot"/><path class="xlines-above crisp" d="M0,0" style="fill: none;"/><path class="ylines-above crisp" d="M0,0" style="fill: none;"/><g class="overlines-above"/><g class="xaxislayer-above"/><g class="yaxislayer-above"/><g class="overaxes-above"/></g></g><g class="polarlayer"/><g class="smithlayer"/><g class="ternarylayer"/><g class="geolayer"/><g class="funnelarealayer"/><g class="pielayer"/><g class="iciclelayer"/><g class="treemaplayer"/><g class="sunburstlayer"/><g class="glimages"/><defs id="topdefs-dd23b9"><g class="clips"/></defs><g class="layer-above"><g class="imagelayer"/><g class="shapelayer"/></g><g class="infolayer"><g class="g-gtitle"><text class="gtitle" x="50" y="0" text-anchor="start" dy="0em" style="font-family: 'Open Sans', verdana, arial, sans-serif; font-size: 17px; fill: rgb(42, 63, 95); opacity: 1; font-weight: normal; white-space: pre;">Keyword: cid</text></g><g class="annotation" data-index="0" style="opacity: 1;"><g class="annotation-text-g" transform="rotate(0,46.25,91.55)"><g class="cursor-pointer" transform="translate(20,82)"><rect class="bg" x="0.5" y="0.5" width="51" height="18" style="stroke-width: 1px; stroke: rgb(0, 0, 0); stroke-opacity: 0; fill: rgb(255, 255, 255); fill-opacity: 1;"/><text class="annotation-text" text-anchor="middle" x="25.4375" y="14" style="font-family: 'Open Sans', verdana, arial, sans-serif; font-size: 12px; fill: rgb(42, 63, 95); fill-opacity: 1; white-space: pre;"><tspan style="font-style:italic">ciaa237</tspan></text></g></g><g class="annotation-arrow-g" style="opacity: 1;"><path d="M49.25,100.55L56.25,121.55" style="stroke-width: 1px; stroke: rgb(42, 63, 95); stroke-opacity: 1; stroke-dasharray: 0px, 0px, 22.1359px, 22.1359px;"/></g></g><g class="annotation" data-index="1" style="opacity: 1;"><g class="annotation-text-g" transform="rotate(0,884.66,262.39)"><g class="cursor-pointer" transform="translate(873,253)"><a xlink:href="https://mm80843.github.io/T3.5/keyword_cid" xlink:show="replace" style="cursor: pointer;"><rect class="bg" x="0.5" y="0.5" width="23" height="18" style="stroke-width: 1px; stroke: rgb(0, 0, 0); stroke-opacity: 0; fill: rgb(255, 255, 255); fill-opacity: 1;"/></a><text class="annotation-text" text-anchor="middle" x="11.78125" y="14" style="font-family: 'Open Sans', verdana, arial, sans-serif; font-size: 12px; fill: rgb(42, 63, 95); fill-opacity: 1; white-space: pre; pointer-events: all;"><tspan style="font-weight:bold"><a xlink:show="replace" target="_self" xlink:href="https://mm80843.github.io/T3.5/keyword_cid" style="cursor:pointer">cid</a></tspan></text></g></g><g class="annotation-arrow-g" style="opacity: 1;"><path d="M887.66,271.39L894.66,292.39" style="stroke-width: 1px; stroke: rgb(42, 63, 95); stroke-opacity: 1; stroke-dasharray: 0px, 0px, 22.1359px, 22.1359px;"/></g></g><g class="annotation" data-index="2" style="opacity: 1;"><g class="annotation-text-g" transform="rotate(0,594.89,9.5)"><g class="cursor-pointer" transform="translate(558,0)"><rect class="bg" x="0.5" y="0.5" width="72" height="18" style="stroke-width: 1px; stroke: rgb(0, 0, 0); stroke-opacity: 0; fill: rgb(255, 255, 255); fill-opacity: 1;"/><text class="annotation-text" text-anchor="middle" x="36.1875" y="14" style="font-family: 'Open Sans', verdana, arial, sans-serif; font-size: 12px; fill: rgb(42, 63, 95); fill-opacity: 1; white-space: pre;"><tspan style="font-style:italic">cid ciab230</tspan></text></g></g><g class="annotation-arrow-g" style="opacity: 1;"><path d="M597.89,18.5L604.89,39.5" style="stroke-width: 1px; stroke: rgb(42, 63, 95); stroke-opacity: 1; stroke-dasharray: 0px, 0px, 22.1359px, 22.1359px;"/></g></g><g class="annotation" data-index="3" style="opacity: 1;"><g class="annotation-text-g" transform="rotate(0,115.9,491.59000000000003)"><g class="cursor-pointer" transform="translate(94,482)"><rect class="bg" x="0.5" y="0.5" width="42" height="18" style="stroke-width: 1px; stroke: rgb(0, 0, 0); stroke-opacity: 0; fill: rgb(255, 255, 255); fill-opacity: 1;"/><text class="annotation-text" text-anchor="middle" x="21.375" y="14" style="font-family: 'Open Sans', verdana, arial, sans-serif; font-size: 12px; fill: rgb(42, 63, 95); fill-opacity: 1; white-space: pre;"><tspan style="font-style:italic">ciz613</tspan></text></g></g><g class="annotation-arrow-g" style="opacity: 1;"><path d="M118.9,500.59000000000003L125.9,521.59" style="stroke-width: 1px; stroke: rgb(42, 63, 95); stroke-opacity: 1; stroke-dasharray: 0px, 0px, 22.136px, 22.136px;"/></g></g><g class="annotation" data-index="4" style="opacity: 1;"><g class="annotation-text-g" transform="rotate(0,677.28,527.5)"><g class="cursor-pointer" transform="translate(643,518)"><a xlink:href="https://mm80843.github.io/T3.5/cluster_2" xlink:show="replace" style="cursor: pointer;"><rect class="bg" x="0.5" y="0.5" width="67" height="18" style="stroke-width: 1px; stroke: rgb(0, 0, 0); stroke-opacity: 0; fill: rgb(255, 255, 255); fill-opacity: 1;"/></a><text class="annotation-text" text-anchor="middle" x="33.9375" y="14" style="font-family: 'Open Sans', verdana, arial, sans-serif; font-size: 12px; fill: rgb(42, 63, 95); fill-opacity: 1; white-space: pre; pointer-events: all;"><tspan style="font-weight:bold"><a xlink:show="replace" target="_self" xlink:href="https://mm80843.github.io/T3.5/cluster_2" style="cursor:pointer">space-cid</a></tspan></text></g></g><g class="annotation-arrow-g" style="opacity: 1;"><path d="M680.28,536.5L687.28,557.5" style="stroke-width: 1px; stroke: rgb(42, 63, 95); stroke-opacity: 1; stroke-dasharray: 0px, 0px, 22.1359px, 22.1359px;"/></g></g></g></svg>